<svg width="58" height="60" viewBox="0 0 58 60" fill="none" xmlns="http://www.w3.org/2000/svg">
<g id="action/assignment_ind_24px">
<mask id="mask0" mask-type="alpha" maskUnits="userSpaceOnUse" x="7" y="5" width="44" height="50">
<path id="icon/action/assignment_ind_24px" fill-rule="evenodd" clip-rule="evenodd" d="M35.815 10H45.9167C48.575 10 50.75 12.25 50.75 15V50C50.75 52.75 48.575 55 45.9167 55H12.0833C9.425 55 7.25 52.75 7.25 50V15C7.25 12.25 9.425 10 12.0833 10H22.185C23.2 7.1 25.8583 5 29 5C32.1417 5 34.8 7.1 35.815 10ZM31.4167 12.5C31.4167 11.125 30.3292 9.99999 29.0001 9.99999C27.6709 9.99999 26.5834 11.125 26.5834 12.5C26.5834 13.875 27.6709 15 29.0001 15C30.3292 15 31.4167 13.875 31.4167 12.5ZM29 20C33.0117 20 36.25 23.35 36.25 27.5C36.25 31.65 33.0117 35 29 35C24.9883 35 21.75 31.65 21.75 27.5C21.75 23.35 24.9883 20 29 20ZM14.5 46.5V50H43.5V46.5C43.5 41.5 33.8333 38.75 29 38.75C24.1667 38.75 14.5 41.5 14.5 46.5Z" fill="white"/>
</mask>
<g mask="url(#mask0)">
<g id="&#240;&#159;&#142;&#168; Fill">
<rect id="&#240;&#159;&#142;&#168; Fill_2" width="58" height="60" fill="#464F62"/>
</g>
</g>
</g>
</svg>
