<svg width="62" height="62" viewBox="0 0 62 62" fill="none" xmlns="http://www.w3.org/2000/svg">
<path d="M49.8904 33.9062C49.8904 35.4391 49.4359 36.9374 48.5843 38.2119C47.7327 39.4864 46.5223 40.4797 45.1062 41.0663C43.6901 41.6529 42.1318 41.8064 40.6285 41.5073C39.1251 41.2083 37.7442 40.4702 36.6603 39.3863C35.5765 38.3025 34.8384 36.9216 34.5393 35.4182C34.2403 33.9148 34.3938 32.3566 34.9804 30.9405C35.5669 29.5243 36.5603 28.3139 37.8348 27.4624C39.1092 26.6108 40.6076 26.1562 42.1404 26.1562C44.1951 26.1586 46.165 26.9758 47.618 28.4287C49.0709 29.8816 49.8881 31.8515 49.8904 33.9062ZM57.6404 33.9062C57.6404 36.9719 56.7314 39.9686 55.0282 42.5176C53.325 45.0665 50.9043 47.0532 48.072 48.2264C45.2398 49.3995 42.1232 49.7065 39.1165 49.1084C36.1098 48.5103 33.348 47.0341 31.1803 44.8664C29.0126 42.6987 27.5363 39.9369 26.9382 36.9301C26.3402 33.9234 26.6471 30.8069 27.8203 27.9747C28.9934 25.1424 30.9801 22.7216 33.5291 21.0185C36.078 19.3153 39.0748 18.4063 42.1404 18.4062C46.2498 18.4111 50.1894 20.0457 53.0952 22.9515C56.001 25.8572 57.6356 29.7969 57.6404 33.9062ZM51.8279 33.9062C51.8279 31.9902 51.2598 30.1173 50.1953 28.5242C49.1308 26.9311 47.6178 25.6894 45.8477 24.9562C44.0775 24.2229 42.1297 24.0311 40.2505 24.4049C38.3713 24.7787 36.6451 25.7013 35.2903 27.0562C33.9355 28.411 33.0129 30.1371 32.6391 32.0163C32.2653 33.8955 32.4571 35.8433 33.1903 37.6135C33.9236 39.3837 35.1652 40.8966 36.7583 41.9611C38.3514 43.0256 40.2244 43.5937 42.1404 43.5937C44.7088 43.5909 47.1713 42.5694 48.9874 40.7532C50.8036 38.9371 51.8251 36.4747 51.8279 33.9062ZM28.0296 44.1101L23.7826 56.8501C23.7304 57.0068 23.7191 57.1743 23.7498 57.3366C23.7806 57.499 23.8523 57.6507 23.9582 57.7775C24.0641 57.9043 24.2007 58.0019 24.3549 58.061C24.5092 58.1201 24.676 58.1388 24.8395 58.1153L31.2052 57.2057L35.7215 60.8191C35.8343 60.9093 35.9659 60.9731 36.1065 61.0059C36.2472 61.0387 36.3934 61.0396 36.5345 61.0086C36.6756 60.9776 36.8079 60.9154 36.9219 60.8266C37.0358 60.7379 37.1284 60.6247 37.193 60.4955L41.7791 51.3253C39.0851 51.2693 36.4409 50.5884 34.055 49.3363C31.669 48.0842 29.6063 46.2952 28.0296 44.1101ZM60.4953 56.8501L56.2493 44.1111C54.6723 46.2958 52.6096 48.0846 50.2237 49.3365C47.8377 50.5883 45.1937 51.2692 42.4998 51.3253L47.081 60.4955C47.1456 60.6249 47.2383 60.7382 47.3523 60.827C47.4663 60.9159 47.5988 60.9782 47.74 61.0092C47.8812 61.0402 48.0275 61.0392 48.1683 61.0064C48.3091 60.9735 48.4407 60.9095 48.5535 60.8191L53.0699 57.2057L59.4355 58.1153C59.5993 58.1394 59.7664 58.1211 59.9211 58.0622C60.0758 58.0033 60.2128 57.9058 60.319 57.7789C60.4253 57.6521 60.4973 57.5001 60.5282 57.3375C60.559 57.1749 60.5477 57.0071 60.4953 56.8501Z" fill="#FF9500"/>
<path d="M43.1094 0.96875H16.9531C15.1553 0.970801 13.4316 1.68591 12.1603 2.9572C10.889 4.22848 10.1739 5.95213 10.1719 7.75V38.75H4.35938C3.58859 38.75 2.84937 39.0562 2.30435 39.6012C1.75932 40.1463 1.45313 40.8855 1.45312 41.6562V42.625C1.45518 44.4229 2.17029 46.1465 3.44157 47.4178C4.71286 48.6891 6.43651 49.4042 8.23438 49.4062H31.4844C33.2822 49.4039 35.0057 48.6888 36.2769 47.4175C37.5481 46.1463 38.2633 44.4228 38.2656 42.625V11.625H46.9844C47.7552 11.625 48.4944 11.3188 49.0394 10.7738C49.5844 10.2288 49.8906 9.48954 49.8906 8.71875V7.75C49.8886 5.95213 49.1735 4.22848 47.9022 2.9572C46.6309 1.68591 44.9072 0.970801 43.1094 0.96875ZM8.23438 47.4688C6.9502 47.4672 5.71907 46.9564 4.81103 46.0483C3.90298 45.1403 3.39216 43.9092 3.39062 42.625V41.6562C3.39062 41.3993 3.49269 41.1529 3.67437 40.9712C3.85604 40.7896 4.10245 40.6875 4.35938 40.6875H23.7344C23.9913 40.6875 24.2377 40.7896 24.4194 40.9712C24.6011 41.1529 24.7031 41.3993 24.7031 41.6562V42.625C24.7025 43.5276 24.8827 44.4212 25.2329 45.2531C25.5831 46.085 26.0964 46.8383 26.7423 47.4688H8.23438ZM36.3281 42.625C36.3281 43.9096 35.8178 45.1417 34.9094 46.05C34.001 46.9584 32.769 47.4688 31.4844 47.4688C30.1997 47.4688 28.9677 46.9584 28.0593 46.05C27.1509 45.1417 26.6406 43.9096 26.6406 42.625V41.6562C26.6406 40.8855 26.3344 40.1463 25.7894 39.6012C25.2444 39.0562 24.5052 38.75 23.7344 38.75H12.1094V7.75C12.1109 6.46583 12.6217 5.2347 13.5298 4.32665C14.4378 3.4186 15.669 2.90779 16.9531 2.90625H38.3625C37.7176 3.53719 37.2053 4.29076 36.856 5.1226C36.5066 5.95445 36.3271 6.84777 36.3281 7.75V42.625ZM47.9531 8.71875C47.9531 8.97568 47.8511 9.22208 47.6694 9.40376C47.4877 9.58543 47.2413 9.6875 46.9844 9.6875H38.2656V7.75C38.2656 6.46536 38.7759 5.23333 39.6843 4.32495C40.5927 3.41657 41.8247 2.90625 43.1094 2.90625C44.394 2.90625 45.626 3.41657 46.5344 4.32495C47.4428 5.23333 47.9531 6.46536 47.9531 7.75V8.71875ZM32.4531 7.75C32.4531 8.00693 32.3511 8.25333 32.1694 8.43501C31.9877 8.61669 31.7413 8.71875 31.4844 8.71875H19.8594C19.6024 8.71875 19.356 8.61669 19.1744 8.43501C18.9927 8.25333 18.8906 8.00693 18.8906 7.75C18.8906 7.49307 18.9927 7.24667 19.1744 7.06499C19.356 6.88331 19.6024 6.78125 19.8594 6.78125H31.4844C31.7413 6.78125 31.9877 6.88331 32.1694 7.06499C32.3511 7.24667 32.4531 7.49307 32.4531 7.75ZM32.4531 16.4688C32.4531 16.7257 32.3511 16.9721 32.1694 17.1538C31.9877 17.3354 31.7413 17.4375 31.4844 17.4375H16.9531C16.6962 17.4375 16.4498 17.3354 16.2681 17.1538C16.0864 16.9721 15.9844 16.7257 15.9844 16.4688C15.9844 16.2118 16.0864 15.9654 16.2681 15.7837C16.4498 15.6021 16.6962 15.5 16.9531 15.5H31.4844C31.7413 15.5 31.9877 15.6021 32.1694 15.7837C32.3511 15.9654 32.4531 16.2118 32.4531 16.4688ZM32.4531 22.2812C32.4531 22.5382 32.3511 22.7846 32.1694 22.9663C31.9877 23.1479 31.7413 23.25 31.4844 23.25H16.9531C16.6962 23.25 16.4498 23.1479 16.2681 22.9663C16.0864 22.7846 15.9844 22.5382 15.9844 22.2812C15.9844 22.0243 16.0864 21.7779 16.2681 21.5962C16.4498 21.4146 16.6962 21.3125 16.9531 21.3125H31.4844C31.7413 21.3125 31.9877 21.4146 32.1694 21.5962C32.3511 21.7779 32.4531 22.0243 32.4531 22.2812ZM32.4531 28.0938C32.4531 28.3507 32.3511 28.5971 32.1694 28.7788C31.9877 28.9604 31.7413 29.0625 31.4844 29.0625H16.9531C16.6962 29.0625 16.4498 28.9604 16.2681 28.7788C16.0864 28.5971 15.9844 28.3507 15.9844 28.0938C15.9844 27.8368 16.0864 27.5904 16.2681 27.4087C16.4498 27.2271 16.6962 27.125 16.9531 27.125H31.4844C31.7413 27.125 31.9877 27.2271 32.1694 27.4087C32.3511 27.5904 32.4531 27.8368 32.4531 28.0938ZM32.4531 33.9062C32.4531 34.1632 32.3511 34.4096 32.1694 34.5913C31.9877 34.7729 31.7413 34.875 31.4844 34.875H16.9531C16.6962 34.875 16.4498 34.7729 16.2681 34.5913C16.0864 34.4096 15.9844 34.1632 15.9844 33.9062C15.9844 33.6493 16.0864 33.4029 16.2681 33.2212C16.4498 33.0396 16.6962 32.9375 16.9531 32.9375H31.4844C31.7413 32.9375 31.9877 33.0396 32.1694 33.2212C32.3511 33.4029 32.4531 33.6493 32.4531 33.9062Z" fill="#151A6A"/>
</svg>
