<svg width="49" height="49" viewBox="0 0 49 49" fill="none" xmlns="http://www.w3.org/2000/svg">
<g id="communication/contacts_24px">
<mask id="mask0" mask-type="alpha" maskUnits="userSpaceOnUse" x="4" y="0" width="41" height="49">
<path id="icon/communication/contacts_24px" fill-rule="evenodd" clip-rule="evenodd" d="M38.7923 0H10.209C9.08607 0 8.16732 0.91875 8.16732 2.04167C8.16732 3.16458 9.08607 4.08333 10.209 4.08333H38.7923C39.9152 4.08333 40.834 3.16458 40.834 2.04167C40.834 0.91875 39.9152 0 38.7923 0ZM10.209 49H38.7923C39.9152 49 40.834 48.0812 40.834 46.9583C40.834 45.8354 39.9152 44.9167 38.7923 44.9167H10.209C9.08607 44.9167 8.16732 45.8354 8.16732 46.9583C8.16732 48.0812 9.08607 49 10.209 49ZM8.16732 8.16667H40.834C43.0798 8.16667 44.9173 10.0042 44.9173 12.25V36.75C44.9173 38.9958 43.0798 40.8333 40.834 40.8333H8.16732C5.92148 40.8333 4.08398 38.9958 4.08398 36.75V12.25C4.08398 10.0042 5.92148 8.16667 8.16732 8.16667ZM24.5007 13.7812C27.0323 13.7812 29.0944 15.8433 29.0944 18.375C29.0944 20.9067 27.0323 22.9688 24.5007 22.9688C21.969 22.9688 19.9069 20.9067 19.9069 18.375C19.9069 15.8433 21.969 13.7812 24.5007 13.7812ZM14.2923 34.7083H34.709V31.6458C34.709 28.2362 27.9102 26.5417 24.5006 26.5417C21.0911 26.5417 14.2923 28.2362 14.2923 31.6458V34.7083Z" fill="white"/>
</mask>
<g mask="url(#mask0)">
<g id="&#240;&#159;&#142;&#168; Fill">
<rect id="&#240;&#159;&#142;&#168; Fill_2" width="49" height="49" fill="#464F62"/>
</g>
</g>
</g>
</svg>
