<svg width="256" height="50" viewBox="0 0 256 50" fill="none" xmlns="http://www.w3.org/2000/svg">
<rect width="256" height="50" rx="8" fill="url(#paint0_linear)"/>
<path d="M43.1562 29.4844H36.9922L35.8203 33H32.082L38.4336 15.9375H41.6914L48.0781 33H44.3398L43.1562 29.4844ZM37.9414 26.6367H42.207L40.0625 20.25L37.9414 26.6367ZM53.0234 33H49.625V15H53.0234V33ZM59.3984 33H56V15H59.3984V33ZM81.793 27.3164C81.6602 29.1523 80.9805 30.5977 79.7539 31.6523C78.5352 32.707 76.9258 33.2344 74.9258 33.2344C72.7383 33.2344 71.0156 32.5 69.7578 31.0312C68.5078 29.5547 67.8828 27.5312 67.8828 24.9609V23.918C67.8828 22.2773 68.1719 20.832 68.75 19.582C69.3281 18.332 70.1523 17.375 71.2227 16.7109C72.3008 16.0391 73.5508 15.7031 74.9727 15.7031C76.9414 15.7031 78.5273 16.2305 79.7305 17.2852C80.9336 18.3398 81.6289 19.8203 81.8164 21.7266H78.3008C78.2148 20.625 77.9062 19.8281 77.375 19.3359C76.8516 18.8359 76.0508 18.5859 74.9727 18.5859C73.8008 18.5859 72.9219 19.0078 72.3359 19.8516C71.7578 20.6875 71.4609 21.9883 71.4453 23.7539V25.043C71.4453 26.8867 71.7227 28.2344 72.2773 29.0859C72.8398 29.9375 73.7227 30.3633 74.9258 30.3633C76.0117 30.3633 76.8203 30.1172 77.3516 29.625C77.8906 29.125 78.1992 28.3555 78.2773 27.3164H81.793ZM83.3516 26.543C83.3516 25.2852 83.5938 24.1641 84.0781 23.1797C84.5625 22.1953 85.2578 21.4336 86.1641 20.8945C87.0781 20.3555 88.1367 20.0859 89.3398 20.0859C91.0508 20.0859 92.4453 20.6094 93.5234 21.6562C94.6094 22.7031 95.2148 24.125 95.3398 25.9219L95.3633 26.7891C95.3633 28.7344 94.8203 30.2969 93.7344 31.4766C92.6484 32.6484 91.1914 33.2344 89.3633 33.2344C87.5352 33.2344 86.0742 32.6484 84.9805 31.4766C83.8945 30.3047 83.3516 28.7109 83.3516 26.6953V26.543ZM86.7383 26.7891C86.7383 27.9922 86.9648 28.9141 87.418 29.5547C87.8711 30.1875 88.5195 30.5039 89.3633 30.5039C90.1836 30.5039 90.8242 30.1914 91.2852 29.5664C91.7461 28.9336 91.9766 27.9258 91.9766 26.543C91.9766 25.3633 91.7461 24.4492 91.2852 23.8008C90.8242 23.1523 90.1758 22.8281 89.3398 22.8281C88.5117 22.8281 87.8711 23.1523 87.418 23.8008C86.9648 24.4414 86.7383 25.4375 86.7383 26.7891ZM105.043 31.7109C104.207 32.7266 103.051 33.2344 101.574 33.2344C100.215 33.2344 99.1758 32.8438 98.457 32.0625C97.7461 31.2812 97.3828 30.1367 97.3672 28.6289V20.3203H100.754V28.5117C100.754 29.832 101.355 30.4922 102.559 30.4922C103.707 30.4922 104.496 30.0938 104.926 29.2969V20.3203H108.324V33H105.137L105.043 31.7109ZM118.004 23.4961C117.543 23.4336 117.137 23.4023 116.785 23.4023C115.504 23.4023 114.664 23.8359 114.266 24.7031V33H110.879V20.3203H114.078L114.172 21.832C114.852 20.668 115.793 20.0859 116.996 20.0859C117.371 20.0859 117.723 20.1367 118.051 20.2383L118.004 23.4961ZM126.512 29.4961C126.512 29.082 126.305 28.7578 125.891 28.5234C125.484 28.2812 124.828 28.0664 123.922 27.8789C120.906 27.2461 119.398 25.9648 119.398 24.0352C119.398 22.9102 119.863 21.9727 120.793 21.2227C121.73 20.4648 122.953 20.0859 124.461 20.0859C126.07 20.0859 127.355 20.4648 128.316 21.2227C129.285 21.9805 129.77 22.9648 129.77 24.1758H126.383C126.383 23.6914 126.227 23.293 125.914 22.9805C125.602 22.6602 125.113 22.5 124.449 22.5C123.879 22.5 123.438 22.6289 123.125 22.8867C122.812 23.1445 122.656 23.4727 122.656 23.8711C122.656 24.2461 122.832 24.5508 123.184 24.7852C123.543 25.0117 124.145 25.2109 124.988 25.3828C125.832 25.5469 126.543 25.7344 127.121 25.9453C128.91 26.6016 129.805 27.7383 129.805 29.3555C129.805 30.5117 129.309 31.4492 128.316 32.168C127.324 32.8789 126.043 33.2344 124.473 33.2344C123.41 33.2344 122.465 33.0469 121.637 32.6719C120.816 32.2891 120.172 31.7695 119.703 31.1133C119.234 30.4492 119 29.7344 119 28.9688H122.211C122.242 29.5703 122.465 30.0312 122.879 30.3516C123.293 30.6719 123.848 30.832 124.543 30.832C125.191 30.832 125.68 30.7109 126.008 30.4688C126.344 30.2188 126.512 29.8945 126.512 29.4961ZM137.832 33.2344C135.973 33.2344 134.457 32.6641 133.285 31.5234C132.121 30.3828 131.539 28.8633 131.539 26.9648V26.6367C131.539 25.3633 131.785 24.2266 132.277 23.2266C132.77 22.2188 133.465 21.4453 134.363 20.9062C135.27 20.3594 136.301 20.0859 137.457 20.0859C139.191 20.0859 140.555 20.6328 141.547 21.7266C142.547 22.8203 143.047 24.3711 143.047 26.3789V27.7617H134.973C135.082 28.5898 135.41 29.2539 135.957 29.7539C136.512 30.2539 137.211 30.5039 138.055 30.5039C139.359 30.5039 140.379 30.0312 141.113 29.0859L142.777 30.9492C142.27 31.668 141.582 32.2305 140.715 32.6367C139.848 33.0352 138.887 33.2344 137.832 33.2344ZM137.445 22.8281C136.773 22.8281 136.227 23.0547 135.805 23.5078C135.391 23.9609 135.125 24.6094 135.008 25.4531H139.719V25.1836C139.703 24.4336 139.5 23.8555 139.109 23.4492C138.719 23.0352 138.164 22.8281 137.445 22.8281ZM151.848 29.4961C151.848 29.082 151.641 28.7578 151.227 28.5234C150.82 28.2812 150.164 28.0664 149.258 27.8789C146.242 27.2461 144.734 25.9648 144.734 24.0352C144.734 22.9102 145.199 21.9727 146.129 21.2227C147.066 20.4648 148.289 20.0859 149.797 20.0859C151.406 20.0859 152.691 20.4648 153.652 21.2227C154.621 21.9805 155.105 22.9648 155.105 24.1758H151.719C151.719 23.6914 151.562 23.293 151.25 22.9805C150.938 22.6602 150.449 22.5 149.785 22.5C149.215 22.5 148.773 22.6289 148.461 22.8867C148.148 23.1445 147.992 23.4727 147.992 23.8711C147.992 24.2461 148.168 24.5508 148.52 24.7852C148.879 25.0117 149.48 25.2109 150.324 25.3828C151.168 25.5469 151.879 25.7344 152.457 25.9453C154.246 26.6016 155.141 27.7383 155.141 29.3555C155.141 30.5117 154.645 31.4492 153.652 32.168C152.66 32.8789 151.379 33.2344 149.809 33.2344C148.746 33.2344 147.801 33.0469 146.973 32.6719C146.152 32.2891 145.508 31.7695 145.039 31.1133C144.57 30.4492 144.336 29.7344 144.336 28.9688H147.547C147.578 29.5703 147.801 30.0312 148.215 30.3516C148.629 30.6719 149.184 30.832 149.879 30.832C150.527 30.832 151.016 30.7109 151.344 30.4688C151.68 30.2188 151.848 29.8945 151.848 29.4961Z" fill="white"/>
<defs>
<linearGradient id="paint0_linear" x1="105.162" y1="24.6154" x2="228.033" y2="15.1078" gradientUnits="userSpaceOnUse">
<stop stop-color="#20B140"/>
<stop offset="1" stop-color="#25C435"/>
</linearGradient>
</defs>
</svg>
