<svg width="383" height="84" viewBox="0 0 383 84" fill="none" xmlns="http://www.w3.org/2000/svg">
<rect x="68" y="18" width="315" height="50" rx="8" fill="url(#paint0_linear)"/>
<path d="M127.56 36.016C128.056 36.272 128.304 36.68 128.304 37.24C128.304 37.576 128.184 37.904 127.944 38.224C127.688 38.56 127.36 38.728 126.96 38.728C126.688 38.728 126.416 38.656 126.144 38.512C125.36 38.144 124.512 37.96 123.6 37.96C122.48 37.96 121.504 38.2 120.672 38.68C119.84 39.144 119.2 39.808 118.752 40.672C118.304 41.52 118.08 42.496 118.08 43.6C118.08 45.488 118.584 46.92 119.592 47.896C120.616 48.872 121.952 49.36 123.6 49.36C124.576 49.36 125.424 49.176 126.144 48.808C126.432 48.68 126.688 48.616 126.912 48.616C127.328 48.616 127.68 48.792 127.968 49.144C128.208 49.448 128.328 49.776 128.328 50.128C128.328 50.384 128.264 50.616 128.136 50.824C128.008 51.032 127.824 51.192 127.584 51.304C126.336 51.928 125.008 52.24 123.6 52.24C122.032 52.24 120.592 51.912 119.28 51.256C117.968 50.584 116.92 49.6 116.136 48.304C115.352 47.008 114.96 45.44 114.96 43.6C114.96 41.968 115.328 40.504 116.064 39.208C116.816 37.912 117.848 36.904 119.16 36.184C120.472 35.448 121.952 35.08 123.6 35.08C125.024 35.08 126.344 35.392 127.56 36.016ZM137.351 38.92C138.935 38.92 140.031 39.408 140.639 40.384C141.247 41.344 141.551 42.68 141.551 44.392V50.536C141.551 50.952 141.415 51.304 141.143 51.592C140.871 51.864 140.527 52 140.111 52C139.695 52 139.351 51.864 139.079 51.592C138.807 51.304 138.671 50.952 138.671 50.536V44.392C138.671 43.512 138.495 42.824 138.143 42.328C137.807 41.816 137.207 41.56 136.343 41.56C135.447 41.56 134.743 41.832 134.231 42.376C133.735 42.904 133.487 43.576 133.487 44.392V50.536C133.487 50.952 133.351 51.304 133.079 51.592C132.807 51.864 132.463 52 132.047 52C131.631 52 131.287 51.864 131.015 51.592C130.743 51.304 130.607 50.952 130.607 50.536V35.704C130.607 35.288 130.743 34.944 131.015 34.672C131.287 34.384 131.631 34.24 132.047 34.24C132.463 34.24 132.807 34.384 133.079 34.672C133.351 34.944 133.487 35.288 133.487 35.704V41.008C133.919 40.432 134.463 39.944 135.119 39.544C135.791 39.128 136.535 38.92 137.351 38.92ZM156.189 45.28C156.173 45.664 156.021 45.976 155.733 46.216C155.445 46.456 155.109 46.576 154.725 46.576H146.805C146.997 47.52 147.437 48.264 148.125 48.808C148.813 49.336 149.589 49.6 150.453 49.6C151.109 49.6 151.621 49.544 151.989 49.432C152.357 49.304 152.645 49.176 152.853 49.048C153.077 48.904 153.229 48.808 153.309 48.76C153.597 48.616 153.869 48.544 154.125 48.544C154.461 48.544 154.749 48.664 154.989 48.904C155.229 49.144 155.349 49.424 155.349 49.744C155.349 50.176 155.125 50.568 154.677 50.92C154.229 51.288 153.629 51.6 152.877 51.856C152.125 52.112 151.365 52.24 150.597 52.24C149.253 52.24 148.077 51.96 147.069 51.4C146.077 50.84 145.309 50.072 144.765 49.096C144.221 48.104 143.949 46.992 143.949 45.76C143.949 44.384 144.237 43.176 144.813 42.136C145.389 41.096 146.149 40.304 147.093 39.76C148.037 39.2 149.045 38.92 150.117 38.92C151.173 38.92 152.165 39.208 153.093 39.784C154.037 40.36 154.789 41.136 155.349 42.112C155.909 43.088 156.189 44.144 156.189 45.28ZM150.117 41.56C148.261 41.56 147.165 42.432 146.829 44.176H153.117V44.008C153.053 43.336 152.725 42.76 152.133 42.28C151.541 41.8 150.869 41.56 150.117 41.56ZM164.183 38.92C165.543 38.92 166.639 39.136 167.471 39.568C168.303 39.984 168.719 40.544 168.719 41.248C168.719 41.6 168.615 41.912 168.407 42.184C168.199 42.44 167.927 42.568 167.591 42.568C167.335 42.568 167.127 42.536 166.967 42.472C166.807 42.392 166.647 42.296 166.487 42.184C166.343 42.056 166.199 41.952 166.055 41.872C165.895 41.792 165.655 41.72 165.335 41.656C165.031 41.592 164.783 41.56 164.591 41.56C163.391 41.56 162.447 41.936 161.759 42.688C161.087 43.424 160.751 44.392 160.751 45.592C160.751 46.744 161.095 47.704 161.783 48.472C162.471 49.224 163.351 49.6 164.423 49.6C165.207 49.6 165.791 49.504 166.175 49.312C166.271 49.264 166.399 49.184 166.559 49.072C166.735 48.944 166.895 48.848 167.039 48.784C167.183 48.72 167.359 48.688 167.567 48.688C167.967 48.688 168.279 48.816 168.503 49.072C168.743 49.328 168.863 49.656 168.863 50.056C168.863 50.44 168.639 50.8 168.191 51.136C167.743 51.472 167.151 51.744 166.415 51.952C165.679 52.144 164.895 52.24 164.063 52.24C162.831 52.24 161.743 51.952 160.799 51.376C159.871 50.8 159.151 50.008 158.639 49C158.127 47.976 157.871 46.84 157.871 45.592C157.871 44.296 158.135 43.144 158.663 42.136C159.207 41.128 159.959 40.344 160.919 39.784C161.879 39.208 162.967 38.92 164.183 38.92ZM181.623 49.48C181.927 49.8 182.079 50.16 182.079 50.56C182.079 50.96 181.919 51.296 181.599 51.568C181.295 51.84 180.967 51.976 180.615 51.976C180.199 51.976 179.847 51.816 179.559 51.496L175.239 46.936L174.063 48.016V50.536C174.063 50.952 173.927 51.304 173.655 51.592C173.383 51.864 173.039 52 172.623 52C172.207 52 171.863 51.864 171.591 51.592C171.319 51.304 171.183 50.952 171.183 50.536V35.704C171.183 35.288 171.319 34.944 171.591 34.672C171.863 34.384 172.207 34.24 172.623 34.24C173.039 34.24 173.383 34.384 173.655 34.672C173.927 34.944 174.063 35.288 174.063 35.704V44.584L179.199 39.616C179.503 39.312 179.855 39.16 180.255 39.16C180.607 39.16 180.919 39.312 181.191 39.616C181.479 39.904 181.623 40.2 181.623 40.504C181.623 40.888 181.431 41.248 181.047 41.584L177.423 44.92L181.623 49.48ZM196.404 45.592C196.404 46.872 196.116 48.024 195.54 49.048C194.964 50.056 194.172 50.84 193.164 51.4C192.172 51.96 191.076 52.24 189.876 52.24C188.66 52.24 187.556 51.96 186.564 51.4C185.572 50.84 184.788 50.056 184.212 49.048C183.636 48.024 183.348 46.872 183.348 45.592C183.348 44.312 183.636 43.168 184.212 42.16C184.788 41.136 185.572 40.344 186.564 39.784C187.556 39.208 188.66 38.92 189.876 38.92C191.076 38.92 192.172 39.208 193.164 39.784C194.172 40.344 194.964 41.136 195.54 42.16C196.116 43.168 196.404 44.312 196.404 45.592ZM193.524 45.592C193.524 44.808 193.356 44.112 193.02 43.504C192.7 42.88 192.26 42.4 191.7 42.064C191.156 41.728 190.548 41.56 189.876 41.56C189.204 41.56 188.588 41.728 188.028 42.064C187.484 42.4 187.044 42.88 186.708 43.504C186.388 44.112 186.228 44.808 186.228 45.592C186.228 46.376 186.388 47.072 186.708 47.68C187.044 48.288 187.484 48.76 188.028 49.096C188.588 49.432 189.204 49.6 189.876 49.6C190.548 49.6 191.156 49.432 191.7 49.096C192.26 48.76 192.7 48.288 193.02 47.68C193.356 47.072 193.524 46.376 193.524 45.592ZM208.338 39.16C208.754 39.16 209.098 39.304 209.37 39.592C209.642 39.864 209.778 40.208 209.778 40.624V46.72C209.778 48.448 209.298 49.8 208.338 50.776C207.394 51.752 206.042 52.24 204.282 52.24C202.522 52.24 201.17 51.752 200.226 50.776C199.282 49.8 198.81 48.448 198.81 46.72V40.624C198.81 40.208 198.946 39.864 199.218 39.592C199.49 39.304 199.834 39.16 200.25 39.16C200.666 39.16 201.01 39.304 201.282 39.592C201.554 39.864 201.69 40.208 201.69 40.624V46.72C201.69 47.696 201.906 48.424 202.338 48.904C202.77 49.368 203.418 49.6 204.282 49.6C205.162 49.6 205.818 49.368 206.25 48.904C206.682 48.424 206.898 47.696 206.898 46.72V40.624C206.898 40.208 207.034 39.864 207.306 39.592C207.578 39.304 207.922 39.16 208.338 39.16ZM219.088 49.288C219.312 49.288 219.512 49.4 219.688 49.624C219.88 49.832 219.976 50.112 219.976 50.464C219.976 50.896 219.736 51.264 219.256 51.568C218.792 51.856 218.264 52 217.672 52C216.68 52 215.84 51.792 215.152 51.376C214.48 50.944 214.144 50.04 214.144 48.664V42.04H213.04C212.656 42.04 212.336 41.912 212.08 41.656C211.824 41.4 211.696 41.08 211.696 40.696C211.696 40.328 211.824 40.024 212.08 39.784C212.336 39.528 212.656 39.4 213.04 39.4H214.144V37.864C214.144 37.448 214.28 37.104 214.552 36.832C214.84 36.544 215.192 36.4 215.608 36.4C216.008 36.4 216.344 36.544 216.616 36.832C216.888 37.104 217.024 37.448 217.024 37.864V39.4H218.728C219.112 39.4 219.432 39.528 219.688 39.784C219.944 40.04 220.072 40.36 220.072 40.744C220.072 41.112 219.944 41.424 219.688 41.68C219.432 41.92 219.112 42.04 218.728 42.04H217.024V48.544C217.024 48.88 217.112 49.128 217.288 49.288C217.464 49.432 217.704 49.504 218.008 49.504C218.136 49.504 218.312 49.472 218.536 49.408C218.728 49.328 218.912 49.288 219.088 49.288ZM243.675 49.552C243.899 49.76 244.059 49.96 244.155 50.152C244.251 50.344 244.299 50.568 244.299 50.824C244.299 51.096 244.195 51.368 243.987 51.64C243.779 51.912 243.491 52.048 243.123 52.048C242.771 52.048 242.499 51.968 242.307 51.808L240.987 50.68L240.219 50.008C238.731 51.496 236.851 52.24 234.579 52.24C233.475 52.24 232.459 52 231.531 51.52C230.619 51.024 229.899 50.376 229.371 49.576C228.859 48.76 228.603 47.896 228.603 46.984C228.603 44.616 229.779 42.912 232.131 41.872C231.827 41.456 231.595 41.056 231.435 40.672C231.275 40.288 231.195 39.88 231.195 39.448C231.195 38.648 231.411 37.912 231.843 37.24C232.275 36.552 232.883 36 233.667 35.584C234.467 35.168 235.387 34.96 236.427 34.96C237.531 34.96 238.523 35.152 239.403 35.536C240.299 35.904 240.899 36.384 241.203 36.976C241.347 37.264 241.419 37.576 241.419 37.912C241.419 38.232 241.299 38.504 241.059 38.728C240.835 38.936 240.539 39.04 240.171 39.04C239.755 39.04 239.443 38.896 239.235 38.608C238.899 38.16 238.499 37.84 238.035 37.648C237.587 37.456 237.051 37.36 236.427 37.36C235.739 37.36 235.195 37.544 234.795 37.912C234.411 38.28 234.219 38.744 234.219 39.304C234.219 39.816 234.411 40.336 234.795 40.864C235.195 41.376 235.739 41.968 236.427 42.64C236.875 43.088 237.099 43.312 237.099 43.312C237.611 43.872 238.515 44.768 239.811 46C240.131 45.28 240.355 44.488 240.483 43.624C240.515 43.352 240.619 43.152 240.795 43.024C240.971 42.88 241.251 42.808 241.635 42.808C242.003 42.808 242.307 42.952 242.547 43.24C242.787 43.512 242.907 43.848 242.907 44.248L242.883 44.488C242.707 45.688 242.347 46.808 241.803 47.848C242.443 48.408 243.067 48.976 243.675 49.552ZM235.251 49.528C236.387 49.528 237.387 49.112 238.251 48.28C236.651 46.84 235.323 45.512 234.267 44.296L233.835 43.792C232.971 44.048 232.371 44.4 232.035 44.848C231.699 45.296 231.531 45.864 231.531 46.552C231.531 47.368 231.827 48.072 232.419 48.664C233.027 49.24 233.971 49.528 235.251 49.528ZM260.361 35.2C261.177 35.2 261.953 35.448 262.689 35.944C263.425 36.424 264.017 37.08 264.465 37.912C264.913 38.728 265.137 39.624 265.137 40.6C265.137 41.56 264.913 42.456 264.465 43.288C264.017 44.12 263.425 44.784 262.689 45.28C261.953 45.76 261.177 46 260.361 46H256.185V50.536C256.185 50.968 256.057 51.32 255.801 51.592C255.545 51.864 255.209 52 254.793 52C254.393 52 254.065 51.864 253.809 51.592C253.553 51.304 253.425 50.952 253.425 50.536V36.664C253.425 36.248 253.561 35.904 253.833 35.632C254.121 35.344 254.473 35.2 254.889 35.2H260.361ZM260.361 43.264C260.665 43.264 260.961 43.136 261.249 42.88C261.553 42.624 261.793 42.296 261.969 41.896C262.161 41.48 262.257 41.048 262.257 40.6C262.257 40.152 262.161 39.728 261.969 39.328C261.793 38.912 261.553 38.584 261.249 38.344C260.961 38.088 260.665 37.96 260.361 37.96H256.185V43.264H260.361ZM277.921 38.92C278.337 38.92 278.681 39.056 278.953 39.328C279.225 39.6 279.361 39.952 279.361 40.384V50.536C279.361 50.952 279.225 51.304 278.953 51.592C278.681 51.864 278.337 52 277.921 52C277.505 52 277.161 51.864 276.889 51.592C276.633 51.32 276.497 50.976 276.481 50.56C276.081 51.024 275.537 51.424 274.849 51.76C274.177 52.08 273.465 52.24 272.713 52.24C271.609 52.24 270.609 51.96 269.713 51.4C268.817 50.824 268.105 50.032 267.577 49.024C267.065 48.016 266.809 46.872 266.809 45.592C266.809 44.312 267.065 43.168 267.577 42.16C268.089 41.136 268.785 40.344 269.665 39.784C270.561 39.208 271.545 38.92 272.617 38.92C273.385 38.92 274.105 39.064 274.777 39.352C275.449 39.624 276.017 39.976 276.481 40.408V40.384C276.481 39.968 276.617 39.624 276.889 39.352C277.161 39.064 277.505 38.92 277.921 38.92ZM273.073 49.6C274.113 49.6 274.961 49.224 275.617 48.472C276.273 47.704 276.601 46.744 276.601 45.592C276.601 44.44 276.273 43.48 275.617 42.712C274.961 41.944 274.113 41.56 273.073 41.56C272.049 41.56 271.209 41.944 270.553 42.712C269.897 43.48 269.569 44.44 269.569 45.592C269.569 46.744 269.889 47.704 270.529 48.472C271.185 49.224 272.033 49.6 273.073 49.6ZM291.729 39.16C292.145 39.16 292.489 39.304 292.761 39.592C293.033 39.864 293.169 40.208 293.169 40.624V50.824C293.169 52.904 292.609 54.416 291.489 55.36C290.369 56.32 288.873 56.8 287.001 56.8C286.457 56.8 285.897 56.752 285.321 56.656C284.761 56.576 284.305 56.464 283.953 56.32C283.169 55.984 282.777 55.52 282.777 54.928C282.777 54.816 282.801 54.688 282.849 54.544C282.945 54.192 283.105 53.92 283.329 53.728C283.569 53.552 283.825 53.464 284.097 53.464C284.257 53.464 284.409 53.488 284.553 53.536C284.665 53.584 284.857 53.664 285.129 53.776C285.417 53.888 285.713 53.976 286.017 54.04C286.337 54.12 286.665 54.16 287.001 54.16C288.137 54.16 288.969 53.912 289.497 53.416C290.041 52.936 290.313 52.104 290.313 50.92V50.68C289.481 51.72 288.185 52.24 286.425 52.24C285.593 52.24 284.857 52.048 284.217 51.664C283.577 51.264 283.081 50.72 282.729 50.032C282.377 49.328 282.201 48.528 282.201 47.632V40.624C282.201 40.208 282.337 39.864 282.609 39.592C282.881 39.304 283.225 39.16 283.641 39.16C284.057 39.16 284.401 39.304 284.673 39.592C284.945 39.864 285.081 40.208 285.081 40.624V46.768C285.081 47.776 285.297 48.504 285.729 48.952C286.177 49.384 286.825 49.6 287.673 49.6C288.505 49.6 289.145 49.36 289.593 48.88C290.057 48.384 290.289 47.68 290.289 46.768V40.624C290.289 40.208 290.425 39.864 290.697 39.592C290.969 39.304 291.313 39.16 291.729 39.16ZM311.095 38.92C312.679 38.92 313.775 39.408 314.383 40.384C314.991 41.344 315.295 42.68 315.295 44.392V50.536C315.295 50.952 315.159 51.304 314.887 51.592C314.615 51.864 314.271 52 313.855 52C313.439 52 313.095 51.864 312.823 51.592C312.551 51.304 312.415 50.952 312.415 50.536V44.392C312.415 43.512 312.239 42.824 311.887 42.328C311.551 41.816 310.951 41.56 310.087 41.56C309.191 41.56 308.487 41.832 307.975 42.376C307.479 42.904 307.231 43.576 307.231 44.392V50.536C307.231 50.952 307.095 51.304 306.823 51.592C306.551 51.864 306.207 52 305.791 52C305.375 52 305.031 51.864 304.759 51.592C304.487 51.304 304.351 50.952 304.351 50.536V44.392C304.351 43.512 304.175 42.824 303.823 42.328C303.487 41.816 302.887 41.56 302.023 41.56C301.127 41.56 300.423 41.832 299.911 42.376C299.415 42.904 299.167 43.576 299.167 44.392V50.536C299.167 50.952 299.031 51.304 298.759 51.592C298.487 51.864 298.143 52 297.727 52C297.311 52 296.967 51.864 296.695 51.592C296.423 51.304 296.287 50.952 296.287 50.536V40.624C296.287 40.208 296.423 39.864 296.695 39.592C296.967 39.304 297.311 39.16 297.727 39.16C298.143 39.16 298.487 39.304 298.759 39.592C299.031 39.864 299.167 40.208 299.167 40.624V41.008C299.599 40.432 300.143 39.944 300.799 39.544C301.471 39.128 302.215 38.92 303.031 38.92C305.047 38.92 306.335 39.8 306.895 41.56C307.263 40.888 307.815 40.28 308.551 39.736C309.303 39.192 310.151 38.92 311.095 38.92ZM329.932 45.28C329.916 45.664 329.764 45.976 329.476 46.216C329.188 46.456 328.852 46.576 328.468 46.576H320.548C320.74 47.52 321.18 48.264 321.868 48.808C322.556 49.336 323.332 49.6 324.196 49.6C324.852 49.6 325.364 49.544 325.732 49.432C326.1 49.304 326.388 49.176 326.596 49.048C326.82 48.904 326.972 48.808 327.052 48.76C327.34 48.616 327.612 48.544 327.868 48.544C328.204 48.544 328.492 48.664 328.732 48.904C328.972 49.144 329.092 49.424 329.092 49.744C329.092 50.176 328.868 50.568 328.42 50.92C327.972 51.288 327.372 51.6 326.62 51.856C325.868 52.112 325.108 52.24 324.34 52.24C322.996 52.24 321.82 51.96 320.812 51.4C319.82 50.84 319.052 50.072 318.508 49.096C317.964 48.104 317.692 46.992 317.692 45.76C317.692 44.384 317.98 43.176 318.556 42.136C319.132 41.096 319.892 40.304 320.836 39.76C321.78 39.2 322.788 38.92 323.86 38.92C324.916 38.92 325.908 39.208 326.836 39.784C327.78 40.36 328.532 41.136 329.092 42.112C329.652 43.088 329.932 44.144 329.932 45.28ZM323.86 41.56C322.004 41.56 320.908 42.432 320.572 44.176H326.86V44.008C326.796 43.336 326.468 42.76 325.876 42.28C325.284 41.8 324.612 41.56 323.86 41.56ZM339.197 38.92C340.829 38.92 341.957 39.408 342.581 40.384C343.205 41.344 343.517 42.68 343.517 44.392V50.536C343.517 50.952 343.381 51.304 343.109 51.592C342.837 51.864 342.493 52 342.077 52C341.661 52 341.317 51.864 341.045 51.592C340.773 51.304 340.637 50.952 340.637 50.536V44.392C340.637 43.512 340.453 42.824 340.085 42.328C339.717 41.816 339.085 41.56 338.189 41.56C337.261 41.56 336.533 41.832 336.005 42.376C335.477 42.904 335.213 43.576 335.213 44.392V50.536C335.213 50.952 335.077 51.304 334.805 51.592C334.533 51.864 334.189 52 333.773 52C333.357 52 333.013 51.864 332.741 51.592C332.469 51.304 332.333 50.952 332.333 50.536V40.624C332.333 40.208 332.469 39.864 332.741 39.592C333.013 39.304 333.357 39.16 333.773 39.16C334.189 39.16 334.533 39.304 334.805 39.592C335.077 39.864 335.213 40.208 335.213 40.624V41.032C335.645 40.456 336.205 39.96 336.893 39.544C337.597 39.128 338.365 38.92 339.197 38.92ZM352.822 49.288C353.046 49.288 353.246 49.4 353.422 49.624C353.614 49.832 353.71 50.112 353.71 50.464C353.71 50.896 353.47 51.264 352.99 51.568C352.526 51.856 351.998 52 351.406 52C350.414 52 349.574 51.792 348.886 51.376C348.214 50.944 347.878 50.04 347.878 48.664V42.04H346.774C346.39 42.04 346.07 41.912 345.814 41.656C345.558 41.4 345.43 41.08 345.43 40.696C345.43 40.328 345.558 40.024 345.814 39.784C346.07 39.528 346.39 39.4 346.774 39.4H347.878V37.864C347.878 37.448 348.014 37.104 348.286 36.832C348.574 36.544 348.926 36.4 349.342 36.4C349.742 36.4 350.078 36.544 350.35 36.832C350.622 37.104 350.758 37.448 350.758 37.864V39.4H352.462C352.846 39.4 353.166 39.528 353.422 39.784C353.678 40.04 353.806 40.36 353.806 40.744C353.806 41.112 353.678 41.424 353.422 41.68C353.166 41.92 352.846 42.04 352.462 42.04H350.758V48.544C350.758 48.88 350.846 49.128 351.022 49.288C351.198 49.432 351.438 49.504 351.742 49.504C351.87 49.504 352.046 49.472 352.27 49.408C352.462 49.328 352.646 49.288 352.822 49.288Z" fill="white"/>
<path fill-rule="evenodd" clip-rule="evenodd" d="M42 84C65.196 84 84 65.196 84 42C84 18.804 65.196 0 42 0C18.804 0 0 18.804 0 42C0 65.196 18.804 84 42 84Z" fill="white"/>
<path fill-rule="evenodd" clip-rule="evenodd" d="M15.2735 21.0391C15.3766 21.0391 15.4687 21.1035 15.5041 21.2003L25.2943 48.0081L21.4285 49.4136L12.61 25.2111C12.5963 25.1735 12.5606 25.1485 12.5206 25.1485H5.0547C3.91992 25.1485 3 24.2285 3 23.0938C3 21.959 3.91992 21.0391 5.0547 21.0391H15.2735Z" fill="#464F62"/>
<path d="M47.5888 59.5472H16.3748C15.0132 59.5472 14.0497 58.2162 14.4748 56.9227L17.1573 48.7622C17.4271 47.9415 18.1933 47.3867 19.0573 47.3867H37.5957" stroke="#464F62" stroke-width="2" stroke-linecap="round"/>
<path fill-rule="evenodd" clip-rule="evenodd" d="M16.8422 32.3972C16.6388 31.7348 17.1545 31.0713 17.8466 31.1049L57.1634 33.012C57.8278 33.0442 58.2761 33.7041 58.0614 34.3337L52.4572 50.7632C52.3191 51.1682 51.9386 51.4404 51.5108 51.4404H23.4274C22.9881 51.4404 22.6003 51.1537 22.4714 50.7338L16.8422 32.3972Z" fill="#464F62"/>
<path fill-rule="evenodd" clip-rule="evenodd" d="M25.2946 67.6544C27.5333 67.6544 29.3481 65.8396 29.3481 63.6009C29.3481 61.3622 27.5333 59.5474 25.2946 59.5474C23.056 59.5474 21.2411 61.3622 21.2411 63.6009C21.2411 65.8396 23.056 67.6544 25.2946 67.6544Z" fill="#464F62"/>
<path fill-rule="evenodd" clip-rule="evenodd" d="M41.5085 67.6544C43.7471 67.6544 45.562 65.8396 45.562 63.6009C45.562 61.3622 43.7471 59.5474 41.5085 59.5474C39.2698 59.5474 37.455 61.3622 37.455 63.6009C37.455 65.8396 39.2698 67.6544 41.5085 67.6544Z" fill="#464F62"/>
<g clip-path="url(#clip0)">
<path fill-rule="evenodd" clip-rule="evenodd" d="M57.665 44C63.464 44 68.165 39.299 68.165 33.5C68.165 27.701 63.464 23 57.665 23C51.866 23 47.165 27.701 47.165 33.5C47.165 39.299 51.866 44 57.665 44Z" fill="url(#paint1_linear)"/>
<mask id="mask0" mask-type="alpha" maskUnits="userSpaceOnUse" x="50" y="28" width="15" height="11">
<path d="M54.9627 36.5678L52.2156 33.8207C52.0677 33.6724 51.8669 33.5891 51.6575 33.5891C51.4481 33.5891 51.2473 33.6724 51.0994 33.8207C50.7906 34.1294 50.7906 34.6282 51.0994 34.9369L54.4086 38.2461C54.7173 38.5548 55.2161 38.5548 55.5248 38.2461L63.9006 29.8703C64.2094 29.5615 64.2094 29.0628 63.9006 28.754C63.7527 28.6058 63.5519 28.5225 63.3425 28.5225C63.1331 28.5225 62.9323 28.6058 62.7844 28.754L54.9627 36.5678Z" fill="white"/>
</mask>
<g mask="url(#mask0)">
<rect x="48" y="24" width="19" height="19" fill="white"/>
</g>
</g>
<defs>
<linearGradient id="paint0_linear" x1="197.398" y1="42.6154" x2="348.126" y2="28.2642" gradientUnits="userSpaceOnUse">
<stop stop-color="#20B140"/>
<stop offset="1" stop-color="#25C435"/>
</linearGradient>
<linearGradient id="paint1_linear" x1="46.7198" y1="18.0254" x2="46.7198" y2="39.9159" gradientUnits="userSpaceOnUse">
<stop stop-color="#FFC700"/>
<stop offset="1" stop-color="#FF9500"/>
</linearGradient>
<clipPath id="clip0">
<rect width="33.8308" height="33.8308" fill="white" transform="translate(36.1941 10)"/>
</clipPath>
</defs>
</svg>
