<svg width="256" height="50" viewBox="0 0 256 50" fill="none" xmlns="http://www.w3.org/2000/svg">
<rect width="256" height="50" rx="8" fill="url(#paint0_linear)"/>
<path d="M46.4375 15.9375V27.1758C46.4375 29.043 45.8516 30.5195 44.6797 31.6055C43.5156 32.6914 41.9219 33.2344 39.8984 33.2344C37.9062 33.2344 36.3242 32.707 35.1523 31.6523C33.9805 30.5977 33.3828 29.1484 33.3594 27.3047V15.9375H36.875V27.1992C36.875 28.3164 37.1406 29.1328 37.6719 29.6484C38.2109 30.1562 38.9531 30.4102 39.8984 30.4102C41.875 30.4102 42.8789 29.3711 42.9102 27.293V15.9375H46.4375ZM55.9648 29.4961C55.9648 29.082 55.7578 28.7578 55.3438 28.5234C54.9375 28.2812 54.2812 28.0664 53.375 27.8789C50.3594 27.2461 48.8516 25.9648 48.8516 24.0352C48.8516 22.9102 49.3164 21.9727 50.2461 21.2227C51.1836 20.4648 52.4062 20.0859 53.9141 20.0859C55.5234 20.0859 56.8086 20.4648 57.7695 21.2227C58.7383 21.9805 59.2227 22.9648 59.2227 24.1758H55.8359C55.8359 23.6914 55.6797 23.293 55.3672 22.9805C55.0547 22.6602 54.5664 22.5 53.9023 22.5C53.332 22.5 52.8906 22.6289 52.5781 22.8867C52.2656 23.1445 52.1094 23.4727 52.1094 23.8711C52.1094 24.2461 52.2852 24.5508 52.6367 24.7852C52.9961 25.0117 53.5977 25.2109 54.4414 25.3828C55.2852 25.5469 55.9961 25.7344 56.5742 25.9453C58.3633 26.6016 59.2578 27.7383 59.2578 29.3555C59.2578 30.5117 58.7617 31.4492 57.7695 32.168C56.7773 32.8789 55.4961 33.2344 53.9258 33.2344C52.8633 33.2344 51.918 33.0469 51.0898 32.6719C50.2695 32.2891 49.625 31.7695 49.1562 31.1133C48.6875 30.4492 48.4531 29.7344 48.4531 28.9688H51.6641C51.6953 29.5703 51.918 30.0312 52.332 30.3516C52.7461 30.6719 53.3008 30.832 53.9961 30.832C54.6445 30.832 55.1328 30.7109 55.4609 30.4688C55.7969 30.2188 55.9648 29.8945 55.9648 29.4961ZM67.2852 33.2344C65.4258 33.2344 63.9102 32.6641 62.7383 31.5234C61.5742 30.3828 60.9922 28.8633 60.9922 26.9648V26.6367C60.9922 25.3633 61.2383 24.2266 61.7305 23.2266C62.2227 22.2188 62.918 21.4453 63.8164 20.9062C64.7227 20.3594 65.7539 20.0859 66.9102 20.0859C68.6445 20.0859 70.0078 20.6328 71 21.7266C72 22.8203 72.5 24.3711 72.5 26.3789V27.7617H64.4258C64.5352 28.5898 64.8633 29.2539 65.4102 29.7539C65.9648 30.2539 66.6641 30.5039 67.5078 30.5039C68.8125 30.5039 69.832 30.0312 70.5664 29.0859L72.2305 30.9492C71.7227 31.668 71.0352 32.2305 70.168 32.6367C69.3008 33.0352 68.3398 33.2344 67.2852 33.2344ZM66.8984 22.8281C66.2266 22.8281 65.6797 23.0547 65.2578 23.5078C64.8438 23.9609 64.5781 24.6094 64.4609 25.4531H69.1719V25.1836C69.1562 24.4336 68.9531 23.8555 68.5625 23.4492C68.1719 23.0352 67.6172 22.8281 66.8984 22.8281ZM81.5586 23.4961C81.0977 23.4336 80.6914 23.4023 80.3398 23.4023C79.0586 23.4023 78.2188 23.8359 77.8203 24.7031V33H74.4336V20.3203H77.6328L77.7266 21.832C78.4062 20.668 79.3477 20.0859 80.5508 20.0859C80.9258 20.0859 81.2773 20.1367 81.6055 20.2383L81.5586 23.4961ZM93.9922 15.9375L98.375 28.3125L102.734 15.9375H107.352V33H103.824V28.3359L104.176 20.2852L99.5703 33H97.1562L92.5625 20.2969L92.9141 28.3359V33H89.3984V15.9375H93.9922ZM117.547 33C117.391 32.6953 117.277 32.3164 117.207 31.8633C116.387 32.7773 115.32 33.2344 114.008 33.2344C112.766 33.2344 111.734 32.875 110.914 32.1562C110.102 31.4375 109.695 30.5312 109.695 29.4375C109.695 28.0938 110.191 27.0625 111.184 26.3438C112.184 25.625 113.625 25.2617 115.508 25.2539H117.066V24.5273C117.066 23.9414 116.914 23.4727 116.609 23.1211C116.312 22.7695 115.84 22.5938 115.191 22.5938C114.621 22.5938 114.172 22.7305 113.844 23.0039C113.523 23.2773 113.363 23.6523 113.363 24.1289H109.977C109.977 23.3945 110.203 22.7148 110.656 22.0898C111.109 21.4648 111.75 20.9766 112.578 20.625C113.406 20.2656 114.336 20.0859 115.367 20.0859C116.93 20.0859 118.168 20.4805 119.082 21.2695C120.004 22.0508 120.465 23.1523 120.465 24.5742V30.0703C120.473 31.2734 120.641 32.1836 120.969 32.8008V33H117.547ZM114.746 30.6445C115.246 30.6445 115.707 30.5352 116.129 30.3164C116.551 30.0898 116.863 29.7891 117.066 29.4141V27.2344H115.801C114.105 27.2344 113.203 27.8203 113.094 28.9922L113.082 29.1914C113.082 29.6133 113.23 29.9609 113.527 30.2344C113.824 30.5078 114.23 30.6445 114.746 30.6445ZM126.184 20.3203L126.289 21.7852C127.195 20.6523 128.41 20.0859 129.934 20.0859C131.277 20.0859 132.277 20.4805 132.934 21.2695C133.59 22.0586 133.926 23.2383 133.941 24.8086V33H130.555V24.8906C130.555 24.1719 130.398 23.6523 130.086 23.332C129.773 23.0039 129.254 22.8398 128.527 22.8398C127.574 22.8398 126.859 23.2461 126.383 24.0586V33H122.996V20.3203H126.184ZM143.867 33C143.711 32.6953 143.598 32.3164 143.527 31.8633C142.707 32.7773 141.641 33.2344 140.328 33.2344C139.086 33.2344 138.055 32.875 137.234 32.1562C136.422 31.4375 136.016 30.5312 136.016 29.4375C136.016 28.0938 136.512 27.0625 137.504 26.3438C138.504 25.625 139.945 25.2617 141.828 25.2539H143.387V24.5273C143.387 23.9414 143.234 23.4727 142.93 23.1211C142.633 22.7695 142.16 22.5938 141.512 22.5938C140.941 22.5938 140.492 22.7305 140.164 23.0039C139.844 23.2773 139.684 23.6523 139.684 24.1289H136.297C136.297 23.3945 136.523 22.7148 136.977 22.0898C137.43 21.4648 138.07 20.9766 138.898 20.625C139.727 20.2656 140.656 20.0859 141.688 20.0859C143.25 20.0859 144.488 20.4805 145.402 21.2695C146.324 22.0508 146.785 23.1523 146.785 24.5742V30.0703C146.793 31.2734 146.961 32.1836 147.289 32.8008V33H143.867ZM141.066 30.6445C141.566 30.6445 142.027 30.5352 142.449 30.3164C142.871 30.0898 143.184 29.7891 143.387 29.4141V27.2344H142.121C140.426 27.2344 139.523 27.8203 139.414 28.9922L139.402 29.1914C139.402 29.6133 139.551 29.9609 139.848 30.2344C140.145 30.5078 140.551 30.6445 141.066 30.6445ZM148.895 26.5664C148.895 24.6211 149.355 23.0547 150.277 21.8672C151.207 20.6797 152.457 20.0859 154.027 20.0859C155.418 20.0859 156.5 20.5625 157.273 21.5156L157.414 20.3203H160.484V32.5781C160.484 33.6875 160.23 34.6523 159.723 35.4727C159.223 36.293 158.516 36.918 157.602 37.3477C156.688 37.7773 155.617 37.9922 154.391 37.9922C153.461 37.9922 152.555 37.8047 151.672 37.4297C150.789 37.0625 150.121 36.5859 149.668 36L151.168 33.9375C152.012 34.8828 153.035 35.3555 154.238 35.3555C155.137 35.3555 155.836 35.1133 156.336 34.6289C156.836 34.1523 157.086 33.4727 157.086 32.5898V31.9102C156.305 32.793 155.277 33.2344 154.004 33.2344C152.48 33.2344 151.246 32.6406 150.301 31.4531C149.363 30.2578 148.895 28.6758 148.895 26.707V26.5664ZM152.281 26.8125C152.281 27.9609 152.512 28.8633 152.973 29.5195C153.434 30.168 154.066 30.4922 154.871 30.4922C155.902 30.4922 156.641 30.1055 157.086 29.332V24C156.633 23.2266 155.902 22.8398 154.895 22.8398C154.082 22.8398 153.441 23.1719 152.973 23.8359C152.512 24.5 152.281 25.4922 152.281 26.8125ZM168.934 33.2344C167.074 33.2344 165.559 32.6641 164.387 31.5234C163.223 30.3828 162.641 28.8633 162.641 26.9648V26.6367C162.641 25.3633 162.887 24.2266 163.379 23.2266C163.871 22.2188 164.566 21.4453 165.465 20.9062C166.371 20.3594 167.402 20.0859 168.559 20.0859C170.293 20.0859 171.656 20.6328 172.648 21.7266C173.648 22.8203 174.148 24.3711 174.148 26.3789V27.7617H166.074C166.184 28.5898 166.512 29.2539 167.059 29.7539C167.613 30.2539 168.312 30.5039 169.156 30.5039C170.461 30.5039 171.48 30.0312 172.215 29.0859L173.879 30.9492C173.371 31.668 172.684 32.2305 171.816 32.6367C170.949 33.0352 169.988 33.2344 168.934 33.2344ZM168.547 22.8281C167.875 22.8281 167.328 23.0547 166.906 23.5078C166.492 23.9609 166.227 24.6094 166.109 25.4531H170.82V25.1836C170.805 24.4336 170.602 23.8555 170.211 23.4492C169.82 23.0352 169.266 22.8281 168.547 22.8281ZM179.258 20.3203L179.363 21.7383C180.262 20.6367 181.477 20.0859 183.008 20.0859C184.641 20.0859 185.762 20.7305 186.371 22.0195C187.262 20.7305 188.531 20.0859 190.18 20.0859C191.555 20.0859 192.578 20.4883 193.25 21.293C193.922 22.0898 194.258 23.293 194.258 24.9023V33H190.859V24.9141C190.859 24.1953 190.719 23.6719 190.438 23.3438C190.156 23.0078 189.66 22.8398 188.949 22.8398C187.934 22.8398 187.23 23.3242 186.84 24.293L186.852 33H183.465V24.9258C183.465 24.1914 183.32 23.6602 183.031 23.332C182.742 23.0039 182.25 22.8398 181.555 22.8398C180.594 22.8398 179.898 23.2383 179.469 24.0352V33H176.082V20.3203H179.258ZM202.707 33.2344C200.848 33.2344 199.332 32.6641 198.16 31.5234C196.996 30.3828 196.414 28.8633 196.414 26.9648V26.6367C196.414 25.3633 196.66 24.2266 197.152 23.2266C197.645 22.2188 198.34 21.4453 199.238 20.9062C200.145 20.3594 201.176 20.0859 202.332 20.0859C204.066 20.0859 205.43 20.6328 206.422 21.7266C207.422 22.8203 207.922 24.3711 207.922 26.3789V27.7617H199.848C199.957 28.5898 200.285 29.2539 200.832 29.7539C201.387 30.2539 202.086 30.5039 202.93 30.5039C204.234 30.5039 205.254 30.0312 205.988 29.0859L207.652 30.9492C207.145 31.668 206.457 32.2305 205.59 32.6367C204.723 33.0352 203.762 33.2344 202.707 33.2344ZM202.32 22.8281C201.648 22.8281 201.102 23.0547 200.68 23.5078C200.266 23.9609 200 24.6094 199.883 25.4531H204.594V25.1836C204.578 24.4336 204.375 23.8555 203.984 23.4492C203.594 23.0352 203.039 22.8281 202.32 22.8281ZM212.973 20.3203L213.078 21.7852C213.984 20.6523 215.199 20.0859 216.723 20.0859C218.066 20.0859 219.066 20.4805 219.723 21.2695C220.379 22.0586 220.715 23.2383 220.73 24.8086V33H217.344V24.8906C217.344 24.1719 217.188 23.6523 216.875 23.332C216.562 23.0039 216.043 22.8398 215.316 22.8398C214.363 22.8398 213.648 23.2461 213.172 24.0586V33H209.785V20.3203H212.973ZM227.363 17.2031V20.3203H229.531V22.8047H227.363V29.1328C227.363 29.6016 227.453 29.9375 227.633 30.1406C227.812 30.3438 228.156 30.4453 228.664 30.4453C229.039 30.4453 229.371 30.418 229.66 30.3633V32.9297C228.996 33.1328 228.312 33.2344 227.609 33.2344C225.234 33.2344 224.023 32.0352 223.977 29.6367V22.8047H222.125V20.3203H223.977V17.2031H227.363Z" fill="white"/>
<defs>
<linearGradient id="paint0_linear" x1="105.162" y1="24.6154" x2="228.033" y2="15.1078" gradientUnits="userSpaceOnUse">
<stop stop-color="#20B140"/>
<stop offset="1" stop-color="#25C435"/>
</linearGradient>
</defs>
</svg>
