<svg width="302" height="53" viewBox="0 0 302 53" fill="none" xmlns="http://www.w3.org/2000/svg">
<rect width="302" height="53" rx="8" fill="#FF9500"/>
<path d="M111.918 27.3164C111.785 29.1523 111.105 30.5977 109.879 31.6523C108.66 32.707 107.051 33.2344 105.051 33.2344C102.863 33.2344 101.141 32.5 99.8828 31.0312C98.6328 29.5547 98.0078 27.5312 98.0078 24.9609V23.918C98.0078 22.2773 98.2969 20.832 98.875 19.582C99.4531 18.332 100.277 17.375 101.348 16.7109C102.426 16.0391 103.676 15.7031 105.098 15.7031C107.066 15.7031 108.652 16.2305 109.855 17.2852C111.059 18.3398 111.754 19.8203 111.941 21.7266H108.426C108.34 20.625 108.031 19.8281 107.5 19.3359C106.977 18.8359 106.176 18.5859 105.098 18.5859C103.926 18.5859 103.047 19.0078 102.461 19.8516C101.883 20.6875 101.586 21.9883 101.57 23.7539V25.043C101.57 26.8867 101.848 28.2344 102.402 29.0859C102.965 29.9375 103.848 30.3633 105.051 30.3633C106.137 30.3633 106.945 30.1172 107.477 29.625C108.016 29.125 108.324 28.3555 108.402 27.3164H111.918ZM117.309 21.7031C118.207 20.625 119.336 20.0859 120.695 20.0859C123.445 20.0859 124.84 21.6836 124.879 24.8789V33H121.492V24.9727C121.492 24.2461 121.336 23.7109 121.023 23.3672C120.711 23.0156 120.191 22.8398 119.465 22.8398C118.473 22.8398 117.754 23.2227 117.309 23.9883V33H113.922V15H117.309V21.7031ZM133.27 33.2344C131.41 33.2344 129.895 32.6641 128.723 31.5234C127.559 30.3828 126.977 28.8633 126.977 26.9648V26.6367C126.977 25.3633 127.223 24.2266 127.715 23.2266C128.207 22.2188 128.902 21.4453 129.801 20.9062C130.707 20.3594 131.738 20.0859 132.895 20.0859C134.629 20.0859 135.992 20.6328 136.984 21.7266C137.984 22.8203 138.484 24.3711 138.484 26.3789V27.7617H130.41C130.52 28.5898 130.848 29.2539 131.395 29.7539C131.949 30.2539 132.648 30.5039 133.492 30.5039C134.797 30.5039 135.816 30.0312 136.551 29.0859L138.215 30.9492C137.707 31.668 137.02 32.2305 136.152 32.6367C135.285 33.0352 134.324 33.2344 133.27 33.2344ZM132.883 22.8281C132.211 22.8281 131.664 23.0547 131.242 23.5078C130.828 23.9609 130.562 24.6094 130.445 25.4531H135.156V25.1836C135.141 24.4336 134.938 23.8555 134.547 23.4492C134.156 23.0352 133.602 22.8281 132.883 22.8281ZM145.691 30.5039C146.316 30.5039 146.824 30.332 147.215 29.9883C147.605 29.6445 147.809 29.1875 147.824 28.6172H151C150.992 29.4766 150.758 30.2656 150.297 30.9844C149.836 31.6953 149.203 32.25 148.398 32.6484C147.602 33.0391 146.719 33.2344 145.75 33.2344C143.938 33.2344 142.508 32.6602 141.461 31.5117C140.414 30.3555 139.891 28.7617 139.891 26.7305V26.5078C139.891 24.5547 140.41 22.9961 141.449 21.832C142.488 20.668 143.914 20.0859 145.727 20.0859C147.312 20.0859 148.582 20.5391 149.535 21.4453C150.496 22.3438 150.984 23.543 151 25.043H147.824C147.809 24.3867 147.605 23.8555 147.215 23.4492C146.824 23.0352 146.309 22.8281 145.668 22.8281C144.879 22.8281 144.281 23.1172 143.875 23.6953C143.477 24.2656 143.277 25.1953 143.277 26.4844V26.8359C143.277 28.1406 143.477 29.0781 143.875 29.6484C144.273 30.2188 144.879 30.5039 145.691 30.5039ZM157.539 27.9141L156.32 29.1328V33H152.934V15H156.32V24.9727L156.977 24.1289L160.223 20.3203H164.289L159.707 25.6055L164.688 33H160.797L157.539 27.9141ZM165.227 26.543C165.227 25.2852 165.469 24.1641 165.953 23.1797C166.438 22.1953 167.133 21.4336 168.039 20.8945C168.953 20.3555 170.012 20.0859 171.215 20.0859C172.926 20.0859 174.32 20.6094 175.398 21.6562C176.484 22.7031 177.09 24.125 177.215 25.9219L177.238 26.7891C177.238 28.7344 176.695 30.2969 175.609 31.4766C174.523 32.6484 173.066 33.2344 171.238 33.2344C169.41 33.2344 167.949 32.6484 166.855 31.4766C165.77 30.3047 165.227 28.7109 165.227 26.6953V26.543ZM168.613 26.7891C168.613 27.9922 168.84 28.9141 169.293 29.5547C169.746 30.1875 170.395 30.5039 171.238 30.5039C172.059 30.5039 172.699 30.1914 173.16 29.5664C173.621 28.9336 173.852 27.9258 173.852 26.543C173.852 25.3633 173.621 24.4492 173.16 23.8008C172.699 23.1523 172.051 22.8281 171.215 22.8281C170.387 22.8281 169.746 23.1523 169.293 23.8008C168.84 24.4414 168.613 25.4375 168.613 26.7891ZM186.918 31.7109C186.082 32.7266 184.926 33.2344 183.449 33.2344C182.09 33.2344 181.051 32.8438 180.332 32.0625C179.621 31.2812 179.258 30.1367 179.242 28.6289V20.3203H182.629V28.5117C182.629 29.832 183.23 30.4922 184.434 30.4922C185.582 30.4922 186.371 30.0938 186.801 29.2969V20.3203H190.199V33H187.012L186.918 31.7109ZM196.809 17.2031V20.3203H198.977V22.8047H196.809V29.1328C196.809 29.6016 196.898 29.9375 197.078 30.1406C197.258 30.3438 197.602 30.4453 198.109 30.4453C198.484 30.4453 198.816 30.418 199.105 30.3633V32.9297C198.441 33.1328 197.758 33.2344 197.055 33.2344C194.68 33.2344 193.469 32.0352 193.422 29.6367V22.8047H191.57V20.3203H193.422V17.2031H196.809Z" fill="white"/>
</svg>
