<svg width="68" height="58" viewBox="0 0 68 58" fill="none" xmlns="http://www.w3.org/2000/svg">
<path fill-rule="evenodd" clip-rule="evenodd" d="M12.2735 11.0391C12.3766 11.0391 12.4687 11.1035 12.5041 11.2003L22.2943 38.0081L18.4285 39.4136L9.61002 15.2111C9.59632 15.1735 9.56058 15.1485 9.52057 15.1485H2.0547C0.919918 15.1485 0 14.2285 0 13.0938C0 11.959 0.91992 11.0391 2.0547 11.0391H12.2735Z" fill="#464F62"/>
<path d="M44.5888 49.5472H13.3748C12.0132 49.5472 11.0496 48.2162 11.4748 46.9227L14.1573 38.7622C14.427 37.9415 15.1933 37.3867 16.0572 37.3867H34.5957" stroke="#464F62" stroke-width="2" stroke-linecap="round"/>
<path fill-rule="evenodd" clip-rule="evenodd" d="M13.8421 22.3972C13.6387 21.7348 14.1544 21.0713 14.8465 21.1049L54.1633 23.012C54.8277 23.0442 55.2761 23.7041 55.0613 24.3337L49.4572 40.7632C49.319 41.1682 48.9386 41.4404 48.5107 41.4404H20.4273C19.988 41.4404 19.6002 41.1537 19.4713 40.7338L13.8421 22.3972Z" fill="#464F62"/>
<path fill-rule="evenodd" clip-rule="evenodd" d="M22.2946 57.6544C24.5333 57.6544 26.3481 55.8396 26.3481 53.6009C26.3481 51.3622 24.5333 49.5474 22.2946 49.5474C20.0559 49.5474 18.2411 51.3622 18.2411 53.6009C18.2411 55.8396 20.0559 57.6544 22.2946 57.6544Z" fill="#464F62"/>
<path fill-rule="evenodd" clip-rule="evenodd" d="M38.5085 57.6544C40.7471 57.6544 42.562 55.8396 42.562 53.6009C42.562 51.3622 40.7471 49.5474 38.5085 49.5474C36.2698 49.5474 34.455 51.3622 34.455 53.6009C34.455 55.8396 36.2698 57.6544 38.5085 57.6544Z" fill="#464F62"/>
<g clip-path="url(#clip0)">
<path fill-rule="evenodd" clip-rule="evenodd" d="M54.665 34C60.464 34 65.165 29.299 65.165 23.5C65.165 17.701 60.464 13 54.665 13C48.866 13 44.165 17.701 44.165 23.5C44.165 29.299 48.866 34 54.665 34Z" fill="url(#paint0_linear)"/>
<path d="M57.5928 28H51.7451V26.8398L54.5049 23.8984C54.8838 23.4844 55.1631 23.123 55.3428 22.8145C55.5264 22.5059 55.6182 22.2129 55.6182 21.9355C55.6182 21.5566 55.5225 21.2598 55.3311 21.0449C55.1396 20.8262 54.8662 20.7168 54.5107 20.7168C54.1279 20.7168 53.8252 20.8496 53.6025 21.1152C53.3838 21.377 53.2744 21.7227 53.2744 22.1523H51.5752C51.5752 21.6328 51.6982 21.1582 51.9443 20.7285C52.1943 20.2988 52.5459 19.9629 52.999 19.7207C53.4521 19.4746 53.9658 19.3516 54.54 19.3516C55.4189 19.3516 56.1006 19.5625 56.585 19.9844C57.0732 20.4062 57.3174 21.002 57.3174 21.7715C57.3174 22.1934 57.208 22.623 56.9893 23.0605C56.7705 23.498 56.3955 24.0078 55.8643 24.5898L53.9248 26.6348H57.5928V28Z" fill="white"/>
</g>
<defs>
<linearGradient id="paint0_linear" x1="43.7198" y1="8.02544" x2="43.7198" y2="29.9159" gradientUnits="userSpaceOnUse">
<stop stop-color="#FFC700"/>
<stop offset="1" stop-color="#FF9500"/>
</linearGradient>
<clipPath id="clip0">
<rect width="33.8308" height="33.8308" fill="white" transform="translate(33.1941)"/>
</clipPath>
</defs>
</svg>
