<svg width="186" height="50" viewBox="0 0 186 50" fill="none" xmlns="http://www.w3.org/2000/svg">
<rect width="186" height="50" rx="8" fill="url(#paint0_linear)"/>
<path d="M61.1562 30.4844H54.9922L53.8203 34H50.082L56.4336 16.9375H59.6914L66.0781 34H62.3398L61.1562 30.4844ZM55.9414 27.6367H60.207L58.0625 21.25L55.9414 27.6367ZM78.875 27.7773C78.875 29.8086 78.4414 31.3945 77.5742 32.5352C76.707 33.668 75.4961 34.2344 73.9414 34.2344C72.5664 34.2344 71.4688 33.707 70.6484 32.6523L70.4961 34H67.4492V16H70.8359V22.457C71.6172 21.543 72.6445 21.0859 73.918 21.0859C75.4648 21.0859 76.6758 21.6562 77.5508 22.7969C78.4336 23.9297 78.875 25.5273 78.875 27.5898V27.7773ZM75.4883 27.5312C75.4883 26.25 75.2852 25.3164 74.8789 24.7305C74.4727 24.1367 73.8672 23.8398 73.0625 23.8398C71.9844 23.8398 71.2422 24.2812 70.8359 25.1641V30.168C71.25 31.0586 72 31.5039 73.0859 31.5039C74.1797 31.5039 74.8984 30.9648 75.2422 29.8867C75.4062 29.3711 75.4883 28.5859 75.4883 27.5312ZM80.4453 27.543C80.4453 26.2852 80.6875 25.1641 81.1719 24.1797C81.6562 23.1953 82.3516 22.4336 83.2578 21.8945C84.1719 21.3555 85.2305 21.0859 86.4336 21.0859C88.1445 21.0859 89.5391 21.6094 90.6172 22.6562C91.7031 23.7031 92.3086 25.125 92.4336 26.9219L92.457 27.7891C92.457 29.7344 91.9141 31.2969 90.8281 32.4766C89.7422 33.6484 88.2852 34.2344 86.457 34.2344C84.6289 34.2344 83.168 33.6484 82.0742 32.4766C80.9883 31.3047 80.4453 29.7109 80.4453 27.6953V27.543ZM83.832 27.7891C83.832 28.9922 84.0586 29.9141 84.5117 30.5547C84.9648 31.1875 85.6133 31.5039 86.457 31.5039C87.2773 31.5039 87.918 31.1914 88.3789 30.5664C88.8398 29.9336 89.0703 28.9258 89.0703 27.543C89.0703 26.3633 88.8398 25.4492 88.3789 24.8008C87.918 24.1523 87.2695 23.8281 86.4336 23.8281C85.6055 23.8281 84.9648 24.1523 84.5117 24.8008C84.0586 25.4414 83.832 26.4375 83.832 27.7891ZM102.137 32.7109C101.301 33.7266 100.145 34.2344 98.668 34.2344C97.3086 34.2344 96.2695 33.8438 95.5508 33.0625C94.8398 32.2812 94.4766 31.1367 94.4609 29.6289V21.3203H97.8477V29.5117C97.8477 30.832 98.4492 31.4922 99.6523 31.4922C100.801 31.4922 101.59 31.0938 102.02 30.2969V21.3203H105.418V34H102.23L102.137 32.7109ZM112.027 18.2031V21.3203H114.195V23.8047H112.027V30.1328C112.027 30.6016 112.117 30.9375 112.297 31.1406C112.477 31.3438 112.82 31.4453 113.328 31.4453C113.703 31.4453 114.035 31.418 114.324 31.3633V33.9297C113.66 34.1328 112.977 34.2344 112.273 34.2344C109.898 34.2344 108.688 33.0352 108.641 30.6367V23.8047H106.789V21.3203H108.641V18.2031H112.027ZM135.195 16.9375V28.1758C135.195 30.043 134.609 31.5195 133.438 32.6055C132.273 33.6914 130.68 34.2344 128.656 34.2344C126.664 34.2344 125.082 33.707 123.91 32.6523C122.738 31.5977 122.141 30.1484 122.117 28.3047V16.9375H125.633V28.1992C125.633 29.3164 125.898 30.1328 126.43 30.6484C126.969 31.1562 127.711 31.4102 128.656 31.4102C130.633 31.4102 131.637 30.3711 131.668 28.293V16.9375H135.195ZM144.723 30.4961C144.723 30.082 144.516 29.7578 144.102 29.5234C143.695 29.2812 143.039 29.0664 142.133 28.8789C139.117 28.2461 137.609 26.9648 137.609 25.0352C137.609 23.9102 138.074 22.9727 139.004 22.2227C139.941 21.4648 141.164 21.0859 142.672 21.0859C144.281 21.0859 145.566 21.4648 146.527 22.2227C147.496 22.9805 147.98 23.9648 147.98 25.1758H144.594C144.594 24.6914 144.438 24.293 144.125 23.9805C143.812 23.6602 143.324 23.5 142.66 23.5C142.09 23.5 141.648 23.6289 141.336 23.8867C141.023 24.1445 140.867 24.4727 140.867 24.8711C140.867 25.2461 141.043 25.5508 141.395 25.7852C141.754 26.0117 142.355 26.2109 143.199 26.3828C144.043 26.5469 144.754 26.7344 145.332 26.9453C147.121 27.6016 148.016 28.7383 148.016 30.3555C148.016 31.5117 147.52 32.4492 146.527 33.168C145.535 33.8789 144.254 34.2344 142.684 34.2344C141.621 34.2344 140.676 34.0469 139.848 33.6719C139.027 33.2891 138.383 32.7695 137.914 32.1133C137.445 31.4492 137.211 30.7344 137.211 29.9688H140.422C140.453 30.5703 140.676 31.0312 141.09 31.3516C141.504 31.6719 142.059 31.832 142.754 31.832C143.402 31.832 143.891 31.7109 144.219 31.4688C144.555 31.2188 144.723 30.8945 144.723 30.4961Z" fill="white"/>
<defs>
<linearGradient id="paint0_linear" x1="76.4066" y1="24.6154" x2="165.932" y2="19.5822" gradientUnits="userSpaceOnUse">
<stop stop-color="#20B140"/>
<stop offset="1" stop-color="#25C435"/>
</linearGradient>
</defs>
</svg>
