<svg width="175" height="53" viewBox="0 0 175 53" fill="none" xmlns="http://www.w3.org/2000/svg">
<rect width="175" height="53" rx="8" fill="#FF9900"/>
<path d="M60.6191 31.4111H67.4619V34H57.3965V18.3594H60.6191V31.4111ZM68.6328 28.0811C68.6328 26.9281 68.8548 25.9004 69.2988 24.998C69.7428 24.0957 70.3802 23.3975 71.2109 22.9033C72.0488 22.4092 73.0192 22.1621 74.1221 22.1621C75.6904 22.1621 76.9688 22.6419 77.957 23.6016C78.9525 24.5612 79.5075 25.8646 79.6221 27.5117L79.6436 28.3066C79.6436 30.0898 79.1458 31.5221 78.1504 32.6035C77.1549 33.6777 75.8193 34.2148 74.1436 34.2148C72.4678 34.2148 71.1286 33.6777 70.126 32.6035C69.1305 31.5293 68.6328 30.0684 68.6328 28.2207V28.0811ZM71.7373 28.3066C71.7373 29.4095 71.945 30.2546 72.3604 30.8418C72.7757 31.4219 73.3701 31.7119 74.1436 31.7119C74.8955 31.7119 75.4827 31.4255 75.9053 30.8525C76.3278 30.2725 76.5391 29.3486 76.5391 28.0811C76.5391 26.9997 76.3278 26.1618 75.9053 25.5674C75.4827 24.973 74.8883 24.6758 74.1221 24.6758C73.363 24.6758 72.7757 24.973 72.3604 25.5674C71.945 26.1546 71.7373 27.0677 71.7373 28.3066ZM81.1045 28.1025C81.1045 26.3193 81.527 24.8835 82.3721 23.7949C83.2243 22.7064 84.3701 22.1621 85.8096 22.1621C87.0843 22.1621 88.0762 22.599 88.7852 23.4727L88.9141 22.377H91.7285V33.6133C91.7285 34.6302 91.4958 35.5146 91.0303 36.2666C90.5719 37.0186 89.9238 37.5915 89.0859 37.9854C88.248 38.3792 87.2669 38.5762 86.1426 38.5762C85.2904 38.5762 84.4596 38.4043 83.6504 38.0605C82.8411 37.724 82.2288 37.2871 81.8135 36.75L83.1885 34.8594C83.9619 35.7259 84.9001 36.1592 86.0029 36.1592C86.8265 36.1592 87.4674 35.9372 87.9258 35.4932C88.3841 35.0563 88.6133 34.4333 88.6133 33.624V33.001C87.8971 33.8102 86.9554 34.2148 85.7881 34.2148C84.3916 34.2148 83.2601 33.6706 82.3936 32.582C81.5342 31.4863 81.1045 30.0361 81.1045 28.2314V28.1025ZM84.209 28.3281C84.209 29.3809 84.4202 30.208 84.8428 30.8096C85.2653 31.404 85.8454 31.7012 86.583 31.7012C87.5283 31.7012 88.2051 31.3467 88.6133 30.6377V25.75C88.1979 25.041 87.5283 24.6865 86.6045 24.6865C85.8597 24.6865 85.2725 24.9909 84.8428 25.5996C84.4202 26.2083 84.209 27.1178 84.209 28.3281ZM97.4004 34H94.2852V22.377H97.4004V34ZM94.1025 19.3691C94.1025 18.9036 94.2565 18.5205 94.5645 18.2197C94.8796 17.9189 95.3057 17.7686 95.8428 17.7686C96.3727 17.7686 96.7952 17.9189 97.1104 18.2197C97.4255 18.5205 97.583 18.9036 97.583 19.3691C97.583 19.8418 97.4219 20.2285 97.0996 20.5293C96.7845 20.8301 96.3656 20.9805 95.8428 20.9805C95.32 20.9805 94.8975 20.8301 94.5752 20.5293C94.2601 20.2285 94.1025 19.8418 94.1025 19.3691ZM102.825 22.377L102.922 23.7197C103.753 22.6813 104.866 22.1621 106.263 22.1621C107.494 22.1621 108.411 22.5238 109.013 23.2471C109.614 23.9704 109.922 25.0518 109.937 26.4912V34H106.832V26.5664C106.832 25.9076 106.689 25.4313 106.402 25.1377C106.116 24.8369 105.64 24.6865 104.974 24.6865C104.1 24.6865 103.445 25.0589 103.008 25.8037V34H99.9033V22.377H102.825Z" fill="white"/>
</svg>
