<svg width="246" height="50" viewBox="0 0 246 50" fill="none" xmlns="http://www.w3.org/2000/svg">
<rect width="246" height="50" rx="8" fill="url(#paint0_linear)"/>
<path d="M51.2617 34H47.7461V16.9375H51.2617V34ZM57.4258 21.3203L57.5312 22.7852C58.4375 21.6523 59.6523 21.0859 61.1758 21.0859C62.5195 21.0859 63.5195 21.4805 64.1758 22.2695C64.832 23.0586 65.168 24.2383 65.1836 25.8086V34H61.7969V25.8906C61.7969 25.1719 61.6406 24.6523 61.3281 24.332C61.0156 24.0039 60.4961 23.8398 59.7695 23.8398C58.8164 23.8398 58.1016 24.2461 57.625 25.0586V34H54.2383V21.3203H57.4258ZM72.5078 29.8633L74.8633 21.3203H78.4023L74.125 34H70.8906L66.6133 21.3203H70.1523L72.5078 29.8633ZM79.1875 27.543C79.1875 26.2852 79.4297 25.1641 79.9141 24.1797C80.3984 23.1953 81.0938 22.4336 82 21.8945C82.9141 21.3555 83.9727 21.0859 85.1758 21.0859C86.8867 21.0859 88.2812 21.6094 89.3594 22.6562C90.4453 23.7031 91.0508 25.125 91.1758 26.9219L91.1992 27.7891C91.1992 29.7344 90.6562 31.2969 89.5703 32.4766C88.4844 33.6484 87.0273 34.2344 85.1992 34.2344C83.3711 34.2344 81.9102 33.6484 80.8164 32.4766C79.7305 31.3047 79.1875 29.7109 79.1875 27.6953V27.543ZM82.5742 27.7891C82.5742 28.9922 82.8008 29.9141 83.2539 30.5547C83.707 31.1875 84.3555 31.5039 85.1992 31.5039C86.0195 31.5039 86.6602 31.1914 87.1211 30.5664C87.582 29.9336 87.8125 28.9258 87.8125 27.543C87.8125 26.3633 87.582 25.4492 87.1211 24.8008C86.6602 24.1523 86.0117 23.8281 85.1758 23.8281C84.3477 23.8281 83.707 24.1523 83.2539 24.8008C82.8008 25.4414 82.5742 26.4375 82.5742 27.7891ZM96.8594 34H93.4609V21.3203H96.8594V34ZM93.2617 18.0391C93.2617 17.5312 93.4297 17.1133 93.7656 16.7852C94.1094 16.457 94.5742 16.293 95.1602 16.293C95.7383 16.293 96.1992 16.457 96.543 16.7852C96.8867 17.1133 97.0586 17.5312 97.0586 18.0391C97.0586 18.5547 96.8828 18.9766 96.5312 19.3047C96.1875 19.6328 95.7305 19.7969 95.1602 19.7969C94.5898 19.7969 94.1289 19.6328 93.7773 19.3047C93.4336 18.9766 93.2617 18.5547 93.2617 18.0391ZM104.934 31.5039C105.559 31.5039 106.066 31.332 106.457 30.9883C106.848 30.6445 107.051 30.1875 107.066 29.6172H110.242C110.234 30.4766 110 31.2656 109.539 31.9844C109.078 32.6953 108.445 33.25 107.641 33.6484C106.844 34.0391 105.961 34.2344 104.992 34.2344C103.18 34.2344 101.75 33.6602 100.703 32.5117C99.6562 31.3555 99.1328 29.7617 99.1328 27.7305V27.5078C99.1328 25.5547 99.6523 23.9961 100.691 22.832C101.73 21.668 103.156 21.0859 104.969 21.0859C106.555 21.0859 107.824 21.5391 108.777 22.4453C109.738 23.3438 110.227 24.543 110.242 26.043H107.066C107.051 25.3867 106.848 24.8555 106.457 24.4492C106.066 24.0352 105.551 23.8281 104.91 23.8281C104.121 23.8281 103.523 24.1172 103.117 24.6953C102.719 25.2656 102.52 26.1953 102.52 27.4844V27.8359C102.52 29.1406 102.719 30.0781 103.117 30.6484C103.516 31.2188 104.121 31.5039 104.934 31.5039ZM118.012 34.2344C116.152 34.2344 114.637 33.6641 113.465 32.5234C112.301 31.3828 111.719 29.8633 111.719 27.9648V27.6367C111.719 26.3633 111.965 25.2266 112.457 24.2266C112.949 23.2188 113.645 22.4453 114.543 21.9062C115.449 21.3594 116.48 21.0859 117.637 21.0859C119.371 21.0859 120.734 21.6328 121.727 22.7266C122.727 23.8203 123.227 25.3711 123.227 27.3789V28.7617H115.152C115.262 29.5898 115.59 30.2539 116.137 30.7539C116.691 31.2539 117.391 31.5039 118.234 31.5039C119.539 31.5039 120.559 31.0312 121.293 30.0859L122.957 31.9492C122.449 32.668 121.762 33.2305 120.895 33.6367C120.027 34.0352 119.066 34.2344 118.012 34.2344ZM117.625 23.8281C116.953 23.8281 116.406 24.0547 115.984 24.5078C115.57 24.9609 115.305 25.6094 115.188 26.4531H119.898V26.1836C119.883 25.4336 119.68 24.8555 119.289 24.4492C118.898 24.0352 118.344 23.8281 117.625 23.8281ZM131.359 34V16.9375H136.609C138.109 16.9375 139.449 17.2773 140.629 17.957C141.816 18.6289 142.742 19.5898 143.406 20.8398C144.07 22.082 144.402 23.4961 144.402 25.082V25.8672C144.402 27.4531 144.074 28.8633 143.418 30.0977C142.77 31.332 141.852 32.2891 140.664 32.9688C139.477 33.6484 138.137 33.9922 136.645 34H131.359ZM134.875 19.7852V31.1758H136.574C137.949 31.1758 139 30.7266 139.727 29.8281C140.453 28.9297 140.824 27.6445 140.84 25.9727V25.0703C140.84 23.3359 140.48 22.0234 139.762 21.1328C139.043 20.2344 137.992 19.7852 136.609 19.7852H134.875ZM152.582 34.2344C150.723 34.2344 149.207 33.6641 148.035 32.5234C146.871 31.3828 146.289 29.8633 146.289 27.9648V27.6367C146.289 26.3633 146.535 25.2266 147.027 24.2266C147.52 23.2188 148.215 22.4453 149.113 21.9062C150.02 21.3594 151.051 21.0859 152.207 21.0859C153.941 21.0859 155.305 21.6328 156.297 22.7266C157.297 23.8203 157.797 25.3711 157.797 27.3789V28.7617H149.723C149.832 29.5898 150.16 30.2539 150.707 30.7539C151.262 31.2539 151.961 31.5039 152.805 31.5039C154.109 31.5039 155.129 31.0312 155.863 30.0859L157.527 31.9492C157.02 32.668 156.332 33.2305 155.465 33.6367C154.598 34.0352 153.637 34.2344 152.582 34.2344ZM152.195 23.8281C151.523 23.8281 150.977 24.0547 150.555 24.5078C150.141 24.9609 149.875 25.6094 149.758 26.4531H154.469V26.1836C154.453 25.4336 154.25 24.8555 153.859 24.4492C153.469 24.0352 152.914 23.8281 152.195 23.8281ZM163.785 18.2031V21.3203H165.953V23.8047H163.785V30.1328C163.785 30.6016 163.875 30.9375 164.055 31.1406C164.234 31.3438 164.578 31.4453 165.086 31.4453C165.461 31.4453 165.793 31.418 166.082 31.3633V33.9297C165.418 34.1328 164.734 34.2344 164.031 34.2344C161.656 34.2344 160.445 33.0352 160.398 30.6367V23.8047H158.547V21.3203H160.398V18.2031H163.785ZM175.188 34C175.031 33.6953 174.918 33.3164 174.848 32.8633C174.027 33.7773 172.961 34.2344 171.648 34.2344C170.406 34.2344 169.375 33.875 168.555 33.1562C167.742 32.4375 167.336 31.5312 167.336 30.4375C167.336 29.0938 167.832 28.0625 168.824 27.3438C169.824 26.625 171.266 26.2617 173.148 26.2539H174.707V25.5273C174.707 24.9414 174.555 24.4727 174.25 24.1211C173.953 23.7695 173.48 23.5938 172.832 23.5938C172.262 23.5938 171.812 23.7305 171.484 24.0039C171.164 24.2773 171.004 24.6523 171.004 25.1289H167.617C167.617 24.3945 167.844 23.7148 168.297 23.0898C168.75 22.4648 169.391 21.9766 170.219 21.625C171.047 21.2656 171.977 21.0859 173.008 21.0859C174.57 21.0859 175.809 21.4805 176.723 22.2695C177.645 23.0508 178.105 24.1523 178.105 25.5742V31.0703C178.113 32.2734 178.281 33.1836 178.609 33.8008V34H175.188ZM172.387 31.6445C172.887 31.6445 173.348 31.5352 173.77 31.3164C174.191 31.0898 174.504 30.7891 174.707 30.4141V28.2344H173.441C171.746 28.2344 170.844 28.8203 170.734 29.9922L170.723 30.1914C170.723 30.6133 170.871 30.9609 171.168 31.2344C171.465 31.5078 171.871 31.6445 172.387 31.6445ZM184.281 34H180.883V21.3203H184.281V34ZM180.684 18.0391C180.684 17.5312 180.852 17.1133 181.188 16.7852C181.531 16.457 181.996 16.293 182.582 16.293C183.16 16.293 183.621 16.457 183.965 16.7852C184.309 17.1133 184.48 17.5312 184.48 18.0391C184.48 18.5547 184.305 18.9766 183.953 19.3047C183.609 19.6328 183.152 19.7969 182.582 19.7969C182.012 19.7969 181.551 19.6328 181.199 19.3047C180.855 18.9766 180.684 18.5547 180.684 18.0391ZM190.656 34H187.258V16H190.656V34ZM200.324 30.4961C200.324 30.082 200.117 29.7578 199.703 29.5234C199.297 29.2812 198.641 29.0664 197.734 28.8789C194.719 28.2461 193.211 26.9648 193.211 25.0352C193.211 23.9102 193.676 22.9727 194.605 22.2227C195.543 21.4648 196.766 21.0859 198.273 21.0859C199.883 21.0859 201.168 21.4648 202.129 22.2227C203.098 22.9805 203.582 23.9648 203.582 25.1758H200.195C200.195 24.6914 200.039 24.293 199.727 23.9805C199.414 23.6602 198.926 23.5 198.262 23.5C197.691 23.5 197.25 23.6289 196.938 23.8867C196.625 24.1445 196.469 24.4727 196.469 24.8711C196.469 25.2461 196.645 25.5508 196.996 25.7852C197.355 26.0117 197.957 26.2109 198.801 26.3828C199.645 26.5469 200.355 26.7344 200.934 26.9453C202.723 27.6016 203.617 28.7383 203.617 30.3555C203.617 31.5117 203.121 32.4492 202.129 33.168C201.137 33.8789 199.855 34.2344 198.285 34.2344C197.223 34.2344 196.277 34.0469 195.449 33.6719C194.629 33.2891 193.984 32.7695 193.516 32.1133C193.047 31.4492 192.812 30.7344 192.812 29.9688H196.023C196.055 30.5703 196.277 31.0312 196.691 31.3516C197.105 31.6719 197.66 31.832 198.355 31.832C199.004 31.832 199.492 31.7109 199.82 31.4688C200.156 31.2188 200.324 30.8945 200.324 30.4961Z" fill="white"/>
<defs>
<linearGradient id="paint0_linear" x1="101.054" y1="24.6154" x2="219.179" y2="15.832" gradientUnits="userSpaceOnUse">
<stop stop-color="#20B140"/>
<stop offset="1" stop-color="#25C435"/>
</linearGradient>
</defs>
</svg>
