<svg width="257" height="53" viewBox="0 0 257 53" fill="none" xmlns="http://www.w3.org/2000/svg">
<rect width="257" height="53" rx="4" fill="#FF9500"/>
<path d="M82.736 16.2C83.552 16.2 84.328 16.448 85.064 16.944C85.8 17.424 86.392 18.08 86.84 18.912C87.288 19.728 87.512 20.624 87.512 21.6C87.512 22.56 87.288 23.456 86.84 24.288C86.392 25.12 85.8 25.784 85.064 26.28C84.328 26.76 83.552 27 82.736 27H78.56V31.536C78.56 31.968 78.432 32.32 78.176 32.592C77.92 32.864 77.584 33 77.168 33C76.768 33 76.44 32.864 76.184 32.592C75.928 32.304 75.8 31.952 75.8 31.536V17.664C75.8 17.248 75.936 16.904 76.208 16.632C76.496 16.344 76.848 16.2 77.264 16.2H82.736ZM82.736 24.264C83.04 24.264 83.336 24.136 83.624 23.88C83.928 23.624 84.168 23.296 84.344 22.896C84.536 22.48 84.632 22.048 84.632 21.6C84.632 21.152 84.536 20.728 84.344 20.328C84.168 19.912 83.928 19.584 83.624 19.344C83.336 19.088 83.04 18.96 82.736 18.96H78.56V24.264H82.736ZM100.296 19.92C100.712 19.92 101.056 20.056 101.328 20.328C101.6 20.6 101.736 20.952 101.736 21.384V31.536C101.736 31.952 101.6 32.304 101.328 32.592C101.056 32.864 100.712 33 100.296 33C99.8798 33 99.5358 32.864 99.2638 32.592C99.0078 32.32 98.8718 31.976 98.8558 31.56C98.4558 32.024 97.9118 32.424 97.2238 32.76C96.5518 33.08 95.8398 33.24 95.0878 33.24C93.9838 33.24 92.9838 32.96 92.0878 32.4C91.1918 31.824 90.4798 31.032 89.9518 30.024C89.4398 29.016 89.1838 27.872 89.1838 26.592C89.1838 25.312 89.4398 24.168 89.9518 23.16C90.4638 22.136 91.1598 21.344 92.0398 20.784C92.9358 20.208 93.9198 19.92 94.9918 19.92C95.7598 19.92 96.4798 20.064 97.1518 20.352C97.8238 20.624 98.3918 20.976 98.8558 21.408V21.384C98.8558 20.968 98.9918 20.624 99.2638 20.352C99.5358 20.064 99.8798 19.92 100.296 19.92ZM95.4478 30.6C96.4878 30.6 97.3358 30.224 97.9918 29.472C98.6478 28.704 98.9758 27.744 98.9758 26.592C98.9758 25.44 98.6478 24.48 97.9918 23.712C97.3358 22.944 96.4878 22.56 95.4478 22.56C94.4238 22.56 93.5838 22.944 92.9278 23.712C92.2718 24.48 91.9438 25.44 91.9438 26.592C91.9438 27.744 92.2638 28.704 92.9038 29.472C93.5598 30.224 94.4078 30.6 95.4478 30.6ZM114.104 20.16C114.52 20.16 114.864 20.304 115.136 20.592C115.408 20.864 115.544 21.208 115.544 21.624V31.824C115.544 33.904 114.984 35.416 113.864 36.36C112.744 37.32 111.248 37.8 109.376 37.8C108.832 37.8 108.272 37.752 107.696 37.656C107.136 37.576 106.68 37.464 106.328 37.32C105.544 36.984 105.152 36.52 105.152 35.928C105.152 35.816 105.176 35.688 105.224 35.544C105.32 35.192 105.48 34.92 105.704 34.728C105.944 34.552 106.2 34.464 106.472 34.464C106.632 34.464 106.784 34.488 106.928 34.536C107.04 34.584 107.232 34.664 107.504 34.776C107.792 34.888 108.088 34.976 108.392 35.04C108.712 35.12 109.04 35.16 109.376 35.16C110.512 35.16 111.344 34.912 111.872 34.416C112.416 33.936 112.688 33.104 112.688 31.92V31.68C111.856 32.72 110.56 33.24 108.8 33.24C107.968 33.24 107.232 33.048 106.592 32.664C105.952 32.264 105.456 31.72 105.104 31.032C104.752 30.328 104.576 29.528 104.576 28.632V21.624C104.576 21.208 104.712 20.864 104.984 20.592C105.256 20.304 105.6 20.16 106.016 20.16C106.432 20.16 106.776 20.304 107.048 20.592C107.32 20.864 107.456 21.208 107.456 21.624V27.768C107.456 28.776 107.672 29.504 108.104 29.952C108.552 30.384 109.2 30.6 110.048 30.6C110.88 30.6 111.52 30.36 111.968 29.88C112.432 29.384 112.664 28.68 112.664 27.768V21.624C112.664 21.208 112.8 20.864 113.072 20.592C113.344 20.304 113.688 20.16 114.104 20.16ZM138.372 16.2C138.756 16.2 139.068 16.328 139.308 16.584C139.548 16.84 139.668 17.16 139.668 17.544V31.536C139.668 31.952 139.524 32.304 139.236 32.592C138.964 32.864 138.62 33 138.204 33C137.98 33 137.756 32.968 137.532 32.904C137.324 32.824 137.172 32.72 137.076 32.592L128.268 21.408V31.656C128.268 32.04 128.14 32.36 127.884 32.616C127.644 32.872 127.324 33 126.924 33C126.54 33 126.228 32.872 125.988 32.616C125.748 32.36 125.628 32.04 125.628 31.656V17.664C125.628 17.248 125.764 16.904 126.036 16.632C126.324 16.344 126.676 16.2 127.092 16.2C127.332 16.2 127.564 16.248 127.788 16.344C128.028 16.44 128.204 16.568 128.316 16.728L137.052 27.864V17.544C137.052 17.16 137.172 16.84 137.412 16.584C137.668 16.328 137.988 16.2 138.372 16.2ZM155.373 26.592C155.373 27.872 155.085 29.024 154.509 30.048C153.933 31.056 153.141 31.84 152.133 32.4C151.141 32.96 150.045 33.24 148.845 33.24C147.629 33.24 146.525 32.96 145.533 32.4C144.541 31.84 143.757 31.056 143.181 30.048C142.605 29.024 142.317 27.872 142.317 26.592C142.317 25.312 142.605 24.168 143.181 23.16C143.757 22.136 144.541 21.344 145.533 20.784C146.525 20.208 147.629 19.92 148.845 19.92C150.045 19.92 151.141 20.208 152.133 20.784C153.141 21.344 153.933 22.136 154.509 23.16C155.085 24.168 155.373 25.312 155.373 26.592ZM152.493 26.592C152.493 25.808 152.325 25.112 151.989 24.504C151.669 23.88 151.229 23.4 150.669 23.064C150.125 22.728 149.517 22.56 148.845 22.56C148.173 22.56 147.557 22.728 146.997 23.064C146.453 23.4 146.013 23.88 145.677 24.504C145.357 25.112 145.197 25.808 145.197 26.592C145.197 27.376 145.357 28.072 145.677 28.68C146.013 29.288 146.453 29.76 146.997 30.096C147.557 30.432 148.173 30.6 148.845 30.6C149.517 30.6 150.125 30.432 150.669 30.096C151.229 29.76 151.669 29.288 151.989 28.68C152.325 28.072 152.493 27.376 152.493 26.592ZM172.563 20.16C172.947 20.16 173.267 20.304 173.523 20.592C173.795 20.864 173.931 21.216 173.931 21.648C173.931 21.792 173.899 21.976 173.835 22.2L170.163 32.088C170.067 32.376 169.891 32.608 169.635 32.784C169.395 32.944 169.131 33.024 168.843 33.024L168.651 33C168.107 32.968 167.699 32.664 167.427 32.088L165.387 26.184L163.443 32.088C163.171 32.664 162.763 32.968 162.219 33L162.027 33.024C161.739 33.024 161.467 32.944 161.211 32.784C160.971 32.608 160.803 32.376 160.707 32.088L157.035 22.2C156.971 22.024 156.939 21.84 156.939 21.648C156.939 21.248 157.067 20.904 157.323 20.616C157.595 20.312 157.947 20.16 158.379 20.16C158.699 20.16 158.971 20.24 159.195 20.4C159.435 20.544 159.603 20.768 159.699 21.072L162.291 28.104L164.187 22.968C164.443 22.376 164.883 22.08 165.507 22.08C165.843 22.08 166.099 22.152 166.275 22.296C166.467 22.44 166.627 22.664 166.755 22.968L168.603 27.984L171.171 21.072C171.267 20.768 171.435 20.544 171.675 20.4C171.915 20.24 172.211 20.16 172.563 20.16Z" fill="white"/>
</svg>
