<svg width="185" height="50" viewBox="0 0 185 50" fill="none" xmlns="http://www.w3.org/2000/svg">
<rect width="185" height="50" rx="8" fill="url(#paint0_linear)"/>
<path d="M63.1172 16.9375L67.5 29.3125L71.8594 16.9375H76.4766V34H72.9492V29.3359L73.3008 21.2852L68.6953 34H66.2812L61.6875 21.2969L62.0391 29.3359V34H58.5234V16.9375H63.1172ZM84.0586 29.207L86.4023 21.3203H90.0352L84.9375 35.9688L84.6562 36.6367C83.8984 38.293 82.6484 39.1211 80.9062 39.1211C80.4141 39.1211 79.9141 39.0469 79.4062 38.8984V36.332L79.9219 36.3438C80.5625 36.3438 81.0391 36.2461 81.3516 36.0508C81.6719 35.8555 81.9219 35.5312 82.1016 35.0781L82.5 34.0352L78.0586 21.3203H81.7031L84.0586 29.207ZM110.965 28.3164C110.832 30.1523 110.152 31.5977 108.926 32.6523C107.707 33.707 106.098 34.2344 104.098 34.2344C101.91 34.2344 100.188 33.5 98.9297 32.0312C97.6797 30.5547 97.0547 28.5312 97.0547 25.9609V24.918C97.0547 23.2773 97.3438 21.832 97.9219 20.582C98.5 19.332 99.3242 18.375 100.395 17.7109C101.473 17.0391 102.723 16.7031 104.145 16.7031C106.113 16.7031 107.699 17.2305 108.902 18.2852C110.105 19.3398 110.801 20.8203 110.988 22.7266H107.473C107.387 21.625 107.078 20.8281 106.547 20.3359C106.023 19.8359 105.223 19.5859 104.145 19.5859C102.973 19.5859 102.094 20.0078 101.508 20.8516C100.93 21.6875 100.633 22.9883 100.617 24.7539V26.043C100.617 27.8867 100.895 29.2344 101.449 30.0859C102.012 30.9375 102.895 31.3633 104.098 31.3633C105.184 31.3633 105.992 31.1172 106.523 30.625C107.062 30.125 107.371 29.3555 107.449 28.3164H110.965ZM120.398 34C120.242 33.6953 120.129 33.3164 120.059 32.8633C119.238 33.7773 118.172 34.2344 116.859 34.2344C115.617 34.2344 114.586 33.875 113.766 33.1562C112.953 32.4375 112.547 31.5312 112.547 30.4375C112.547 29.0938 113.043 28.0625 114.035 27.3438C115.035 26.625 116.477 26.2617 118.359 26.2539H119.918V25.5273C119.918 24.9414 119.766 24.4727 119.461 24.1211C119.164 23.7695 118.691 23.5938 118.043 23.5938C117.473 23.5938 117.023 23.7305 116.695 24.0039C116.375 24.2773 116.215 24.6523 116.215 25.1289H112.828C112.828 24.3945 113.055 23.7148 113.508 23.0898C113.961 22.4648 114.602 21.9766 115.43 21.625C116.258 21.2656 117.188 21.0859 118.219 21.0859C119.781 21.0859 121.02 21.4805 121.934 22.2695C122.855 23.0508 123.316 24.1523 123.316 25.5742V31.0703C123.324 32.2734 123.492 33.1836 123.82 33.8008V34H120.398ZM117.598 31.6445C118.098 31.6445 118.559 31.5352 118.98 31.3164C119.402 31.0898 119.715 30.7891 119.918 30.4141V28.2344H118.652C116.957 28.2344 116.055 28.8203 115.945 29.9922L115.934 30.1914C115.934 30.6133 116.082 30.9609 116.379 31.2344C116.676 31.5078 117.082 31.6445 117.598 31.6445ZM133.043 24.4961C132.582 24.4336 132.176 24.4023 131.824 24.4023C130.543 24.4023 129.703 24.8359 129.305 25.7031V34H125.918V21.3203H129.117L129.211 22.832C129.891 21.668 130.832 21.0859 132.035 21.0859C132.41 21.0859 132.762 21.1367 133.09 21.2383L133.043 24.4961ZM139.324 18.2031V21.3203H141.492V23.8047H139.324V30.1328C139.324 30.6016 139.414 30.9375 139.594 31.1406C139.773 31.3438 140.117 31.4453 140.625 31.4453C141 31.4453 141.332 31.418 141.621 31.3633V33.9297C140.957 34.1328 140.273 34.2344 139.57 34.2344C137.195 34.2344 135.984 33.0352 135.938 30.6367V23.8047H134.086V21.3203H135.938V18.2031H139.324Z" fill="white"/>
<defs>
<linearGradient id="paint0_linear" x1="75.9958" y1="24.6154" x2="165.043" y2="19.636" gradientUnits="userSpaceOnUse">
<stop stop-color="#20B140"/>
<stop offset="1" stop-color="#25C435"/>
</linearGradient>
</defs>
</svg>
