<svg width="246" height="100" viewBox="0 0 246 100" fill="none" xmlns="http://www.w3.org/2000/svg">
<rect y="22" width="246" height="50" rx="8" fill="url(#paint0_linear)"/>
<path d="M51.7891 49.0273H45.0391V56H41.5234V38.9375H52.6328V41.7852H45.0391V46.1914H51.7891V49.0273ZM61.3984 56C61.2422 55.6953 61.1289 55.3164 61.0586 54.8633C60.2383 55.7773 59.1719 56.2344 57.8594 56.2344C56.6172 56.2344 55.5859 55.875 54.7656 55.1562C53.9531 54.4375 53.5469 53.5312 53.5469 52.4375C53.5469 51.0938 54.043 50.0625 55.0352 49.3438C56.0352 48.625 57.4766 48.2617 59.3594 48.2539H60.918V47.5273C60.918 46.9414 60.7656 46.4727 60.4609 46.1211C60.1641 45.7695 59.6914 45.5938 59.043 45.5938C58.4727 45.5938 58.0234 45.7305 57.6953 46.0039C57.375 46.2773 57.2148 46.6523 57.2148 47.1289H53.8281C53.8281 46.3945 54.0547 45.7148 54.5078 45.0898C54.9609 44.4648 55.6016 43.9766 56.4297 43.625C57.2578 43.2656 58.1875 43.0859 59.2188 43.0859C60.7812 43.0859 62.0195 43.4805 62.9336 44.2695C63.8555 45.0508 64.3164 46.1523 64.3164 47.5742V53.0703C64.3242 54.2734 64.4922 55.1836 64.8203 55.8008V56H61.3984ZM58.5977 53.6445C59.0977 53.6445 59.5586 53.5352 59.9805 53.3164C60.4023 53.0898 60.7148 52.7891 60.918 52.4141V50.2344H59.6523C57.957 50.2344 57.0547 50.8203 56.9453 51.9922L56.9336 52.1914C56.9336 52.6133 57.082 52.9609 57.3789 53.2344C57.6758 53.5078 58.082 53.6445 58.5977 53.6445ZM72.1914 53.5039C72.8164 53.5039 73.3242 53.332 73.7148 52.9883C74.1055 52.6445 74.3086 52.1875 74.3242 51.6172H77.5C77.4922 52.4766 77.2578 53.2656 76.7969 53.9844C76.3359 54.6953 75.7031 55.25 74.8984 55.6484C74.1016 56.0391 73.2188 56.2344 72.25 56.2344C70.4375 56.2344 69.0078 55.6602 67.9609 54.5117C66.9141 53.3555 66.3906 51.7617 66.3906 49.7305V49.5078C66.3906 47.5547 66.9102 45.9961 67.9492 44.832C68.9883 43.668 70.4141 43.0859 72.2266 43.0859C73.8125 43.0859 75.082 43.5391 76.0352 44.4453C76.9961 45.3438 77.4844 46.543 77.5 48.043H74.3242C74.3086 47.3867 74.1055 46.8555 73.7148 46.4492C73.3242 46.0352 72.8086 45.8281 72.168 45.8281C71.3789 45.8281 70.7812 46.1172 70.375 46.6953C69.9766 47.2656 69.7773 48.1953 69.7773 49.4844V49.8359C69.7773 51.1406 69.9766 52.0781 70.375 52.6484C70.7734 53.2188 71.3789 53.5039 72.1914 53.5039ZM87.0273 54.7109C86.1914 55.7266 85.0352 56.2344 83.5586 56.2344C82.1992 56.2344 81.1602 55.8438 80.4414 55.0625C79.7305 54.2812 79.3672 53.1367 79.3516 51.6289V43.3203H82.7383V51.5117C82.7383 52.832 83.3398 53.4922 84.543 53.4922C85.6914 53.4922 86.4805 53.0938 86.9102 52.2969V43.3203H90.3086V56H87.1211L87.0273 54.7109ZM96.4375 56H93.0391V38H96.4375V56ZM103.293 40.2031V43.3203H105.461V45.8047H103.293V52.1328C103.293 52.6016 103.383 52.9375 103.562 53.1406C103.742 53.3438 104.086 53.4453 104.594 53.4453C104.969 53.4453 105.301 53.418 105.59 53.3633V55.9297C104.926 56.1328 104.242 56.2344 103.539 56.2344C101.164 56.2344 99.9531 55.0352 99.9062 52.6367V45.8047H98.0547V43.3203H99.9062V40.2031H103.293ZM112.082 51.207L114.426 43.3203H118.059L112.961 57.9688L112.68 58.6367C111.922 60.293 110.672 61.1211 108.93 61.1211C108.438 61.1211 107.938 61.0469 107.43 60.8984V58.332L107.945 58.3438C108.586 58.3438 109.062 58.2461 109.375 58.0508C109.695 57.8555 109.945 57.5312 110.125 57.0781L110.523 56.0352L106.082 43.3203H109.727L112.082 51.207ZM124.902 51.4062C124.902 50.6172 125.121 49.8867 125.559 49.2148C126.004 48.543 126.816 47.7969 127.996 46.9766C127.488 46.2969 127.09 45.6602 126.801 45.0664C126.512 44.4648 126.367 43.8398 126.367 43.1914C126.367 41.8633 126.785 40.7852 127.621 39.957C128.465 39.1211 129.598 38.7031 131.02 38.7031C132.293 38.7031 133.336 39.082 134.148 39.8398C134.969 40.5977 135.379 41.543 135.379 42.6758C135.379 44.0352 134.691 45.2344 133.316 46.2734L132.004 47.2227L134.945 50.6445C135.406 49.7383 135.637 48.7383 135.637 47.6445H138.52C138.52 49.8633 138.008 51.6602 136.984 53.0352L139.539 56H135.695L134.816 54.9922C133.559 55.8203 132.113 56.2344 130.48 56.2344C128.793 56.2344 127.441 55.793 126.426 54.9102C125.41 54.0195 124.902 52.8516 124.902 51.4062ZM130.645 53.5156C131.457 53.5156 132.227 53.2891 132.953 52.8359L129.59 48.9453L129.344 49.1211C128.648 49.7148 128.301 50.4141 128.301 51.2188C128.301 51.8984 128.516 52.4531 128.945 52.8828C129.383 53.3047 129.949 53.5156 130.645 53.5156ZM129.402 43.1445C129.402 43.7305 129.746 44.4688 130.434 45.3594L131.336 44.7617C131.797 44.4648 132.113 44.1758 132.285 43.8945C132.465 43.6133 132.555 43.2773 132.555 42.8867C132.555 42.4961 132.41 42.1562 132.121 41.8672C131.832 41.5781 131.461 41.4336 131.008 41.4336C130.523 41.4336 130.133 41.5898 129.836 41.9023C129.547 42.2148 129.402 42.6289 129.402 43.1445ZM160.715 50.3164C160.582 52.1523 159.902 53.5977 158.676 54.6523C157.457 55.707 155.848 56.2344 153.848 56.2344C151.66 56.2344 149.938 55.5 148.68 54.0312C147.43 52.5547 146.805 50.5312 146.805 47.9609V46.918C146.805 45.2773 147.094 43.832 147.672 42.582C148.25 41.332 149.074 40.375 150.145 39.7109C151.223 39.0391 152.473 38.7031 153.895 38.7031C155.863 38.7031 157.449 39.2305 158.652 40.2852C159.855 41.3398 160.551 42.8203 160.738 44.7266H157.223C157.137 43.625 156.828 42.8281 156.297 42.3359C155.773 41.8359 154.973 41.5859 153.895 41.5859C152.723 41.5859 151.844 42.0078 151.258 42.8516C150.68 43.6875 150.383 44.9883 150.367 46.7539V48.043C150.367 49.8867 150.645 51.2344 151.199 52.0859C151.762 52.9375 152.645 53.3633 153.848 53.3633C154.934 53.3633 155.742 53.1172 156.273 52.625C156.812 52.125 157.121 51.3555 157.199 50.3164H160.715ZM162.273 49.543C162.273 48.2852 162.516 47.1641 163 46.1797C163.484 45.1953 164.18 44.4336 165.086 43.8945C166 43.3555 167.059 43.0859 168.262 43.0859C169.973 43.0859 171.367 43.6094 172.445 44.6562C173.531 45.7031 174.137 47.125 174.262 48.9219L174.285 49.7891C174.285 51.7344 173.742 53.2969 172.656 54.4766C171.57 55.6484 170.113 56.2344 168.285 56.2344C166.457 56.2344 164.996 55.6484 163.902 54.4766C162.816 53.3047 162.273 51.7109 162.273 49.6953V49.543ZM165.66 49.7891C165.66 50.9922 165.887 51.9141 166.34 52.5547C166.793 53.1875 167.441 53.5039 168.285 53.5039C169.105 53.5039 169.746 53.1914 170.207 52.5664C170.668 51.9336 170.898 50.9258 170.898 49.543C170.898 48.3633 170.668 47.4492 170.207 46.8008C169.746 46.1523 169.098 45.8281 168.262 45.8281C167.434 45.8281 166.793 46.1523 166.34 46.8008C165.887 47.4414 165.66 48.4375 165.66 49.7891ZM183.965 54.7109C183.129 55.7266 181.973 56.2344 180.496 56.2344C179.137 56.2344 178.098 55.8438 177.379 55.0625C176.668 54.2812 176.305 53.1367 176.289 51.6289V43.3203H179.676V51.5117C179.676 52.832 180.277 53.4922 181.48 53.4922C182.629 53.4922 183.418 53.0938 183.848 52.2969V43.3203H187.246V56H184.059L183.965 54.7109ZM196.926 46.4961C196.465 46.4336 196.059 46.4023 195.707 46.4023C194.426 46.4023 193.586 46.8359 193.188 47.7031V56H189.801V43.3203H193L193.094 44.832C193.773 43.668 194.715 43.0859 195.918 43.0859C196.293 43.0859 196.645 43.1367 196.973 43.2383L196.926 46.4961ZM205.434 52.4961C205.434 52.082 205.227 51.7578 204.812 51.5234C204.406 51.2812 203.75 51.0664 202.844 50.8789C199.828 50.2461 198.32 48.9648 198.32 47.0352C198.32 45.9102 198.785 44.9727 199.715 44.2227C200.652 43.4648 201.875 43.0859 203.383 43.0859C204.992 43.0859 206.277 43.4648 207.238 44.2227C208.207 44.9805 208.691 45.9648 208.691 47.1758H205.305C205.305 46.6914 205.148 46.293 204.836 45.9805C204.523 45.6602 204.035 45.5 203.371 45.5C202.801 45.5 202.359 45.6289 202.047 45.8867C201.734 46.1445 201.578 46.4727 201.578 46.8711C201.578 47.2461 201.754 47.5508 202.105 47.7852C202.465 48.0117 203.066 48.2109 203.91 48.3828C204.754 48.5469 205.465 48.7344 206.043 48.9453C207.832 49.6016 208.727 50.7383 208.727 52.3555C208.727 53.5117 208.23 54.4492 207.238 55.168C206.246 55.8789 204.965 56.2344 203.395 56.2344C202.332 56.2344 201.387 56.0469 200.559 55.6719C199.738 55.2891 199.094 54.7695 198.625 54.1133C198.156 53.4492 197.922 52.7344 197.922 51.9688H201.133C201.164 52.5703 201.387 53.0312 201.801 53.3516C202.215 53.6719 202.77 53.832 203.465 53.832C204.113 53.832 204.602 53.7109 204.93 53.4688C205.266 53.2188 205.434 52.8945 205.434 52.4961ZM216.754 56.2344C214.895 56.2344 213.379 55.6641 212.207 54.5234C211.043 53.3828 210.461 51.8633 210.461 49.9648V49.6367C210.461 48.3633 210.707 47.2266 211.199 46.2266C211.691 45.2188 212.387 44.4453 213.285 43.9062C214.191 43.3594 215.223 43.0859 216.379 43.0859C218.113 43.0859 219.477 43.6328 220.469 44.7266C221.469 45.8203 221.969 47.3711 221.969 49.3789V50.7617H213.895C214.004 51.5898 214.332 52.2539 214.879 52.7539C215.434 53.2539 216.133 53.5039 216.977 53.5039C218.281 53.5039 219.301 53.0312 220.035 52.0859L221.699 53.9492C221.191 54.668 220.504 55.2305 219.637 55.6367C218.77 56.0352 217.809 56.2344 216.754 56.2344ZM216.367 45.8281C215.695 45.8281 215.148 46.0547 214.727 46.5078C214.312 46.9609 214.047 47.6094 213.93 48.4531H218.641V48.1836C218.625 47.4336 218.422 46.8555 218.031 46.4492C217.641 46.0352 217.086 45.8281 216.367 45.8281Z" fill="white"/>
<defs>
<linearGradient id="paint0_linear" x1="101.054" y1="46.6154" x2="219.179" y2="37.832" gradientUnits="userSpaceOnUse">
<stop stop-color="#20B140"/>
<stop offset="1" stop-color="#25C435"/>
</linearGradient>
</defs>
</svg>
