<svg width="253" height="84" viewBox="0 0 253 84" fill="none" xmlns="http://www.w3.org/2000/svg">
<rect x="68" y="18" width="185" height="50" rx="8" fill="url(#paint0_linear)"/>
<path d="M131.117 34.9375L135.5 47.3125L139.859 34.9375H144.477V52H140.949V47.3359L141.301 39.2852L136.695 52H134.281L129.688 39.2969L130.039 47.3359V52H126.523V34.9375H131.117ZM152.059 47.207L154.402 39.3203H158.035L152.938 53.9688L152.656 54.6367C151.898 56.293 150.648 57.1211 148.906 57.1211C148.414 57.1211 147.914 57.0469 147.406 56.8984V54.332L147.922 54.3438C148.562 54.3438 149.039 54.2461 149.352 54.0508C149.672 53.8555 149.922 53.5312 150.102 53.0781L150.5 52.0352L146.059 39.3203H149.703L152.059 47.207ZM178.965 46.3164C178.832 48.1523 178.152 49.5977 176.926 50.6523C175.707 51.707 174.098 52.2344 172.098 52.2344C169.91 52.2344 168.188 51.5 166.93 50.0312C165.68 48.5547 165.055 46.5312 165.055 43.9609V42.918C165.055 41.2773 165.344 39.832 165.922 38.582C166.5 37.332 167.324 36.375 168.395 35.7109C169.473 35.0391 170.723 34.7031 172.145 34.7031C174.113 34.7031 175.699 35.2305 176.902 36.2852C178.105 37.3398 178.801 38.8203 178.988 40.7266H175.473C175.387 39.625 175.078 38.8281 174.547 38.3359C174.023 37.8359 173.223 37.5859 172.145 37.5859C170.973 37.5859 170.094 38.0078 169.508 38.8516C168.93 39.6875 168.633 40.9883 168.617 42.7539V44.043C168.617 45.8867 168.895 47.2344 169.449 48.0859C170.012 48.9375 170.895 49.3633 172.098 49.3633C173.184 49.3633 173.992 49.1172 174.523 48.625C175.062 48.125 175.371 47.3555 175.449 46.3164H178.965ZM188.398 52C188.242 51.6953 188.129 51.3164 188.059 50.8633C187.238 51.7773 186.172 52.2344 184.859 52.2344C183.617 52.2344 182.586 51.875 181.766 51.1562C180.953 50.4375 180.547 49.5312 180.547 48.4375C180.547 47.0938 181.043 46.0625 182.035 45.3438C183.035 44.625 184.477 44.2617 186.359 44.2539H187.918V43.5273C187.918 42.9414 187.766 42.4727 187.461 42.1211C187.164 41.7695 186.691 41.5938 186.043 41.5938C185.473 41.5938 185.023 41.7305 184.695 42.0039C184.375 42.2773 184.215 42.6523 184.215 43.1289H180.828C180.828 42.3945 181.055 41.7148 181.508 41.0898C181.961 40.4648 182.602 39.9766 183.43 39.625C184.258 39.2656 185.188 39.0859 186.219 39.0859C187.781 39.0859 189.02 39.4805 189.934 40.2695C190.855 41.0508 191.316 42.1523 191.316 43.5742V49.0703C191.324 50.2734 191.492 51.1836 191.82 51.8008V52H188.398ZM185.598 49.6445C186.098 49.6445 186.559 49.5352 186.98 49.3164C187.402 49.0898 187.715 48.7891 187.918 48.4141V46.2344H186.652C184.957 46.2344 184.055 46.8203 183.945 47.9922L183.934 48.1914C183.934 48.6133 184.082 48.9609 184.379 49.2344C184.676 49.5078 185.082 49.6445 185.598 49.6445ZM201.043 42.4961C200.582 42.4336 200.176 42.4023 199.824 42.4023C198.543 42.4023 197.703 42.8359 197.305 43.7031V52H193.918V39.3203H197.117L197.211 40.832C197.891 39.668 198.832 39.0859 200.035 39.0859C200.41 39.0859 200.762 39.1367 201.09 39.2383L201.043 42.4961ZM207.324 36.2031V39.3203H209.492V41.8047H207.324V48.1328C207.324 48.6016 207.414 48.9375 207.594 49.1406C207.773 49.3438 208.117 49.4453 208.625 49.4453C209 49.4453 209.332 49.418 209.621 49.3633V51.9297C208.957 52.1328 208.273 52.2344 207.57 52.2344C205.195 52.2344 203.984 51.0352 203.938 48.6367V41.8047H202.086V39.3203H203.938V36.2031H207.324Z" fill="white"/>
<path fill-rule="evenodd" clip-rule="evenodd" d="M42 84C65.196 84 84 65.196 84 42C84 18.804 65.196 0 42 0C18.804 0 0 18.804 0 42C0 65.196 18.804 84 42 84Z" fill="white"/>
<path fill-rule="evenodd" clip-rule="evenodd" d="M15.2735 21.0391C15.3766 21.0391 15.4687 21.1035 15.5041 21.2003L25.2943 48.0081L21.4285 49.4136L12.61 25.2111C12.5963 25.1735 12.5606 25.1485 12.5206 25.1485H5.0547C3.91992 25.1485 3 24.2285 3 23.0938C3 21.959 3.91992 21.0391 5.0547 21.0391H15.2735Z" fill="#464F62"/>
<path d="M47.5888 59.5472H16.3748C15.0132 59.5472 14.0496 58.2162 14.4748 56.9227L17.1573 48.7622C17.427 47.9415 18.1933 47.3867 19.0572 47.3867H37.5957" stroke="#464F62" stroke-width="2" stroke-linecap="round"/>
<path fill-rule="evenodd" clip-rule="evenodd" d="M16.8421 32.3972C16.6387 31.7348 17.1544 31.0713 17.8465 31.1049L57.1633 33.012C57.8277 33.0442 58.2761 33.7041 58.0613 34.3337L52.4572 50.7632C52.319 51.1682 51.9386 51.4404 51.5107 51.4404H23.4273C22.988 51.4404 22.6002 51.1537 22.4713 50.7338L16.8421 32.3972Z" fill="#464F62"/>
<path fill-rule="evenodd" clip-rule="evenodd" d="M25.2946 67.6544C27.5333 67.6544 29.3481 65.8396 29.3481 63.6009C29.3481 61.3622 27.5333 59.5474 25.2946 59.5474C23.0559 59.5474 21.2411 61.3622 21.2411 63.6009C21.2411 65.8396 23.0559 67.6544 25.2946 67.6544Z" fill="#464F62"/>
<path fill-rule="evenodd" clip-rule="evenodd" d="M41.5085 67.6544C43.7471 67.6544 45.562 65.8396 45.562 63.6009C45.562 61.3622 43.7471 59.5474 41.5085 59.5474C39.2698 59.5474 37.455 61.3622 37.455 63.6009C37.455 65.8396 39.2698 67.6544 41.5085 67.6544Z" fill="#464F62"/>
<g clip-path="url(#clip0)">
<path fill-rule="evenodd" clip-rule="evenodd" d="M57.665 44C63.464 44 68.165 39.299 68.165 33.5C68.165 27.701 63.464 23 57.665 23C51.866 23 47.165 27.701 47.165 33.5C47.165 39.299 51.866 44 57.665 44Z" fill="url(#paint1_linear)"/>
<path d="M60.5928 38H54.7451V36.8398L57.5049 33.8984C57.8838 33.4844 58.1631 33.123 58.3428 32.8145C58.5264 32.5059 58.6182 32.2129 58.6182 31.9355C58.6182 31.5566 58.5225 31.2598 58.3311 31.0449C58.1396 30.8262 57.8662 30.7168 57.5107 30.7168C57.1279 30.7168 56.8252 30.8496 56.6025 31.1152C56.3838 31.377 56.2744 31.7227 56.2744 32.1523H54.5752C54.5752 31.6328 54.6982 31.1582 54.9443 30.7285C55.1943 30.2988 55.5459 29.9629 55.999 29.7207C56.4521 29.4746 56.9658 29.3516 57.54 29.3516C58.4189 29.3516 59.1006 29.5625 59.585 29.9844C60.0732 30.4062 60.3174 31.002 60.3174 31.7715C60.3174 32.1934 60.208 32.623 59.9893 33.0605C59.7705 33.498 59.3955 34.0078 58.8643 34.5898L56.9248 36.6348H60.5928V38Z" fill="white"/>
</g>
<defs>
<linearGradient id="paint0_linear" x1="143.996" y1="42.6154" x2="233.043" y2="37.636" gradientUnits="userSpaceOnUse">
<stop stop-color="#20B140"/>
<stop offset="1" stop-color="#25C435"/>
</linearGradient>
<linearGradient id="paint1_linear" x1="46.7198" y1="18.0254" x2="46.7198" y2="39.9159" gradientUnits="userSpaceOnUse">
<stop stop-color="#FFC700"/>
<stop offset="1" stop-color="#FF9500"/>
</linearGradient>
<clipPath id="clip0">
<rect width="33.8308" height="33.8308" fill="white" transform="translate(36.1941 10)"/>
</clipPath>
</defs>
</svg>
