<svg width="246" height="100" viewBox="0 0 246 100" fill="none" xmlns="http://www.w3.org/2000/svg">
<rect y="22" width="246" height="50" rx="8" fill="url(#paint0_linear)"/>
<path d="M54.918 50.3164C54.7852 52.1523 54.1055 53.5977 52.8789 54.6523C51.6602 55.707 50.0508 56.2344 48.0508 56.2344C45.8633 56.2344 44.1406 55.5 42.8828 54.0312C41.6328 52.5547 41.0078 50.5312 41.0078 47.9609V46.918C41.0078 45.2773 41.2969 43.832 41.875 42.582C42.4531 41.332 43.2773 40.375 44.3477 39.7109C45.4258 39.0391 46.6758 38.7031 48.0977 38.7031C50.0664 38.7031 51.6523 39.2305 52.8555 40.2852C54.0586 41.3398 54.7539 42.8203 54.9414 44.7266H51.4258C51.3398 43.625 51.0312 42.8281 50.5 42.3359C49.9766 41.8359 49.1758 41.5859 48.0977 41.5859C46.9258 41.5859 46.0469 42.0078 45.4609 42.8516C44.8828 43.6875 44.5859 44.9883 44.5703 46.7539V48.043C44.5703 49.8867 44.8477 51.2344 45.4023 52.0859C45.9648 52.9375 46.8477 53.3633 48.0508 53.3633C49.1367 53.3633 49.9453 53.1172 50.4766 52.625C51.0156 52.125 51.3242 51.3555 51.4023 50.3164H54.918ZM56.4766 49.543C56.4766 48.2852 56.7188 47.1641 57.2031 46.1797C57.6875 45.1953 58.3828 44.4336 59.2891 43.8945C60.2031 43.3555 61.2617 43.0859 62.4648 43.0859C64.1758 43.0859 65.5703 43.6094 66.6484 44.6562C67.7344 45.7031 68.3398 47.125 68.4648 48.9219L68.4883 49.7891C68.4883 51.7344 67.9453 53.2969 66.8594 54.4766C65.7734 55.6484 64.3164 56.2344 62.4883 56.2344C60.6602 56.2344 59.1992 55.6484 58.1055 54.4766C57.0195 53.3047 56.4766 51.7109 56.4766 49.6953V49.543ZM59.8633 49.7891C59.8633 50.9922 60.0898 51.9141 60.543 52.5547C60.9961 53.1875 61.6445 53.5039 62.4883 53.5039C63.3086 53.5039 63.9492 53.1914 64.4102 52.5664C64.8711 51.9336 65.1016 50.9258 65.1016 49.543C65.1016 48.3633 64.8711 47.4492 64.4102 46.8008C63.9492 46.1523 63.3008 45.8281 62.4648 45.8281C61.6367 45.8281 60.9961 46.1523 60.543 46.8008C60.0898 47.4414 59.8633 48.4375 59.8633 49.7891ZM78.168 54.7109C77.332 55.7266 76.1758 56.2344 74.6992 56.2344C73.3398 56.2344 72.3008 55.8438 71.582 55.0625C70.8711 54.2812 70.5078 53.1367 70.4922 51.6289V43.3203H73.8789V51.5117C73.8789 52.832 74.4805 53.4922 75.6836 53.4922C76.832 53.4922 77.6211 53.0938 78.0508 52.2969V43.3203H81.4492V56H78.2617L78.168 54.7109ZM91.1289 46.4961C90.668 46.4336 90.2617 46.4023 89.9102 46.4023C88.6289 46.4023 87.7891 46.8359 87.3906 47.7031V56H84.0039V43.3203H87.2031L87.2969 44.832C87.9766 43.668 88.918 43.0859 90.1211 43.0859C90.4961 43.0859 90.8477 43.1367 91.1758 43.2383L91.1289 46.4961ZM99.6367 52.4961C99.6367 52.082 99.4297 51.7578 99.0156 51.5234C98.6094 51.2812 97.9531 51.0664 97.0469 50.8789C94.0312 50.2461 92.5234 48.9648 92.5234 47.0352C92.5234 45.9102 92.9883 44.9727 93.918 44.2227C94.8555 43.4648 96.0781 43.0859 97.5859 43.0859C99.1953 43.0859 100.48 43.4648 101.441 44.2227C102.41 44.9805 102.895 45.9648 102.895 47.1758H99.5078C99.5078 46.6914 99.3516 46.293 99.0391 45.9805C98.7266 45.6602 98.2383 45.5 97.5742 45.5C97.0039 45.5 96.5625 45.6289 96.25 45.8867C95.9375 46.1445 95.7812 46.4727 95.7812 46.8711C95.7812 47.2461 95.957 47.5508 96.3086 47.7852C96.668 48.0117 97.2695 48.2109 98.1133 48.3828C98.957 48.5469 99.668 48.7344 100.246 48.9453C102.035 49.6016 102.93 50.7383 102.93 52.3555C102.93 53.5117 102.434 54.4492 101.441 55.168C100.449 55.8789 99.168 56.2344 97.5977 56.2344C96.5352 56.2344 95.5898 56.0469 94.7617 55.6719C93.9414 55.2891 93.2969 54.7695 92.8281 54.1133C92.3594 53.4492 92.125 52.7344 92.125 51.9688H95.3359C95.3672 52.5703 95.5898 53.0312 96.0039 53.3516C96.418 53.6719 96.9727 53.832 97.668 53.832C98.3164 53.832 98.8047 53.7109 99.1328 53.4688C99.4688 53.2188 99.6367 52.8945 99.6367 52.4961ZM110.957 56.2344C109.098 56.2344 107.582 55.6641 106.41 54.5234C105.246 53.3828 104.664 51.8633 104.664 49.9648V49.6367C104.664 48.3633 104.91 47.2266 105.402 46.2266C105.895 45.2188 106.59 44.4453 107.488 43.9062C108.395 43.3594 109.426 43.0859 110.582 43.0859C112.316 43.0859 113.68 43.6328 114.672 44.7266C115.672 45.8203 116.172 47.3711 116.172 49.3789V50.7617H108.098C108.207 51.5898 108.535 52.2539 109.082 52.7539C109.637 53.2539 110.336 53.5039 111.18 53.5039C112.484 53.5039 113.504 53.0312 114.238 52.0859L115.902 53.9492C115.395 54.668 114.707 55.2305 113.84 55.6367C112.973 56.0352 112.012 56.2344 110.957 56.2344ZM110.57 45.8281C109.898 45.8281 109.352 46.0547 108.93 46.5078C108.516 46.9609 108.25 47.6094 108.133 48.4531H112.844V48.1836C112.828 47.4336 112.625 46.8555 112.234 46.4492C111.844 46.0352 111.289 45.8281 110.57 45.8281ZM124.305 56V38.9375H129.555C131.055 38.9375 132.395 39.2773 133.574 39.957C134.762 40.6289 135.688 41.5898 136.352 42.8398C137.016 44.082 137.348 45.4961 137.348 47.082V47.8672C137.348 49.4531 137.02 50.8633 136.363 52.0977C135.715 53.332 134.797 54.2891 133.609 54.9688C132.422 55.6484 131.082 55.9922 129.59 56H124.305ZM127.82 41.7852V53.1758H129.52C130.895 53.1758 131.945 52.7266 132.672 51.8281C133.398 50.9297 133.77 49.6445 133.785 47.9727V47.0703C133.785 45.3359 133.426 44.0234 132.707 43.1328C131.988 42.2344 130.938 41.7852 129.555 41.7852H127.82ZM145.527 56.2344C143.668 56.2344 142.152 55.6641 140.98 54.5234C139.816 53.3828 139.234 51.8633 139.234 49.9648V49.6367C139.234 48.3633 139.48 47.2266 139.973 46.2266C140.465 45.2188 141.16 44.4453 142.059 43.9062C142.965 43.3594 143.996 43.0859 145.152 43.0859C146.887 43.0859 148.25 43.6328 149.242 44.7266C150.242 45.8203 150.742 47.3711 150.742 49.3789V50.7617H142.668C142.777 51.5898 143.105 52.2539 143.652 52.7539C144.207 53.2539 144.906 53.5039 145.75 53.5039C147.055 53.5039 148.074 53.0312 148.809 52.0859L150.473 53.9492C149.965 54.668 149.277 55.2305 148.41 55.6367C147.543 56.0352 146.582 56.2344 145.527 56.2344ZM145.141 45.8281C144.469 45.8281 143.922 46.0547 143.5 46.5078C143.086 46.9609 142.82 47.6094 142.703 48.4531H147.414V48.1836C147.398 47.4336 147.195 46.8555 146.805 46.4492C146.414 46.0352 145.859 45.8281 145.141 45.8281ZM156.73 40.2031V43.3203H158.898V45.8047H156.73V52.1328C156.73 52.6016 156.82 52.9375 157 53.1406C157.18 53.3438 157.523 53.4453 158.031 53.4453C158.406 53.4453 158.738 53.418 159.027 53.3633V55.9297C158.363 56.1328 157.68 56.2344 156.977 56.2344C154.602 56.2344 153.391 55.0352 153.344 52.6367V45.8047H151.492V43.3203H153.344V40.2031H156.73ZM168.133 56C167.977 55.6953 167.863 55.3164 167.793 54.8633C166.973 55.7773 165.906 56.2344 164.594 56.2344C163.352 56.2344 162.32 55.875 161.5 55.1562C160.688 54.4375 160.281 53.5312 160.281 52.4375C160.281 51.0938 160.777 50.0625 161.77 49.3438C162.77 48.625 164.211 48.2617 166.094 48.2539H167.652V47.5273C167.652 46.9414 167.5 46.4727 167.195 46.1211C166.898 45.7695 166.426 45.5938 165.777 45.5938C165.207 45.5938 164.758 45.7305 164.43 46.0039C164.109 46.2773 163.949 46.6523 163.949 47.1289H160.562C160.562 46.3945 160.789 45.7148 161.242 45.0898C161.695 44.4648 162.336 43.9766 163.164 43.625C163.992 43.2656 164.922 43.0859 165.953 43.0859C167.516 43.0859 168.754 43.4805 169.668 44.2695C170.59 45.0508 171.051 46.1523 171.051 47.5742V53.0703C171.059 54.2734 171.227 55.1836 171.555 55.8008V56H168.133ZM165.332 53.6445C165.832 53.6445 166.293 53.5352 166.715 53.3164C167.137 53.0898 167.449 52.7891 167.652 52.4141V50.2344H166.387C164.691 50.2344 163.789 50.8203 163.68 51.9922L163.668 52.1914C163.668 52.6133 163.816 52.9609 164.113 53.2344C164.41 53.5078 164.816 53.6445 165.332 53.6445ZM177.227 56H173.828V43.3203H177.227V56ZM173.629 40.0391C173.629 39.5312 173.797 39.1133 174.133 38.7852C174.477 38.457 174.941 38.293 175.527 38.293C176.105 38.293 176.566 38.457 176.91 38.7852C177.254 39.1133 177.426 39.5312 177.426 40.0391C177.426 40.5547 177.25 40.9766 176.898 41.3047C176.555 41.6328 176.098 41.7969 175.527 41.7969C174.957 41.7969 174.496 41.6328 174.145 41.3047C173.801 40.9766 173.629 40.5547 173.629 40.0391ZM183.602 56H180.203V38H183.602V56ZM193.27 52.4961C193.27 52.082 193.062 51.7578 192.648 51.5234C192.242 51.2812 191.586 51.0664 190.68 50.8789C187.664 50.2461 186.156 48.9648 186.156 47.0352C186.156 45.9102 186.621 44.9727 187.551 44.2227C188.488 43.4648 189.711 43.0859 191.219 43.0859C192.828 43.0859 194.113 43.4648 195.074 44.2227C196.043 44.9805 196.527 45.9648 196.527 47.1758H193.141C193.141 46.6914 192.984 46.293 192.672 45.9805C192.359 45.6602 191.871 45.5 191.207 45.5C190.637 45.5 190.195 45.6289 189.883 45.8867C189.57 46.1445 189.414 46.4727 189.414 46.8711C189.414 47.2461 189.59 47.5508 189.941 47.7852C190.301 48.0117 190.902 48.2109 191.746 48.3828C192.59 48.5469 193.301 48.7344 193.879 48.9453C195.668 49.6016 196.562 50.7383 196.562 52.3555C196.562 53.5117 196.066 54.4492 195.074 55.168C194.082 55.8789 192.801 56.2344 191.23 56.2344C190.168 56.2344 189.223 56.0469 188.395 55.6719C187.574 55.2891 186.93 54.7695 186.461 54.1133C185.992 53.4492 185.758 52.7344 185.758 51.9688H188.969C189 52.5703 189.223 53.0312 189.637 53.3516C190.051 53.6719 190.605 53.832 191.301 53.832C191.949 53.832 192.438 53.7109 192.766 53.4688C193.102 53.2188 193.27 52.8945 193.27 52.4961Z" fill="white"/>
<defs>
<linearGradient id="paint0_linear" x1="101.054" y1="46.6154" x2="219.179" y2="37.832" gradientUnits="userSpaceOnUse">
<stop stop-color="#20B140"/>
<stop offset="1" stop-color="#25C435"/>
</linearGradient>
</defs>
</svg>
