<svg width="185" height="50" viewBox="0 0 185 50" fill="none" xmlns="http://www.w3.org/2000/svg">
<rect width="185" height="50" rx="8" fill="url(#paint0_linear)"/>
<path d="M58.368 16.176C58.768 16.176 59.112 16.32 59.4 16.608C59.704 16.88 59.856 17.224 59.856 17.64V31.536C59.856 31.952 59.72 32.304 59.448 32.592C59.176 32.864 58.816 33 58.368 33C57.92 33 57.552 32.864 57.264 32.592C56.992 32.32 56.856 31.968 56.856 31.536V21.864L52.896 27.912C52.736 28.104 52.552 28.264 52.344 28.392C52.136 28.504 51.92 28.552 51.696 28.536C51.488 28.552 51.28 28.504 51.072 28.392C50.864 28.264 50.68 28.104 50.52 27.912L46.56 21.648V31.536C46.56 31.968 46.432 32.32 46.176 32.592C45.92 32.864 45.584 33 45.168 33C44.768 33 44.44 32.864 44.184 32.592C43.928 32.304 43.8 31.952 43.8 31.536V17.64C43.8 17.24 43.944 16.896 44.232 16.608C44.536 16.32 44.896 16.176 45.312 16.176C45.552 16.176 45.792 16.24 46.032 16.368C46.272 16.48 46.456 16.632 46.584 16.824L51.816 24.864L57.192 16.824C57.32 16.632 57.488 16.48 57.696 16.368C57.92 16.24 58.144 16.176 58.368 16.176ZM72.7521 20.16C73.1681 20.16 73.5121 20.304 73.7841 20.592C74.0561 20.864 74.1921 21.208 74.1921 21.624V31.824C74.1921 33.904 73.6321 35.416 72.5121 36.36C71.3921 37.32 69.8961 37.8 68.0241 37.8C67.4801 37.8 66.9201 37.752 66.3441 37.656C65.7841 37.576 65.3281 37.464 64.9761 37.32C64.1921 36.984 63.8001 36.52 63.8001 35.928C63.8001 35.816 63.8241 35.688 63.8721 35.544C63.9681 35.192 64.1281 34.92 64.3521 34.728C64.5921 34.552 64.8481 34.464 65.1201 34.464C65.2801 34.464 65.4321 34.488 65.5761 34.536C65.6881 34.584 65.8801 34.664 66.1521 34.776C66.4401 34.888 66.7361 34.976 67.0401 35.04C67.3601 35.12 67.6881 35.16 68.0241 35.16C69.1601 35.16 69.9921 34.912 70.5201 34.416C71.0641 33.936 71.3361 33.104 71.3361 31.92V31.68C70.5041 32.72 69.2081 33.24 67.4481 33.24C66.6161 33.24 65.8801 33.048 65.2401 32.664C64.6001 32.264 64.1041 31.72 63.7521 31.032C63.4001 30.328 63.2241 29.528 63.2241 28.632V21.624C63.2241 21.208 63.3601 20.864 63.6321 20.592C63.9041 20.304 64.2481 20.16 64.6641 20.16C65.0801 20.16 65.4241 20.304 65.6961 20.592C65.9681 20.864 66.1041 21.208 66.1041 21.624V27.768C66.1041 28.776 66.3201 29.504 66.7521 29.952C67.2001 30.384 67.8481 30.6 68.6961 30.6C69.5281 30.6 70.1681 30.36 70.6161 29.88C71.0801 29.384 71.3121 28.68 71.3121 27.768V21.624C71.3121 21.208 71.4481 20.864 71.7201 20.592C71.9921 20.304 72.3361 20.16 72.7521 20.16ZM99.7326 24.6C99.7326 26.184 99.3806 27.64 98.6766 28.968C97.9726 30.28 96.9966 31.32 95.7486 32.088C94.5166 32.856 93.1246 33.24 91.5726 33.24C90.0206 33.24 88.6206 32.856 87.3726 32.088C86.1406 31.32 85.1726 30.28 84.4686 28.968C83.7806 27.64 83.4366 26.184 83.4366 24.6C83.4366 23.016 83.7806 21.568 84.4686 20.256C85.1726 18.928 86.1406 17.88 87.3726 17.112C88.6206 16.344 90.0206 15.96 91.5726 15.96C93.1246 15.96 94.5166 16.344 95.7486 17.112C96.9966 17.88 97.9726 18.928 98.6766 20.256C99.3806 21.568 99.7326 23.016 99.7326 24.6ZM96.6126 24.6C96.6126 23.528 96.3966 22.56 95.9646 21.696C95.5326 20.816 94.9326 20.12 94.1646 19.608C93.3966 19.096 92.5326 18.84 91.5726 18.84C90.5966 18.84 89.7246 19.096 88.9566 19.608C88.2046 20.104 87.6126 20.792 87.1806 21.672C86.7646 22.552 86.5566 23.528 86.5566 24.6C86.5566 25.672 86.7646 26.648 87.1806 27.528C87.6126 28.408 88.2046 29.104 88.9566 29.616C89.7246 30.112 90.5966 30.36 91.5726 30.36C92.5326 30.36 93.3966 30.104 94.1646 29.592C94.9326 29.08 95.5326 28.392 95.9646 27.528C96.3966 26.648 96.6126 25.672 96.6126 24.6ZM108.92 19.92C109.4 19.92 109.8 20.056 110.12 20.328C110.456 20.6 110.624 20.92 110.624 21.288C110.624 21.784 110.496 22.16 110.24 22.416C109.984 22.656 109.68 22.776 109.328 22.776C109.088 22.776 108.816 22.72 108.512 22.608C108.464 22.592 108.352 22.56 108.176 22.512C108.016 22.464 107.84 22.44 107.648 22.44C107.232 22.44 106.832 22.568 106.448 22.824C106.064 23.08 105.744 23.472 105.488 24C105.248 24.512 105.128 25.128 105.128 25.848V31.536C105.128 31.952 104.992 32.304 104.72 32.592C104.448 32.864 104.104 33 103.688 33C103.272 33 102.928 32.864 102.656 32.592C102.384 32.304 102.248 31.952 102.248 31.536V21.624C102.248 21.208 102.384 20.864 102.656 20.592C102.928 20.304 103.272 20.16 103.688 20.16C104.104 20.16 104.448 20.304 104.72 20.592C104.992 20.864 105.128 21.208 105.128 21.624V21.936C105.496 21.28 106.024 20.784 106.712 20.448C107.4 20.096 108.136 19.92 108.92 19.92ZM122.507 15.24C122.923 15.24 123.267 15.376 123.539 15.648C123.811 15.92 123.947 16.272 123.947 16.704V31.536C123.947 31.952 123.811 32.304 123.539 32.592C123.267 32.864 122.923 33 122.507 33C122.091 33 121.747 32.864 121.475 32.592C121.219 32.32 121.083 31.976 121.067 31.56C120.667 32.024 120.123 32.424 119.435 32.76C118.763 33.08 118.051 33.24 117.299 33.24C116.195 33.24 115.195 32.96 114.299 32.4C113.403 31.824 112.691 31.032 112.163 30.024C111.651 29.016 111.395 27.872 111.395 26.592C111.395 25.312 111.651 24.168 112.163 23.16C112.675 22.136 113.371 21.344 114.251 20.784C115.147 20.208 116.131 19.92 117.203 19.92C117.971 19.92 118.691 20.064 119.363 20.352C120.035 20.624 120.603 20.976 121.067 21.408V16.704C121.067 16.288 121.203 15.944 121.475 15.672C121.747 15.384 122.091 15.24 122.507 15.24ZM117.659 30.6C118.699 30.6 119.547 30.224 120.203 29.472C120.859 28.704 121.187 27.744 121.187 26.592C121.187 25.44 120.859 24.48 120.203 23.712C119.547 22.944 118.699 22.56 117.659 22.56C116.635 22.56 115.795 22.944 115.139 23.712C114.483 24.48 114.155 25.44 114.155 26.592C114.155 27.744 114.475 28.704 115.115 29.472C115.771 30.224 116.619 30.6 117.659 30.6ZM138.588 26.28C138.572 26.664 138.42 26.976 138.132 27.216C137.844 27.456 137.508 27.576 137.124 27.576H129.204C129.396 28.52 129.836 29.264 130.524 29.808C131.212 30.336 131.988 30.6 132.852 30.6C133.508 30.6 134.02 30.544 134.388 30.432C134.756 30.304 135.044 30.176 135.252 30.048C135.476 29.904 135.628 29.808 135.708 29.76C135.996 29.616 136.268 29.544 136.524 29.544C136.86 29.544 137.148 29.664 137.388 29.904C137.628 30.144 137.748 30.424 137.748 30.744C137.748 31.176 137.524 31.568 137.076 31.92C136.628 32.288 136.028 32.6 135.276 32.856C134.524 33.112 133.764 33.24 132.996 33.24C131.652 33.24 130.476 32.96 129.468 32.4C128.476 31.84 127.708 31.072 127.164 30.096C126.62 29.104 126.348 27.992 126.348 26.76C126.348 25.384 126.636 24.176 127.212 23.136C127.788 22.096 128.548 21.304 129.492 20.76C130.436 20.2 131.444 19.92 132.516 19.92C133.572 19.92 134.564 20.208 135.492 20.784C136.436 21.36 137.188 22.136 137.748 23.112C138.308 24.088 138.588 25.144 138.588 26.28ZM132.516 22.56C130.66 22.56 129.564 23.432 129.228 25.176H135.516V25.008C135.452 24.336 135.124 23.76 134.532 23.28C133.94 22.8 133.268 22.56 132.516 22.56ZM147.662 19.92C148.142 19.92 148.542 20.056 148.862 20.328C149.198 20.6 149.366 20.92 149.366 21.288C149.366 21.784 149.238 22.16 148.982 22.416C148.726 22.656 148.422 22.776 148.07 22.776C147.83 22.776 147.558 22.72 147.254 22.608C147.206 22.592 147.094 22.56 146.918 22.512C146.758 22.464 146.582 22.44 146.39 22.44C145.974 22.44 145.574 22.568 145.19 22.824C144.806 23.08 144.486 23.472 144.23 24C143.99 24.512 143.87 25.128 143.87 25.848V31.536C143.87 31.952 143.734 32.304 143.462 32.592C143.19 32.864 142.846 33 142.43 33C142.014 33 141.67 32.864 141.398 32.592C141.126 32.304 140.99 31.952 140.99 31.536V21.624C140.99 21.208 141.126 20.864 141.398 20.592C141.67 20.304 142.014 20.16 142.43 20.16C142.846 20.16 143.19 20.304 143.462 20.592C143.734 20.864 143.87 21.208 143.87 21.624V21.936C144.238 21.28 144.766 20.784 145.454 20.448C146.142 20.096 146.878 19.92 147.662 19.92ZM150.652 31.008C150.508 30.816 150.436 30.576 150.436 30.288C150.436 29.872 150.644 29.52 151.06 29.232C151.284 29.088 151.516 29.016 151.756 29.016C152.092 29.016 152.412 29.168 152.716 29.472C153.196 29.968 153.692 30.336 154.204 30.576C154.732 30.816 155.364 30.936 156.1 30.936C157.348 30.888 157.972 30.416 157.972 29.52C157.972 29.056 157.756 28.704 157.324 28.464C156.908 28.224 156.252 27.984 155.356 27.744C154.428 27.488 153.668 27.232 153.076 26.976C152.5 26.72 151.996 26.336 151.564 25.824C151.148 25.296 150.94 24.592 150.94 23.712C150.94 22.944 151.156 22.28 151.588 21.72C152.036 21.144 152.612 20.704 153.316 20.4C154.036 20.08 154.796 19.92 155.596 19.92C156.412 19.92 157.228 20.072 158.044 20.376C158.86 20.68 159.5 21.128 159.964 21.72C160.172 21.976 160.276 22.264 160.276 22.584C160.276 22.952 160.124 23.256 159.82 23.496C159.596 23.672 159.34 23.76 159.052 23.76C158.7 23.76 158.412 23.648 158.188 23.424C157.9 23.072 157.524 22.792 157.06 22.584C156.612 22.376 156.1 22.272 155.524 22.272C154.308 22.272 153.7 22.712 153.7 23.592C153.7 23.944 153.812 24.232 154.036 24.456C154.26 24.664 154.54 24.832 154.876 24.96C155.228 25.072 155.716 25.216 156.34 25.392C157.204 25.632 157.924 25.88 158.5 26.136C159.076 26.392 159.564 26.784 159.964 27.312C160.364 27.84 160.564 28.536 160.564 29.4C160.564 30.184 160.332 30.872 159.868 31.464C159.404 32.04 158.804 32.48 158.068 32.784C157.348 33.088 156.604 33.24 155.836 33.24C154.78 33.24 153.796 33.064 152.884 32.712C151.972 32.36 151.228 31.792 150.652 31.008Z" fill="white"/>
<defs>
<linearGradient id="paint0_linear" x1="75.9958" y1="24.6154" x2="165.043" y2="19.636" gradientUnits="userSpaceOnUse">
<stop stop-color="#20B140"/>
<stop offset="1" stop-color="#25C435"/>
</linearGradient>
</defs>
</svg>
