<svg width="40" height="24" viewBox="0 0 40 24" fill="none" xmlns="http://www.w3.org/2000/svg">
<g clip-path="url(#clip0)">
<path fill-rule="evenodd" clip-rule="evenodd" d="M11.8523 0C5.30606 0 0 5.22588 0 11.6725C0 18.119 5.30606 23.3449 11.8523 23.3449C14.877 23.3449 17.6372 22.2285 19.7314 20.3922C19.8979 20.2463 20.0597 20.0955 20.2174 19.9406C20.2699 19.889 20.3222 19.8372 20.3738 19.7846H19.0891C19.1407 19.8372 19.1929 19.889 19.2454 19.9406C19.1929 19.8891 19.1406 19.837 19.0891 19.7846C18.8629 19.5543 18.6471 19.3152 18.4407 19.0672C18.3951 19.0125 18.3493 18.9571 18.3048 18.9016C18.3494 18.9573 18.395 19.0123 18.4407 19.0672H21.0209C21.2036 18.8476 21.379 18.6218 21.5454 18.3892H17.9174C18.0005 18.5055 18.0852 18.6206 18.1724 18.7336C18.085 18.6205 18.0007 18.5055 17.9174 18.3892C17.7142 18.1053 17.5234 17.8117 17.346 17.5099C17.1161 17.1187 16.9087 16.7139 16.7253 16.2957C16.675 16.1808 16.6265 16.0657 16.5798 15.9489C16.5334 15.8329 16.4889 15.7152 16.4462 15.5974C16.3608 15.3617 16.2819 15.1226 16.2117 14.8801H23.2523C23.3188 14.6507 23.3781 14.418 23.4304 14.1831H16.0336C16.0729 14.3592 16.1164 14.5341 16.1636 14.7073C16.1163 14.5341 16.0729 14.3594 16.0336 14.1831C15.9565 13.8366 15.8947 13.4846 15.8496 13.1273C15.845 13.0906 15.8407 13.0534 15.8364 13.0165C15.8408 13.0537 15.8449 13.0903 15.8496 13.1273C15.8641 13.2405 15.8801 13.3534 15.8977 13.4657H23.5663C23.6015 13.2411 23.6309 13.0152 23.6529 12.7866H15.8111C15.7884 12.55 15.7736 12.3109 15.7654 12.0704C15.7631 12.0043 15.7617 11.9379 15.7606 11.8714C15.7595 11.8052 15.7582 11.739 15.7582 11.6725C15.7582 11.7391 15.7593 11.8051 15.7606 11.8714C15.7618 11.9378 15.7631 12.0043 15.7654 12.0704H23.6986C23.7006 12.0115 23.7022 11.952 23.7034 11.8929C23.7035 11.8857 23.7033 11.8786 23.7034 11.8714C23.7035 11.8691 23.7034 11.8667 23.7034 11.8643C23.7046 11.8004 23.7058 11.7367 23.7058 11.6725C23.7058 11.564 23.7041 11.4561 23.701 11.3484C23.6897 10.9503 23.6579 10.5569 23.6072 10.1699H15.8568C15.8246 10.4158 15.8001 10.6641 15.7834 10.9146C15.7793 10.9773 15.7758 11.04 15.7726 11.1029C15.77 11.1551 15.7673 11.2078 15.7654 11.2602C15.7672 11.2076 15.7701 11.1553 15.7726 11.1029C15.7757 11.0399 15.7794 10.9773 15.7834 10.9146C15.8317 10.174 15.9503 9.45214 16.1323 8.75553C16.1956 8.51315 16.2667 8.27423 16.3452 8.03822C16.3637 7.98246 16.3824 7.92679 16.4017 7.8714C16.4209 7.81652 16.4407 7.76148 16.4607 7.70697C16.4407 7.76191 16.421 7.8161 16.4017 7.8714C16.3825 7.9267 16.3637 7.98261 16.3452 8.03822H23.1188C23.0448 7.81579 22.9652 7.59559 22.8782 7.37929H16.5858C16.5641 7.43337 16.5429 7.488 16.522 7.54253C16.543 7.48801 16.564 7.43341 16.5858 7.37929C16.6837 7.13571 16.7896 6.8972 16.9034 6.66197C16.9343 6.59787 16.9663 6.53359 16.9984 6.47013C17.0308 6.4061 17.0634 6.34285 17.097 6.27949C17.0636 6.34255 17.0306 6.4064 16.9984 6.47013C16.9661 6.53387 16.9345 6.5976 16.9034 6.66197H22.5607C22.5185 6.5747 22.475 6.4883 22.4307 6.40222C22.4098 6.36145 22.3897 6.32117 22.3682 6.28068C22.3627 6.27027 22.3569 6.26008 22.3514 6.2497C22.345 6.23779 22.3385 6.22587 22.3321 6.21395C22.3004 6.15489 22.2686 6.09604 22.2359 6.0376C22.211 5.99329 22.1855 5.94928 22.1601 5.90534H17.3039C17.4455 5.66053 17.5964 5.42135 17.755 5.18802C17.7923 5.13319 17.8299 5.07896 17.8681 5.02478C17.906 4.97101 17.9448 4.91703 17.9836 4.86392C18.0616 4.75714 18.1402 4.65219 18.2217 4.54816C18.415 4.30161 18.6182 4.06238 18.8304 3.83204H20.6324C20.5613 3.75489 20.489 3.67851 20.4159 3.60326C20.1966 3.3775 19.9685 3.16052 19.7314 2.95267C17.6372 1.11645 14.877 0 11.8523 0ZM18.2217 4.54816C18.1404 4.65202 18.0613 4.75723 17.9836 4.86392C17.9447 4.91727 17.9061 4.97078 17.8681 5.02478C17.8301 5.07878 17.7922 5.1334 17.755 5.18802H21.7078C21.5592 4.96955 21.4039 4.75588 21.2411 4.54816H18.2217ZM16.1323 8.75553C16.0723 8.98516 16.0195 9.21779 15.9735 9.45259H23.4905C23.4445 9.2178 23.3917 8.98515 23.3317 8.75553H16.1323ZM16.4462 15.5974C16.4891 15.7156 16.5333 15.8326 16.5798 15.9489C16.6263 16.0653 16.6751 16.1811 16.7253 16.2957H22.7387C22.8392 16.0666 22.932 15.8339 23.0178 15.5974H16.4462ZM17.346 17.5099C17.378 17.5642 17.4107 17.6181 17.4435 17.6719H22.0206C22.1518 17.4566 22.2762 17.2371 22.3935 17.013H17.0706C17.1585 17.1811 17.2502 17.3468 17.346 17.5099ZM20.8056 4.02388C20.8342 4.0563 20.8628 4.08885 20.891 4.12158C20.8628 4.08888 20.8342 4.05627 20.8056 4.02388ZM21.8173 5.35007C21.8401 5.38496 21.8633 5.41979 21.8858 5.45493C21.8633 5.41969 21.8402 5.38506 21.8173 5.35007ZM21.9809 5.60745C22.0019 5.64145 22.0227 5.6757 22.0434 5.70992C22.0227 5.6757 22.0019 5.64144 21.9809 5.60745ZM22.6328 6.8133C22.6544 6.85953 22.6757 6.90617 22.6966 6.95271C22.6757 6.90613 22.6544 6.85956 22.6328 6.8133ZM22.2876 17.212C22.2738 17.2372 22.2595 17.262 22.2455 17.2871C22.2595 17.262 22.2738 17.2371 22.2876 17.212ZM21.8786 17.8995C21.8582 17.9313 21.838 17.9633 21.8173 17.9948C21.838 17.9633 21.8582 17.9313 21.8786 17.8995ZM20.891 19.2233C20.8628 19.2561 20.8342 19.2886 20.8056 19.321C20.8342 19.2886 20.8628 19.256 20.891 19.2233ZM20.7046 19.4342C20.6706 19.4717 20.6367 19.5092 20.6023 19.5462C20.6367 19.5092 20.6707 19.4717 20.7046 19.4342ZM20.4724 19.6845C20.4462 19.7118 20.4195 19.7384 20.393 19.7655C20.4195 19.7384 20.4462 19.7118 20.4724 19.6845Z" fill="#FF0018"/>
<path fill-rule="evenodd" clip-rule="evenodd" d="M27.6117 0C24.5871 0 21.8268 1.11645 19.7326 2.95267C20.0484 3.22963 20.3482 3.52367 20.6324 3.83204H18.8304C18.6183 4.06229 18.4161 4.30171 18.223 4.54816H21.2411C21.4039 4.75588 21.5592 4.96955 21.7078 5.18802H17.755C17.5964 5.42138 17.4455 5.6605 17.3039 5.90534H22.1601C22.3028 6.152 22.4361 6.40449 22.5607 6.66198H16.9034C16.7898 6.89682 16.6835 7.13612 16.5858 7.37929H22.8782C22.9652 7.59559 23.0448 7.81579 23.1188 8.03822H16.3452C16.1925 8.4977 16.0679 8.96997 15.9735 9.45259C16.0195 9.21779 16.0723 8.98516 16.1323 8.75553H23.3317C23.3917 8.98515 23.4445 9.2178 23.4905 9.45259H15.9735C15.9154 9.74965 15.8687 10.05 15.834 10.3546C15.8411 10.2928 15.8488 10.2314 15.8568 10.1699H23.6072C23.6716 10.6616 23.7058 11.1633 23.7058 11.6725C23.7058 11.8057 23.7031 11.9383 23.6986 12.0704H15.7654C15.7736 12.3114 15.7895 12.5496 15.8123 12.7866H23.6529C23.6309 13.0152 23.6015 13.2411 23.5663 13.4657H15.8977C15.9356 13.7076 15.9809 13.9463 16.0336 14.1831H23.4304C23.3781 14.418 23.3188 14.6507 23.2523 14.8801H16.2117C16.2819 15.1228 16.3607 15.3615 16.4462 15.5974H23.0178C22.932 15.8339 22.8392 16.0666 22.7387 16.2957H16.7253C16.9341 16.7718 17.1747 17.2311 17.4435 17.6719C17.3123 17.4566 17.1878 17.2371 17.0706 17.013H22.3935C22.2762 17.2371 22.1518 17.4566 22.0206 17.6719H17.4435C17.5928 17.9168 17.7508 18.1565 17.9174 18.3892H21.5454C21.379 18.6218 21.2036 18.8476 21.0209 19.0672H18.4407C18.6468 19.3149 18.8632 19.5545 19.089 19.7846H20.3738C20.1676 19.9948 19.9544 20.1978 19.7326 20.3922C21.8268 22.2285 24.5871 23.3449 27.6117 23.3449C34.158 23.3449 39.464 18.119 39.464 11.6725C39.464 5.22588 34.158 0 27.6117 0Z" fill="#FFAA18"/>
<path d="M38.1599 18.3394C38.2536 18.3394 38.346 18.3632 38.435 18.4116C38.5248 18.4585 38.5946 18.5275 38.6447 18.6169C38.695 18.7056 38.7196 18.7981 38.7196 18.8948C38.7196 18.9903 38.695 19.0825 38.6455 19.1707C38.5964 19.2589 38.5273 19.3281 38.4383 19.3767C38.3495 19.4252 38.2564 19.4496 38.1597 19.4496C38.0623 19.4496 37.9692 19.4252 37.8802 19.3767C37.7913 19.3277 37.7225 19.2589 37.6732 19.1707C37.6231 19.0825 37.5986 18.9903 37.5986 18.8948C37.5986 18.7981 37.6235 18.7056 37.6738 18.6169C37.7242 18.5275 37.7943 18.4589 37.8837 18.4116C37.9739 18.3632 38.0662 18.3394 38.1599 18.3394ZM38.1599 18.4308C38.0815 18.4308 38.0048 18.451 37.9298 18.4915C37.8551 18.531 37.797 18.5882 37.7549 18.663C37.7131 18.7368 37.692 18.8141 37.692 18.8944C37.692 18.9746 37.7123 19.0513 37.7532 19.1246C37.7949 19.1977 37.8528 19.255 37.9275 19.2963C38.0015 19.3366 38.0787 19.3569 38.1599 19.3569C38.2405 19.3569 38.3184 19.3366 38.3923 19.2963C38.4663 19.255 38.5242 19.1977 38.5653 19.1246C38.6066 19.0508 38.6267 18.9746 38.6267 18.8944C38.6267 18.8141 38.6058 18.7368 38.5639 18.663C38.5222 18.5882 38.4641 18.531 38.389 18.4915C38.3147 18.4512 38.2386 18.4308 38.1599 18.4308ZM37.9144 19.2013V18.6039H38.122C38.1926 18.6039 38.2442 18.6095 38.2755 18.6209C38.3072 18.6316 38.3321 18.6508 38.3514 18.6785C38.3704 18.706 38.38 18.7349 38.38 18.7659C38.38 18.8095 38.364 18.8477 38.3323 18.8798C38.3014 18.912 38.2597 18.9306 38.2077 18.9341C38.2284 18.943 38.2456 18.9537 38.2589 18.9657C38.283 18.9893 38.3127 19.0289 38.3479 19.0841L38.4217 19.2011H38.3025L38.2495 19.1072C38.2073 19.0329 38.1734 18.9868 38.1476 18.968C38.1298 18.9543 38.1038 18.9475 38.0695 18.9475H38.0126V19.2015L37.9144 19.2013V19.2013ZM38.0118 18.8651H38.13C38.1865 18.8651 38.2247 18.8568 38.245 18.8401C38.2656 18.8238 38.2763 18.8015 38.2763 18.7738C38.2763 18.7562 38.2714 18.7403 38.2616 18.7269C38.2517 18.7126 38.2378 18.7023 38.22 18.6952C38.2022 18.6884 38.1703 18.6849 38.1225 18.6849H38.012V18.8651" fill="#FFAA18"/>
<path d="M38.1599 13.5708C38.2536 13.5708 38.346 13.5946 38.435 13.6431C38.5248 13.69 38.5946 13.759 38.6447 13.8483C38.695 13.9371 38.7196 14.0295 38.7196 14.1262C38.7196 14.2217 38.695 14.314 38.6455 14.4022C38.5964 14.4903 38.5273 14.5595 38.4383 14.6082C38.3495 14.6566 38.2564 14.681 38.1597 14.681C38.0623 14.681 37.9692 14.6566 37.8802 14.6082C37.7913 14.5591 37.7225 14.4903 37.6732 14.4022C37.6231 14.314 37.5986 14.2217 37.5986 14.1262C37.5986 14.0295 37.6235 13.9371 37.6738 13.8483C37.7242 13.759 37.7943 13.6904 37.8837 13.6431C37.9739 13.5946 38.0662 13.5708 38.1599 13.5708ZM38.1599 13.6623C38.0815 13.6623 38.0048 13.6824 37.9298 13.7229C37.8551 13.7625 37.797 13.8196 37.7549 13.8944C37.7131 13.9683 37.692 14.0456 37.692 14.1258C37.692 14.206 37.7123 14.2828 37.7532 14.356C37.7949 14.4291 37.8528 14.4865 37.9275 14.5277C38.0015 14.568 38.0787 14.5884 38.1599 14.5884C38.2405 14.5884 38.3184 14.568 38.3923 14.5277C38.4663 14.4865 38.5242 14.4291 38.5653 14.356C38.6066 14.2822 38.6267 14.206 38.6267 14.1258C38.6267 14.0456 38.6058 13.9683 38.5639 13.8944C38.5222 13.8196 38.4641 13.7625 38.389 13.7229C38.3147 13.6826 38.2386 13.6623 38.1599 13.6623ZM37.9144 14.4328V13.8353H38.122C38.1926 13.8353 38.2442 13.8409 38.2755 13.8524C38.3072 13.863 38.3321 13.8822 38.3514 13.9099C38.3704 13.9375 38.38 13.9663 38.38 13.9973C38.38 14.0409 38.364 14.0791 38.3323 14.1113C38.3014 14.1435 38.2597 14.1621 38.2077 14.1655C38.2284 14.1745 38.2456 14.1851 38.2589 14.1971C38.283 14.2208 38.3127 14.2603 38.3479 14.3155L38.4217 14.4326H38.3025L38.2495 14.3386C38.2073 14.2644 38.1734 14.2183 38.1476 14.1995C38.1298 14.1857 38.1038 14.1789 38.0695 14.1789H38.0126V14.433L37.9144 14.4328V14.4328ZM38.0118 14.0966H38.13C38.1865 14.0966 38.2247 14.0882 38.245 14.0716C38.2656 14.0553 38.2763 14.033 38.2763 14.0053C38.2763 13.9876 38.2714 13.9718 38.2616 13.9584C38.2517 13.944 38.2378 13.9338 38.22 13.9266C38.2022 13.9198 38.1703 13.9163 38.1225 13.9163H38.012V14.0966" fill="white"/>
<path d="M16.0313 14.4586L16.1864 13.5674C16.1017 13.5674 15.977 13.5981 15.8671 13.5981C15.4357 13.5981 15.3882 13.404 15.4157 13.2606L15.7641 11.4421H16.4197L16.5779 10.4563H15.9598L16.0857 9.84326H14.8465C14.8192 9.86638 14.1151 13.2911 14.1151 13.7081C14.1151 14.3255 14.5247 14.6004 15.1024 14.596C15.5547 14.5928 15.907 14.4869 16.0313 14.4586Z" fill="white"/>
<path d="M16.4241 12.7593C16.4241 14.241 17.5799 14.5931 18.5646 14.5931C19.4736 14.5931 19.8735 14.4211 19.8735 14.4211L20.0918 13.4099C20.0918 13.4099 19.4004 13.6676 18.776 13.6676C17.4454 13.6676 17.6784 12.8282 17.6784 12.8282H20.1966C20.1966 12.8282 20.3592 12.1488 20.3592 11.872C20.3592 11.1811 19.9528 10.3394 18.5924 10.3394C17.3464 10.3396 16.4241 11.4755 16.4241 12.7593ZM18.5971 11.2784C19.2964 11.2784 19.1674 11.9433 19.1674 11.9971H17.7917C17.7917 11.9284 17.9217 11.2784 18.5971 11.2784Z" fill="white"/>
<path d="M26.4433 14.458L26.665 13.3149C26.665 13.3149 26.057 13.5729 25.6397 13.5729C24.7607 13.5729 24.4082 13.005 24.4082 12.3948C24.4082 11.1571 25.1645 10.4761 26.0064 10.4761C26.6378 10.4761 27.1446 10.7761 27.1446 10.7761L27.3468 9.66549C27.3468 9.66549 26.5954 9.4082 25.9513 9.4082C24.5208 9.4082 23.1292 10.4582 23.1292 12.4303C23.1292 13.7379 23.8806 14.6016 25.3593 14.6016C25.7774 14.6017 26.4433 14.458 26.4433 14.458Z" fill="white"/>
<path d="M9.21582 10.3555C8.36613 10.3555 7.71478 10.5865 7.71478 10.5865L7.53496 11.4898C7.53496 11.4898 8.07257 11.3049 8.88522 11.3049C9.34664 11.3049 9.6842 11.3488 9.6842 11.6661C9.6842 11.8588 9.64283 11.93 9.64283 11.93C9.64283 11.93 9.27886 11.9042 9.11035 11.9042C8.03868 11.9042 6.9129 12.2912 6.9129 13.4579C6.9129 14.3772 7.65147 14.5882 8.10922 14.5882C8.98346 14.5882 9.3603 14.1082 9.3804 14.1067L9.33955 14.5074H10.4306L10.9174 11.6199C10.9174 10.3949 9.65452 10.3555 9.21582 10.3555ZM9.48127 12.7065C9.50491 12.8829 9.35058 13.7096 8.60453 13.7096C8.21968 13.7096 8.11959 13.4609 8.11959 13.3138C8.11959 13.0268 8.30387 12.6823 9.21188 12.6823C9.42308 12.6825 9.44568 12.7016 9.48127 12.7065Z" fill="white"/>
<path d="M12.0773 14.5675C12.3564 14.5675 13.952 14.6275 13.952 13.2343C13.952 11.9319 12.475 12.1892 12.475 11.666C12.475 11.4055 12.7158 11.3234 13.1558 11.3234C13.3305 11.3234 14.0026 11.3704 14.0026 11.3704L14.1589 10.4447C14.1589 10.4448 13.7238 10.3623 13.0156 10.3623C12.0989 10.3623 11.1685 10.6719 11.1685 11.7313C11.1685 12.9317 12.72 12.8112 12.72 13.3169C12.72 13.6545 12.2865 13.6819 11.9525 13.6819C11.3744 13.6819 10.8539 13.5141 10.8521 13.5221L10.6868 14.4385C10.7168 14.4463 11.0378 14.5675 12.0773 14.5675Z" fill="white"/>
<path d="M36.7076 9.5251L36.4403 10.9285C36.4403 10.9285 35.9739 10.3833 35.2438 10.3833C34.1084 10.3833 33.162 11.5416 33.162 12.8725C33.162 13.7316 33.6668 14.5734 34.6987 14.5734C35.4409 14.5734 35.8524 14.1355 35.8524 14.1355L35.7979 14.5094H37.0032L37.9498 9.52344L36.7076 9.5251ZM36.1322 12.2613C36.1322 12.8151 35.8082 13.5549 35.1363 13.5549C34.6904 13.5549 34.4814 13.2381 34.4814 12.741C34.4814 11.9281 34.9129 11.3918 35.4573 11.3918C35.9034 11.3917 36.1322 11.651 36.1322 12.2613Z" fill="white"/>
<path d="M2.50669 14.5186L3.26101 10.7543L3.37174 14.5186H4.2255L5.81808 10.7543L5.11262 14.5186H6.38117L7.35813 9.52588H5.39646L4.1748 12.5892L4.11122 9.52588H2.30297L1.31195 14.5186H2.50669Z" fill="white"/>
<path d="M21.5982 14.5206C21.9589 12.7851 22.0258 11.3759 22.8865 11.6338C23.0371 10.9621 23.1825 10.7023 23.347 10.418C23.347 10.418 23.2699 10.4043 23.1081 10.4043C22.5531 10.4043 22.142 11.0458 22.142 11.0458L22.2525 10.4566H21.0987L20.3257 14.5206H21.5982Z" fill="white"/>
<path d="M29.3027 10.3555C28.453 10.3555 27.8017 10.5865 27.8017 10.5865L27.622 11.4898C27.622 11.4898 28.1596 11.3049 28.9722 11.3049C29.4337 11.3049 29.771 11.3488 29.771 11.6661C29.771 11.8588 29.7298 11.93 29.7298 11.93C29.7298 11.93 29.3659 11.9042 29.1972 11.9042C28.1257 11.9042 26.9999 12.2912 26.9999 13.4579C26.9999 14.3772 27.7384 14.5882 28.1961 14.5882C29.0704 14.5882 29.4472 14.1082 29.4672 14.1067L29.4266 14.5074C29.4266 14.5074 30.5173 14.5074 30.5177 14.5074L31.0043 11.6199C31.0044 10.3949 29.7414 10.3555 29.3027 10.3555ZM29.5685 12.7065C29.5922 12.8829 29.4377 13.7096 28.6914 13.7096C28.3066 13.7096 28.2068 13.4609 28.2068 13.3138C28.2068 13.0268 28.391 12.6823 29.2989 12.6823C29.5101 12.6825 29.5326 12.7016 29.5685 12.7065Z" fill="white"/>
<path d="M32.0017 14.5206C32.3625 12.7851 32.4293 11.3759 33.2898 11.6338C33.4407 10.9621 33.5862 10.7023 33.7506 10.418C33.7506 10.418 33.6735 10.4043 33.5116 10.4043C32.9567 10.4043 32.5456 11.0458 32.5456 11.0458L32.656 10.4566H31.5023L30.7293 14.5206H32.0017Z" fill="white"/>
</g>
<defs>
<clipPath id="clip0">
<rect width="39.464" height="23.3449" fill="white"/>
</clipPath>
</defs>
</svg>
