<svg width="40" height="54" viewBox="0 0 40 54" fill="none" xmlns="http://www.w3.org/2000/svg">
<path d="M27.6924 13.0977H39.0986L27.6924 1.58887V13.0977Z" fill="#464F62"/>
<path d="M38.9744 15.149H25.641V0.6875H0V53.2003H40L38.9744 15.149ZM18.4615 25.4054H21.5385V27.3542H18.4615V25.4054ZM10.7692 19.2516C10.759 19.2468 6.15385 19.0571 6.15385 14.6362C6.15385 12.6341 7.44441 10.9435 9.23077 10.306V6.94391H12.3077V10.306C14.0941 10.9434 15.3846 12.6342 15.3846 14.6362H12.3077C12.3077 13.7874 11.6181 13.0978 10.7692 13.0978C9.92041 13.0978 9.23077 13.7874 9.23077 14.6362C9.23077 15.485 9.92041 16.1747 10.7692 16.1747C10.7795 16.1795 15.3846 16.3691 15.3846 20.7901C15.3846 22.7922 14.0941 24.483 12.3077 25.1203V28.4824H9.23077V25.1203C7.44441 24.4828 6.15385 22.7921 6.15385 20.7901H9.23077C9.23077 21.6389 9.92041 22.3285 10.7692 22.3285C11.6181 22.3285 12.3077 21.6389 12.3077 20.7901C12.3077 19.9412 11.6181 19.2516 10.7692 19.2516ZM33.8462 45.8157H6.15385V43.867H33.8462V45.8157ZM33.8462 39.6619H6.15385V37.7131H33.8462V39.6619ZM33.8462 33.508H6.15385V31.5593H33.8462V33.508ZM33.8462 27.3542H24.6154V25.4054H33.8462V27.3542Z" fill="#464F62"/>
</svg>
