<svg width="90" height="18" viewBox="0 0 90 18" fill="none" xmlns="http://www.w3.org/2000/svg">
<mask id="mask0" mask-type="alpha" maskUnits="userSpaceOnUse" x="2" y="2" width="14" height="14">
<path d="M8.99975 13.1398L12.1122 15.0223C12.6823 15.3673 13.3797 14.8573 13.2297 14.2123L12.4047 10.6723L15.1572 8.28732C15.6597 7.85232 15.3897 7.02732 14.7297 6.97482L11.1072 6.66732L9.68975 3.32232C9.43475 2.71482 8.56475 2.71482 8.30975 3.32232L6.89225 6.65982L3.26975 6.96732C2.60975 7.01982 2.33975 7.84482 2.84225 8.27982L5.59475 10.6648L4.76975 14.2048C4.61975 14.8498 5.31725 15.3598 5.88725 15.0148L8.99975 13.1398Z" fill="white"/>
</mask>
<g mask="url(#mask0)">
<rect width="18" height="18" fill="#FFE457"/>
</g>
<mask id="mask1" mask-type="alpha" maskUnits="userSpaceOnUse" x="20" y="2" width="14" height="14">
<path d="M26.9997 13.1398L30.1122 15.0223C30.6823 15.3673 31.3797 14.8573 31.2297 14.2123L30.4047 10.6723L33.1572 8.28732C33.6597 7.85232 33.3897 7.02732 32.7297 6.97482L29.1072 6.66732L27.6897 3.32232C27.4347 2.71482 26.5647 2.71482 26.3097 3.32232L24.8922 6.65982L21.2697 6.96732C20.6097 7.01982 20.3397 7.84482 20.8422 8.27982L23.5947 10.6648L22.7697 14.2048C22.6197 14.8498 23.3172 15.3598 23.8872 15.0148L26.9997 13.1398Z" fill="white"/>
</mask>
<g mask="url(#mask1)">
<rect x="18" width="18" height="18" fill="#FFE457"/>
</g>
<mask id="mask2" mask-type="alpha" maskUnits="userSpaceOnUse" x="38" y="2" width="14" height="14">
<path d="M44.9997 13.1398L48.1122 15.0223C48.6823 15.3673 49.3797 14.8573 49.2297 14.2123L48.4047 10.6723L51.1572 8.28732C51.6597 7.85232 51.3897 7.02732 50.7297 6.97482L47.1072 6.66732L45.6897 3.32232C45.4347 2.71482 44.5647 2.71482 44.3097 3.32232L42.8922 6.65982L39.2697 6.96732C38.6097 7.01982 38.3397 7.84482 38.8422 8.27982L41.5947 10.6648L40.7697 14.2048C40.6197 14.8498 41.3172 15.3598 41.8872 15.0148L44.9997 13.1398Z" fill="white"/>
</mask>
<g mask="url(#mask2)">
<rect x="36" width="18" height="18" fill="#FFE457"/>
</g>
<mask id="mask3" mask-type="alpha" maskUnits="userSpaceOnUse" x="74" y="2" width="14" height="14">
<path fill-rule="evenodd" clip-rule="evenodd" d="M83.1072 6.65592L86.7372 6.97092C87.3972 7.02342 87.6597 7.84842 87.1572 8.28342L84.4047 10.6684L85.2297 14.2159C85.3797 14.8609 84.6823 15.3709 84.1122 15.0259L80.9997 13.1434L77.8872 15.0184C77.3172 15.3634 76.6197 14.8534 76.7697 14.2084L77.5947 10.6684L74.8422 8.28342C74.3397 7.84842 74.6097 7.02342 75.2697 6.97092L78.8922 6.66342L80.3097 3.31842C80.5647 2.71092 81.4347 2.71092 81.6897 3.31842L83.1072 6.65592ZM78.1798 13.4434L80.9998 11.7409L83.8273 13.4509L83.0773 10.2409L85.5673 8.08089L82.2823 7.79589L80.9998 4.76589L79.7248 7.78839L76.4398 8.07339L78.9298 10.2334L78.1798 13.4434Z" fill="white"/>
</mask>
<g mask="url(#mask3)">
<rect x="72" width="18" height="18" fill="#FFE457"/>
</g>
<mask id="mask4" mask-type="alpha" maskUnits="userSpaceOnUse" x="56" y="2" width="14" height="14">
<path fill-rule="evenodd" clip-rule="evenodd" d="M65.1072 6.65592L68.7372 6.97092C69.3972 7.02342 69.6597 7.84842 69.1572 8.28342L66.4047 10.6684L67.2297 14.2159C67.3797 14.8609 66.6823 15.3709 66.1122 15.0259L62.9997 13.1434L59.8872 15.0184C59.3172 15.3634 58.6197 14.8534 58.7697 14.2084L59.5947 10.6684L56.8422 8.28342C56.3397 7.84842 56.6097 7.02342 57.2697 6.97092L60.8922 6.66342L62.3097 3.31842C62.5647 2.71092 63.4347 2.71092 63.6897 3.31842L65.1072 6.65592ZM62.9997 4.76589V11.7409L65.8272 13.4509L65.0772 10.2409L67.5672 8.08089L64.2822 7.79589L62.9997 4.76589Z" fill="white"/>
</mask>
<g mask="url(#mask4)">
<rect x="54" width="18" height="18" fill="#FFE457"/>
</g>
</svg>
