<svg width="152" height="66" viewBox="0 0 152 66" fill="none" xmlns="http://www.w3.org/2000/svg">
<path fill-rule="evenodd" clip-rule="evenodd" d="M27.5 55C42.6878 55 55 42.6878 55 27.5C55 12.3122 42.6878 0 27.5 0C12.3122 0 0 12.3122 0 27.5C0 42.6878 12.3122 55 27.5 55Z" fill="#24AB42"/>
<path d="M19.7627 39L14.6064 22.1982H14.4746C14.6602 25.6162 14.7529 27.8965 14.7529 29.0391V39H10.6953V17.584H16.877L21.9453 33.9609H22.0332L27.4092 17.584H33.5908V39H29.3574V28.8633C29.3574 28.3848 29.3623 27.833 29.3721 27.208C29.3916 26.583 29.46 24.9229 29.5771 22.2275H29.4453L23.9229 39H19.7627ZM51.3301 39H38.9961V17.584H51.3301V21.3047H43.5371V26.0068H50.7881V29.7275H43.5371V35.25H51.3301V39Z" fill="white"/>
<path d="M74.8115 39H69.04L59.7236 22.7988H59.5918C59.7773 25.6602 59.8701 27.7012 59.8701 28.9219V39H55.8125V17.584H61.54L70.8418 33.624H70.9443C70.7979 30.8408 70.7246 28.873 70.7246 27.7207V17.584H74.8115V39ZM88.4785 39H83.9375V21.3633H78.1221V17.584H94.2939V21.3633H88.4785V39ZM117.028 28.2627C117.028 31.8076 116.149 34.5322 114.392 36.4365C112.634 38.3408 110.114 39.293 106.833 39.293C103.552 39.293 101.032 38.3408 99.2744 36.4365C97.5166 34.5322 96.6377 31.7979 96.6377 28.2334C96.6377 24.6689 97.5166 21.9492 99.2744 20.0742C101.042 18.1895 103.571 17.2471 106.862 17.2471C110.153 17.2471 112.668 18.1943 114.406 20.0889C116.154 21.9834 117.028 24.708 117.028 28.2627ZM101.398 28.2627C101.398 30.6553 101.853 32.457 102.761 33.668C103.669 34.8789 105.026 35.4844 106.833 35.4844C110.456 35.4844 112.268 33.0771 112.268 28.2627C112.268 23.4385 110.466 21.0264 106.862 21.0264C105.056 21.0264 103.693 21.6367 102.775 22.8574C101.857 24.0684 101.398 25.8701 101.398 28.2627ZM126.008 27.0908H127.473C128.908 27.0908 129.968 26.8516 130.651 26.373C131.335 25.8945 131.677 25.1426 131.677 24.1172C131.677 23.1016 131.325 22.3789 130.622 21.9492C129.929 21.5195 128.85 21.3047 127.385 21.3047H126.008V27.0908ZM126.008 30.7822V39H121.467V17.584H127.707C130.617 17.584 132.771 18.1162 134.167 19.1807C135.563 20.2354 136.262 21.8418 136.262 24C136.262 25.2598 135.915 26.3828 135.222 27.3691C134.528 28.3457 133.547 29.1123 132.277 29.6689C135.5 34.4834 137.6 37.5938 138.576 39H133.537L128.425 30.7822H126.008Z" fill="#24AB42"/>
</svg>
