<svg width="283" height="47" viewBox="0 0 283 47" fill="none" xmlns="http://www.w3.org/2000/svg">
<rect width="283" height="47" rx="4" fill="#FF9500"/>
<path d="M101.367 26.3633H96.7441L95.8652 29H93.0615L97.8252 16.2031H100.269L105.059 29H102.255L101.367 26.3633ZM97.4561 24.2275H100.655L99.0469 19.4375L97.4561 24.2275ZM105.691 24.1748C105.691 22.6924 106.022 21.5117 106.685 20.6328C107.353 19.7539 108.264 19.3145 109.418 19.3145C110.344 19.3145 111.108 19.6602 111.712 20.3516V15.5H114.261V29H111.967L111.844 27.9893C111.211 28.7803 110.396 29.1758 109.4 29.1758C108.281 29.1758 107.382 28.7363 106.702 27.8574C106.028 26.9727 105.691 25.7451 105.691 24.1748ZM108.231 24.3594C108.231 25.25 108.387 25.9326 108.697 26.4072C109.008 26.8818 109.459 27.1191 110.051 27.1191C110.836 27.1191 111.39 26.7881 111.712 26.126V22.373C111.396 21.7109 110.848 21.3799 110.068 21.3799C108.844 21.3799 108.231 22.373 108.231 24.3594ZM115.834 24.1748C115.834 22.6924 116.165 21.5117 116.827 20.6328C117.495 19.7539 118.406 19.3145 119.561 19.3145C120.486 19.3145 121.251 19.6602 121.854 20.3516V15.5H124.403V29H122.109L121.986 27.9893C121.354 28.7803 120.539 29.1758 119.543 29.1758C118.424 29.1758 117.524 28.7363 116.845 27.8574C116.171 26.9727 115.834 25.7451 115.834 24.1748ZM118.374 24.3594C118.374 25.25 118.529 25.9326 118.84 26.4072C119.15 26.8818 119.602 27.1191 120.193 27.1191C120.979 27.1191 121.532 26.7881 121.854 26.126V22.373C121.538 21.7109 120.99 21.3799 120.211 21.3799C118.986 21.3799 118.374 22.373 118.374 24.3594ZM133.896 17.1523V19.4902H135.521V21.3535H133.896V26.0996C133.896 26.4512 133.963 26.7031 134.098 26.8555C134.232 27.0078 134.49 27.084 134.871 27.084C135.152 27.084 135.401 27.0635 135.618 27.0225V28.9473C135.12 29.0996 134.607 29.1758 134.08 29.1758C132.299 29.1758 131.391 28.2764 131.355 26.4775V21.3535H129.967V19.4902H131.355V17.1523H133.896ZM136.277 24.1572C136.277 23.2139 136.459 22.373 136.822 21.6348C137.186 20.8965 137.707 20.3252 138.387 19.9209C139.072 19.5166 139.866 19.3145 140.769 19.3145C142.052 19.3145 143.098 19.707 143.906 20.4922C144.721 21.2773 145.175 22.3438 145.269 23.6914L145.286 24.3418C145.286 25.8008 144.879 26.9727 144.064 27.8574C143.25 28.7363 142.157 29.1758 140.786 29.1758C139.415 29.1758 138.319 28.7363 137.499 27.8574C136.685 26.9785 136.277 25.7832 136.277 24.2715V24.1572ZM138.817 24.3418C138.817 25.2441 138.987 25.9355 139.327 26.416C139.667 26.8906 140.153 27.1279 140.786 27.1279C141.401 27.1279 141.882 26.8936 142.228 26.4248C142.573 25.9502 142.746 25.1943 142.746 24.1572C142.746 23.2725 142.573 22.5869 142.228 22.1006C141.882 21.6143 141.396 21.3711 140.769 21.3711C140.147 21.3711 139.667 21.6143 139.327 22.1006C138.987 22.5811 138.817 23.3281 138.817 24.3418ZM155.288 27.1279C155.757 27.1279 156.138 26.999 156.431 26.7412C156.724 26.4834 156.876 26.1406 156.888 25.7129H159.27C159.264 26.3574 159.088 26.9492 158.742 27.4883C158.396 28.0215 157.922 28.4375 157.318 28.7363C156.721 29.0293 156.059 29.1758 155.332 29.1758C153.973 29.1758 152.9 28.7451 152.115 27.8838C151.33 27.0166 150.938 25.8213 150.938 24.2979V24.1309C150.938 22.666 151.327 21.4971 152.106 20.624C152.886 19.751 153.955 19.3145 155.314 19.3145C156.504 19.3145 157.456 19.6543 158.171 20.334C158.892 21.0078 159.258 21.9072 159.27 23.0322H156.888C156.876 22.54 156.724 22.1416 156.431 21.8369C156.138 21.5264 155.751 21.3711 155.271 21.3711C154.679 21.3711 154.23 21.5879 153.926 22.0215C153.627 22.4492 153.478 23.1465 153.478 24.1133V24.377C153.478 25.3555 153.627 26.0586 153.926 26.4863C154.225 26.9141 154.679 27.1279 155.288 27.1279ZM166.23 29C166.113 28.7715 166.028 28.4873 165.976 28.1475C165.36 28.833 164.561 29.1758 163.576 29.1758C162.645 29.1758 161.871 28.9062 161.256 28.3672C160.646 27.8281 160.342 27.1484 160.342 26.3281C160.342 25.3203 160.714 24.5469 161.458 24.0078C162.208 23.4688 163.289 23.1963 164.701 23.1904H165.87V22.6455C165.87 22.2061 165.756 21.8545 165.527 21.5908C165.305 21.3271 164.95 21.1953 164.464 21.1953C164.036 21.1953 163.699 21.2979 163.453 21.5029C163.213 21.708 163.093 21.9893 163.093 22.3467H160.553C160.553 21.7959 160.723 21.2861 161.062 20.8174C161.402 20.3486 161.883 19.9824 162.504 19.7188C163.125 19.4492 163.822 19.3145 164.596 19.3145C165.768 19.3145 166.696 19.6104 167.382 20.2021C168.073 20.7881 168.419 21.6143 168.419 22.6807V26.8027C168.425 27.7051 168.551 28.3877 168.797 28.8506V29H166.23ZM164.13 27.2334C164.505 27.2334 164.851 27.1514 165.167 26.9873C165.483 26.8174 165.718 26.5918 165.87 26.3105V24.6758H164.921C163.649 24.6758 162.973 25.1152 162.891 25.9941L162.882 26.1436C162.882 26.46 162.993 26.7207 163.216 26.9258C163.438 27.1309 163.743 27.2334 164.13 27.2334ZM175.714 21.8721C175.368 21.8252 175.063 21.8018 174.8 21.8018C173.839 21.8018 173.209 22.127 172.91 22.7773V29H170.37V19.4902H172.77L172.84 20.624C173.35 19.751 174.056 19.3145 174.958 19.3145C175.239 19.3145 175.503 19.3525 175.749 19.4287L175.714 21.8721ZM180.425 17.1523V19.4902H182.051V21.3535H180.425V26.0996C180.425 26.4512 180.492 26.7031 180.627 26.8555C180.762 27.0078 181.02 27.084 181.4 27.084C181.682 27.084 181.931 27.0635 182.147 27.0225V28.9473C181.649 29.0996 181.137 29.1758 180.609 29.1758C178.828 29.1758 177.92 28.2764 177.885 26.4775V21.3535H176.496V19.4902H177.885V17.1523H180.425Z" fill="white"/>
</svg>
