<svg width="120" height="24" viewBox="0 0 120 24" fill="none" xmlns="http://www.w3.org/2000/svg">
<mask id="mask0" mask-type="alpha" maskUnits="userSpaceOnUse" x="3" y="3" width="18" height="18">
<path d="M12 17.5198L16.15 20.0298C16.91 20.4898 17.84 19.8098 17.64 18.9498L16.54 14.2298L20.21 11.0498C20.88 10.4698 20.5199 9.36977 19.6399 9.29977L14.81 8.88977L12.92 4.42977C12.58 3.61977 11.42 3.61977 11.08 4.42977L9.18995 8.87977L4.35995 9.28977C3.47995 9.35977 3.11995 10.4598 3.78995 11.0398L7.45995 14.2198L6.35995 18.9398C6.15995 19.7998 7.08995 20.4798 7.84995 20.0198L12 17.5198Z" fill="white"/>
</mask>
<g mask="url(#mask0)">
<rect width="24" height="24" fill="#FFE457"/>
</g>
<mask id="mask1" mask-type="alpha" maskUnits="userSpaceOnUse" x="27" y="3" width="18" height="18">
<path d="M36 17.5198L40.15 20.0298C40.91 20.4898 41.84 19.8098 41.64 18.9498L40.54 14.2298L44.21 11.0498C44.88 10.4698 44.5199 9.36977 43.6399 9.29977L38.81 8.88977L36.92 4.42977C36.58 3.61977 35.42 3.61977 35.08 4.42977L33.19 8.87977L28.36 9.28977C27.48 9.35977 27.12 10.4598 27.79 11.0398L31.46 14.2198L30.36 18.9398C30.16 19.7998 31.09 20.4798 31.85 20.0198L36 17.5198Z" fill="white"/>
</mask>
<g mask="url(#mask1)">
<rect x="24" width="24" height="24" fill="#FFE457"/>
</g>
<mask id="mask2" mask-type="alpha" maskUnits="userSpaceOnUse" x="51" y="3" width="18" height="18">
<path d="M60 17.5198L64.15 20.0298C64.91 20.4898 65.84 19.8098 65.64 18.9498L64.54 14.2298L68.21 11.0498C68.88 10.4698 68.5199 9.36977 67.6399 9.29977L62.81 8.88977L60.92 4.42977C60.58 3.61977 59.42 3.61977 59.08 4.42977L57.19 8.87977L52.36 9.28977C51.48 9.35977 51.12 10.4598 51.79 11.0398L55.46 14.2198L54.36 18.9398C54.16 19.7998 55.09 20.4798 55.85 20.0198L60 17.5198Z" fill="white"/>
</mask>
<g mask="url(#mask2)">
<rect x="48" width="24" height="24" fill="#FFE457"/>
</g>
<mask id="mask3" mask-type="alpha" maskUnits="userSpaceOnUse" x="99" y="3" width="18" height="18">
<path fill-rule="evenodd" clip-rule="evenodd" d="M110.808 8.87439L115.648 9.29439C116.528 9.36439 116.878 10.4644 116.208 11.0444L112.538 14.2244L113.638 18.9544C113.838 19.8144 112.908 20.4944 112.148 20.0344L107.998 17.5244L103.848 20.0244C103.088 20.4844 102.158 19.8044 102.358 18.9444L103.458 14.2244L99.7885 11.0444C99.1185 10.4644 99.4785 9.36439 100.358 9.29439L105.188 8.88439L107.078 4.42439C107.418 3.61439 108.578 3.61439 108.918 4.42439L110.808 8.87439ZM104.238 17.9244L107.998 15.6544L111.768 17.9344L110.768 13.6544L114.088 10.7744L109.708 10.3944L107.998 6.35439L106.298 10.3844L101.918 10.7644L105.238 13.6444L104.238 17.9244Z" fill="white"/>
</mask>
<g mask="url(#mask3)">
<rect x="96" width="24" height="24" fill="#FFE457"/>
</g>
<mask id="mask4" mask-type="alpha" maskUnits="userSpaceOnUse" x="75" y="3" width="18" height="18">
<path fill-rule="evenodd" clip-rule="evenodd" d="M86.8085 8.87439L91.6485 9.29439C92.5285 9.36439 92.8785 10.4644 92.2085 11.0444L88.5385 14.2244L89.6385 18.9544C89.8385 19.8144 88.9085 20.4944 88.1485 20.0344L83.9985 17.5244L79.8485 20.0244C79.0885 20.4844 78.1585 19.8044 78.3585 18.9444L79.4585 14.2244L75.7885 11.0444C75.1185 10.4644 75.4785 9.36439 76.3585 9.29439L81.1885 8.88439L83.0785 4.42439C83.4185 3.61439 84.5785 3.61439 84.9185 4.42439L86.8085 8.87439ZM83.9985 6.35439V15.6544L87.7685 17.9344L86.7685 13.6544L90.0885 10.7744L85.7085 10.3944L83.9985 6.35439Z" fill="white"/>
</mask>
<g mask="url(#mask4)">
<rect x="72" width="24" height="24" fill="#FFE457"/>
</g>
</svg>
