<svg width="23" height="23" viewBox="0 0 23 23" fill="none" xmlns="http://www.w3.org/2000/svg">
<g id="maps/local_phone_24px">
<mask id="mask0" mask-type="alpha" maskUnits="userSpaceOnUse" x="2" y="2" width="19" height="19">
<path id="icon/maps/local_phone_24px" d="M18.4211 14.6322L15.9869 14.3542C15.4023 14.2872 14.8273 14.4884 14.4153 14.9005L12.6519 16.6638C9.93985 15.2838 7.71652 13.0701 6.33652 10.3484L8.10943 8.57549C8.52152 8.16341 8.72277 7.58841 8.65568 7.00383L8.37777 4.58883C8.26277 3.62091 7.44818 2.89258 6.47068 2.89258H4.81277C3.72985 2.89258 2.82902 3.79341 2.8961 4.87633C3.40402 13.0605 9.94943 19.5963 18.124 20.1042C19.2069 20.1713 20.1078 19.2705 20.1078 18.1876V16.5297C20.1173 15.5617 19.389 14.7472 18.4211 14.6322Z" fill="white"/>
</mask>
<g mask="url(#mask0)">
<g id="&#240;&#159;&#142;&#168; Fill">
<rect id="&#240;&#159;&#142;&#168; Fill_2" width="23" height="23" fill="#5A5A5A"/>
</g>
</g>
</g>
</svg>
