<svg width="61" height="61" viewBox="0 0 61 61" fill="none" xmlns="http://www.w3.org/2000/svg">
<g id="action/assignment_24px">
<mask id="mask0" mask-type="alpha" maskUnits="userSpaceOnUse" x="7" y="5" width="47" height="51">
<path id="icon/action/assignment_24px" fill-rule="evenodd" clip-rule="evenodd" d="M48.2917 10.1668H37.6675C36.6 7.2185 33.8042 5.0835 30.5 5.0835C27.1958 5.0835 24.4 7.2185 23.3325 10.1668H12.7083C9.9125 10.1668 7.625 12.4543 7.625 15.2502V50.8335C7.625 53.6293 9.9125 55.9168 12.7083 55.9168H48.2917C51.0875 55.9168 53.375 53.6293 53.375 50.8335V15.2502C53.375 12.4543 51.0875 10.1668 48.2917 10.1668ZM30.5 10.1668C31.8979 10.1668 33.0416 11.3106 33.0416 12.7085C33.0416 14.1064 31.8979 15.2502 30.5 15.2502C29.1021 15.2502 27.9583 14.1064 27.9583 12.7085C27.9583 11.3106 29.1021 10.1668 30.5 10.1668ZM20.3334 45.7502H33.0417C34.4396 45.7502 35.5834 44.6064 35.5834 43.2085C35.5834 41.8106 34.4396 40.6668 33.0417 40.6668H20.3334C18.9354 40.6668 17.7917 41.8106 17.7917 43.2085C17.7917 44.6064 18.9354 45.7502 20.3334 45.7502ZM40.6667 35.5835H20.3334C18.9354 35.5835 17.7917 34.4397 17.7917 33.0418C17.7917 31.6439 18.9354 30.5001 20.3334 30.5001H40.6667C42.0646 30.5001 43.2084 31.6439 43.2084 33.0418C43.2084 34.4397 42.0646 35.5835 40.6667 35.5835ZM20.3334 25.4168H40.6667C42.0646 25.4168 43.2084 24.2731 43.2084 22.8752C43.2084 21.4772 42.0646 20.3335 40.6667 20.3335H20.3334C18.9354 20.3335 17.7917 21.4772 17.7917 22.8752C17.7917 24.2731 18.9354 25.4168 20.3334 25.4168Z" fill="white"/>
</mask>
<g mask="url(#mask0)">
<g id="&#240;&#159;&#142;&#168; Fill">
<rect id="&#240;&#159;&#142;&#168; Fill_2" width="252" height="61" fill="#464F62"/>
</g>
</g>
</g>
</svg>
