<svg width="20" height="20" viewBox="0 0 20 20" fill="none" xmlns="http://www.w3.org/2000/svg">
<g id="social/person_add_24px">
<mask id="mask0" mask-type="alpha" maskUnits="userSpaceOnUse" x="0" y="3" width="20" height="14">
<path id="icon/social/person_add_24px" fill-rule="evenodd" clip-rule="evenodd" d="M12.5009 10.0002C14.3425 10.0002 15.8342 8.50849 15.8342 6.66683C15.8342 4.82516 14.3425 3.3335 12.5009 3.3335C10.6592 3.3335 9.16754 4.82516 9.16754 6.66683C9.16754 8.50849 10.6592 10.0002 12.5009 10.0002ZM5.00065 8.33349V6.66683C5.00065 6.20849 4.62565 5.83349 4.16732 5.83349C3.70898 5.83349 3.33398 6.20849 3.33398 6.66683V8.33349H1.66732C1.20898 8.33349 0.833984 8.70849 0.833984 9.16683C0.833984 9.62516 1.20898 10.0002 1.66732 10.0002H3.33398V11.6668C3.33398 12.1252 3.70898 12.5002 4.16732 12.5002C4.62565 12.5002 5.00065 12.1252 5.00065 11.6668V10.0002H6.66732C7.12565 10.0002 7.50065 9.62516 7.50065 9.16683C7.50065 8.70849 7.12565 8.33349 6.66732 8.33349H5.00065ZM5.83398 15.0002C5.83398 12.7835 10.2757 11.6669 12.5007 11.6669C14.7257 11.6669 19.1673 12.7835 19.1673 15.0002V15.8335C19.1673 16.2919 18.7923 16.6669 18.334 16.6669H6.66732C6.20898 16.6669 5.83398 16.2919 5.83398 15.8335V15.0002Z" fill="white"/>
</mask>
<g mask="url(#mask0)">
<g id="&#240;&#159;&#142;&#168; Fill">
<rect id="&#240;&#159;&#142;&#168; Fill_2" width="31" height="20" fill="#324F64"/>
</g>
</g>
</g>
</svg>
