<svg width="24" height="30" viewBox="0 0 24 30" fill="none" xmlns="http://www.w3.org/2000/svg">
<mask id="mask0" mask-type="alpha" maskUnits="userSpaceOnUse" x="4" y="5" width="20" height="20">
<path fill-rule="evenodd" clip-rule="evenodd" d="M18.666 10C18.666 12.7625 16.5777 15 13.9993 15C11.421 15 9.33268 12.7625 9.33268 10C9.33268 7.2375 11.421 5 13.9993 5C16.5777 5 18.666 7.2375 18.666 10ZM4.66602 22.5C4.66602 19.175 10.8843 17.5 13.9993 17.5C17.1143 17.5 23.3327 19.175 23.3327 22.5V23.75C23.3327 24.4375 22.8077 25 22.166 25H5.83268C5.19102 25 4.66602 24.4375 4.66602 23.75V22.5Z" fill="white"/>
</mask>
<g mask="url(#mask0)">
<rect width="28" height="30" fill="#5A5A5A"/>
</g>
</svg>
