<svg width="64" height="64" viewBox="0 0 64 64" fill="none" xmlns="http://www.w3.org/2000/svg">
<path d="M31 30.5C35.9706 30.5 40 26.4706 40 21.5C40 16.5294 35.9706 12.5 31 12.5C26.0294 12.5 22 16.5294 22 21.5C22 26.4706 26.0294 30.5 31 30.5Z" fill="#FF9500"/>
<path d="M53 30.5C57.9706 30.5 62 26.4706 62 21.5C62 16.5294 57.9706 12.5 53 12.5C48.0294 12.5 44 16.5294 44 21.5C44 26.4706 48.0294 30.5 53 30.5Z" fill="#FF9500"/>
<path d="M59.948 32.5001H46.048C45.6235 32.4962 45.2029 32.5818 44.8137 32.7512C44.4245 32.9207 44.0753 33.1703 43.789 33.4837C43.5026 33.7971 43.2855 34.1673 43.1518 34.5702C43.0181 34.9731 42.9708 35.3997 43.013 35.8221L45.651 59.8221C45.7372 60.5649 46.0952 61.2495 46.6562 61.744C47.2171 62.2385 47.9412 62.5078 48.689 62.5001H57.31C58.0571 62.5069 58.7804 62.2371 59.3407 61.7427C59.9009 61.2484 60.2586 60.5643 60.345 59.8221L62.982 35.8221C63.0241 35.3998 62.9768 34.9733 62.8432 34.5705C62.7096 34.1676 62.4926 33.7974 62.2063 33.484C61.9201 33.1707 61.5711 32.9211 61.182 32.7515C60.7929 32.582 60.3724 32.4963 59.948 32.5001Z" fill="#FF9500"/>
<path d="M37.948 32.5001H24.048C23.6235 32.4962 23.2029 32.5818 22.8137 32.7512C22.4245 32.9207 22.0753 33.1703 21.789 33.4837C21.5026 33.7971 21.2855 34.1673 21.1518 34.5702C21.0181 34.9731 20.9708 35.3997 21.013 35.8221L23.651 59.8221C23.7374 60.5648 24.0955 61.2493 24.6564 61.7437C25.2173 62.2382 25.9413 62.5076 26.689 62.5001H35.31C36.0572 62.5069 36.7804 62.2371 37.3407 61.7427C37.901 61.2484 38.2587 60.5643 38.345 59.8221L40.982 35.8221C41.0241 35.3998 40.9769 34.9733 40.8432 34.5705C40.7096 34.1676 40.4926 33.7974 40.2063 33.4841C39.9201 33.1707 39.5711 32.9211 39.182 32.7515C38.7929 32.582 38.3724 32.4963 37.948 32.5001Z" fill="#FF9500"/>
<path d="M20 33.5C23.1645 33.5 26.2579 32.5616 28.8891 30.8035C31.5203 29.0454 33.5711 26.5466 34.7821 23.6229C35.9931 20.6993 36.3099 17.4823 35.6926 14.3786C35.0752 11.2749 33.5513 8.42394 31.3137 6.1863C29.0761 3.94866 26.2251 2.42481 23.1214 1.80744C20.0177 1.19008 16.8007 1.50693 13.8771 2.71793C10.9534 3.92894 8.45459 5.9797 6.69649 8.61088C4.93838 11.2421 4 14.3355 4 17.5C4.00503 21.7419 5.69235 25.8087 8.69184 28.8082C11.6913 31.8077 15.7581 33.495 20 33.5ZM20 3.50001C22.7689 3.50001 25.4757 4.32109 27.778 5.85943C30.0803 7.39777 31.8747 9.58427 32.9343 12.1424C33.9939 14.7006 34.2712 17.5155 33.731 20.2313C33.1908 22.947 31.8574 25.4416 29.8995 27.3995C27.9416 29.3574 25.447 30.6908 22.7313 31.231C20.0155 31.7712 17.2006 31.4939 14.6424 30.4343C12.0843 29.3747 9.89777 27.5803 8.35943 25.278C6.82109 22.9757 6 20.2689 6 17.5C6.00397 13.7882 7.48024 10.2295 10.1049 7.6049C12.7295 4.98025 16.2882 3.50398 20 3.50001Z" fill="#151A6A"/>
<path d="M36.949 39.1003L26.625 35.6543C26.323 35.5356 25.999 35.4831 25.675 35.5003H14.325C14.0011 35.485 13.6775 35.5375 13.375 35.6543L3.051 39.1003C2.45454 39.2991 1.93565 39.6804 1.56762 40.1902C1.19959 40.7 1.00104 41.3125 1 41.9413V48.5003C1 49.2959 1.31607 50.059 1.87868 50.6216C2.44129 51.1842 3.20435 51.5003 4 51.5003H36C36.7957 51.5003 37.5587 51.1842 38.1213 50.6216C38.6839 50.059 39 49.2959 39 48.5003V41.9413C38.999 41.3125 38.8004 40.7 38.4324 40.1902C38.0644 39.6804 37.5455 39.2991 36.949 39.1003ZM23.826 37.5003L20 41.9643L16.174 37.5003H23.826ZM3 48.5003V41.9413C2.99995 41.7313 3.06599 41.5266 3.18876 41.3563C3.31153 41.186 3.48479 41.0586 3.684 40.9923L13.678 37.6613L19 43.8703V49.5003H4C3.73478 49.5003 3.48043 49.3949 3.29289 49.2074C3.10536 49.0198 3 48.7655 3 48.5003ZM37 48.5003C37 48.7655 36.8946 49.0198 36.7071 49.2074C36.5196 49.3949 36.2652 49.5003 36 49.5003H21V43.8703L26.322 37.6613L36.316 40.9923C36.5152 41.0586 36.6885 41.186 36.8112 41.3563C36.934 41.5266 37 41.7313 37 41.9413V48.5003Z" fill="#151A6A"/>
</svg>
