<svg width="63" height="63" viewBox="0 0 63 63" fill="none" xmlns="http://www.w3.org/2000/svg">
<path d="M26.0859 37.4062C26.0877 35.0982 26.2736 32.794 26.6421 30.5156H13.294C11.9749 35.0147 11.9749 39.7978 13.294 44.2969H26.6421C26.2736 42.0185 26.0877 39.7143 26.0859 37.4062Z" fill="#FF9500"/>
<path d="M44.8124 28.5469C43.5663 22.7866 40.9924 17.3968 37.2957 12.8067C37.1677 12.8067 37.0417 12.7969 36.9138 12.7969C36.7858 12.7969 36.6598 12.8048 36.5318 12.8067C32.8342 17.3962 30.2602 22.7862 29.0151 28.5469H44.8124Z" fill="#FF9500"/>
<path d="M60.5391 44.2969C61.8581 39.7978 61.8581 35.0147 60.5391 30.5156H47.186C47.9276 35.0794 47.9276 39.7331 47.186 44.2969H60.5391Z" fill="#FF9500"/>
<path d="M29.0151 46.2656C30.2604 52.0262 32.8343 57.4162 36.5318 62.0058C36.6598 62.0058 36.7858 62.0156 36.9138 62.0156C37.0417 62.0156 37.1667 62.0078 37.2937 62.0058C40.9888 57.4146 43.5628 52.0253 44.8114 46.2656H29.0151Z" fill="#FF9500"/>
<path d="M45.1995 30.5156H28.6286C27.8634 35.0775 27.8634 39.735 28.6286 44.2969H45.1986C45.5823 42.0201 45.7745 39.7151 45.7734 37.4062C45.7744 35.0974 45.5824 32.7925 45.1995 30.5156Z" fill="#FF9500"/>
<path d="M27.0054 46.2656H13.9614C15.5707 50.4159 18.273 54.0534 21.7818 56.7924C25.2907 59.5314 29.4753 61.27 33.8921 61.8237C30.5087 57.1908 28.1601 51.885 27.0054 46.2656Z" fill="#FF9500"/>
<path d="M46.8228 28.5468H59.8667C58.2564 24.3967 55.5531 20.7598 52.0434 18.0216C48.5336 15.2834 44.3483 13.546 39.9312 12.9937C43.315 17.625 45.6652 22.9289 46.8228 28.5468Z" fill="#FF9500"/>
<path d="M46.8228 46.2656C45.6657 51.885 43.3159 57.1905 39.9321 61.8237C44.3496 61.2707 48.5351 59.5326 52.0447 56.7935C55.5544 54.0544 58.2572 50.4165 59.8667 46.2656H46.8228Z" fill="#FF9500"/>
<path d="M27.0054 28.5468C28.162 22.9288 30.5119 17.6248 33.896 12.9937C29.4791 13.5462 25.294 15.2837 21.7845 18.0219C18.2749 20.7601 15.5717 24.3969 13.9614 28.5468H27.0054Z" fill="#FF9500"/>
<path d="M1.47656 15.75V43.3125C1.47656 44.0957 1.78769 44.8469 2.34151 45.4007C2.89533 45.9545 3.64647 46.2656 4.42969 46.2656H19.1953C19.4564 46.2656 19.7068 46.3694 19.8914 46.554C20.076 46.7386 20.1797 46.989 20.1797 47.25C20.1797 48.0332 20.4908 48.7844 21.0446 49.3382C21.5985 49.892 22.3496 50.2031 23.1328 50.2031H27.0703C27.8535 50.2031 28.6047 49.892 29.1585 49.3382C29.7123 48.7844 30.0234 48.0332 30.0234 47.25C30.0234 46.989 30.1271 46.7386 30.3118 46.554C30.4964 46.3694 30.7467 46.2656 31.0078 46.2656H45.7734C46.5567 46.2656 47.3078 45.9545 47.8616 45.4007C48.4154 44.8469 48.7266 44.0957 48.7266 43.3125V15.75C48.7266 14.9668 48.4154 14.2157 47.8616 13.6619C47.3078 13.108 46.5567 12.7969 45.7734 12.7969H43.8047V5.55683C43.8073 5.13919 43.7217 4.7257 43.5535 4.34343C43.3853 3.96116 43.1382 3.61873 42.8285 3.33855C42.5188 3.05838 42.1534 2.84677 41.7562 2.71759C41.359 2.58841 40.939 2.54457 40.5238 2.58894L25.1872 4.32144L14.1041 1.10155C13.4112 0.898345 12.6674 0.959884 12.0173 1.27421C11.3672 1.58854 10.8571 2.13324 10.586 2.80255L8.69498 2.58894C8.2797 2.54457 7.85973 2.58841 7.46256 2.71759C7.06539 2.84677 6.69998 3.05838 6.39026 3.33855C6.08053 3.61873 5.83347 3.96116 5.66524 4.34343C5.49702 4.7257 5.41142 5.13919 5.41406 5.55683V12.7969H4.42969C3.64647 12.7969 2.89533 13.108 2.34151 13.6619C1.78769 14.2157 1.47656 14.9668 1.47656 15.75ZM10.3359 4.75555V34.8469C10.3357 35.4918 10.5437 36.1195 10.9289 36.6367C11.3141 37.1539 11.856 37.5329 12.474 37.7173L18.1853 39.375H8.36719C8.10192 39.3704 7.84933 39.2607 7.6648 39.0701C7.48027 38.8795 7.37886 38.6234 7.38281 38.3582V5.55683C7.37995 5.41634 7.40685 5.27684 7.46173 5.14749C7.51661 5.01813 7.59823 4.90185 7.70124 4.80628C7.80425 4.71071 7.92631 4.63802 8.05941 4.59297C8.1925 4.54791 8.33362 4.53153 8.4735 4.54489L10.3359 4.75555ZM24.1172 6.06083V39.0472L13.0223 35.8244C12.8125 35.7596 12.6293 35.6288 12.5 35.4514C12.3706 35.274 12.3021 35.0595 12.3047 34.84V3.97198C12.3003 3.81732 12.3322 3.66378 12.3979 3.52366C12.4635 3.38354 12.561 3.26072 12.6826 3.16505C12.8042 3.06938 12.9465 3.0035 13.0982 2.97268C13.2498 2.94187 13.4065 2.94698 13.5558 2.98761L24.1172 6.06083ZM41.8359 38.3572C41.8402 38.6226 41.7389 38.8789 41.5543 39.0697C41.3697 39.2606 41.117 39.3704 40.8516 39.375H26.0859V6.20159L40.7452 4.54489C40.8851 4.53153 41.0262 4.54791 41.1593 4.59297C41.2924 4.63802 41.4145 4.71071 41.5175 4.80628C41.6205 4.90185 41.7021 5.01813 41.757 5.14749C41.8119 5.27684 41.8388 5.41634 41.8359 5.55683V38.3572ZM3.44531 15.75C3.44531 15.489 3.54902 15.2386 3.73363 15.054C3.91824 14.8694 4.16862 14.7657 4.42969 14.7657H5.41406V38.3572C5.41039 39.1446 5.71928 39.9013 6.27294 40.4612C6.82659 41.0212 7.57977 41.3386 8.36719 41.3438C38.9163 41.2532 27.2997 41.2453 40.8516 41.3438C41.6388 41.3386 42.3918 41.0213 42.9455 40.4616C43.4991 39.9019 43.8081 39.1454 43.8047 38.3582V14.7657H45.7734C46.0345 14.7657 46.2849 14.8694 46.4695 15.054C46.6541 15.2386 46.7578 15.489 46.7578 15.75V43.3125C46.7578 43.5736 46.6541 43.824 46.4695 44.0086C46.2849 44.1932 46.0345 44.2969 45.7734 44.2969H31.0078C30.2246 44.2969 29.4735 44.608 28.9196 45.1618C28.3658 45.7157 28.0547 46.4668 28.0547 47.25C28.0547 47.5111 27.951 47.7615 27.7664 47.9461C27.5818 48.1307 27.3314 48.2344 27.0703 48.2344H23.1328C22.8717 48.2344 22.6214 48.1307 22.4368 47.9461C22.2521 47.7615 22.1484 47.5111 22.1484 47.25C22.1484 46.4668 21.8373 45.7157 21.2835 45.1618C20.7297 44.608 19.9785 44.2969 19.1953 44.2969H4.42969C4.16862 44.2969 3.91824 44.1932 3.73363 44.0086C3.54902 43.824 3.44531 43.5736 3.44531 43.3125V15.75Z" fill="#464F62"/>
</svg>
