<svg width="15" height="15" viewBox="0 0 15 15" fill="none" xmlns="http://www.w3.org/2000/svg">
<path fill-rule="evenodd" clip-rule="evenodd" d="M11.4459 10.5612L14.8163 13.9316C15.0612 14.1765 15.0612 14.5714 14.8163 14.8163C14.5714 15.0612 14.1765 15.0612 13.9316 14.8163L10.5612 11.449C9.4102 12.401 7.97449 12.9184 6.45918 12.9184C4.73265 12.9184 3.1102 12.2449 1.89184 11.0265C0.670408 9.8051 0 8.18265 0 6.45918C0 4.73265 0.670408 3.1102 1.89184 1.89184C3.11327 0.670408 4.73571 0 6.45918 0C8.18265 0 9.8051 0.670408 11.0235 1.89184C12.2449 3.11327 12.9153 4.73265 12.9153 6.45918C12.9153 7.97143 12.398 9.40714 11.4459 10.5612ZM1.24898 6.45918C1.24898 7.84898 1.79082 9.15612 2.77653 10.1388C3.75918 11.1245 5.06633 11.6663 6.45612 11.6663C7.84592 11.6663 9.15612 11.1245 10.1388 10.1418C11.1214 9.15918 11.6633 7.84898 11.6633 6.45918C11.6633 5.06633 11.1214 3.75918 10.1388 2.77653C9.15612 1.79388 7.84592 1.25204 6.45612 1.25204C5.06327 1.25204 3.75612 1.79388 2.77347 2.77653C1.79082 3.75918 1.24898 5.06939 1.24898 6.45918Z" fill="#8193AE"/>
</svg>
