<svg width="61" height="61" viewBox="0 0 61 61" fill="none" xmlns="http://www.w3.org/2000/svg">
<g id="action/supervisor_account_24px">
<mask id="mask0" mask-type="alpha" maskUnits="userSpaceOnUse" x="5" y="12" width="51" height="37">
<path id="icon/action/supervisor_account_24px" fill-rule="evenodd" clip-rule="evenodd" d="M30.4743 20.3335C30.4743 24.5527 27.0939 27.9585 22.8747 27.9585C18.6556 27.9585 15.2497 24.5527 15.2497 20.3335C15.2497 16.1143 18.6556 12.7085 22.8747 12.7085C27.0939 12.7085 30.4743 16.1143 30.4743 20.3335ZM48.2659 24.146C48.2659 27.6535 45.4447 30.5002 41.9372 30.5002C38.4297 30.5002 35.583 27.6535 35.583 24.146C35.583 20.6385 38.4297 17.7918 41.9372 17.7918C45.4447 17.7918 48.2659 20.6385 48.2659 24.146ZM41.9372 35.5835C37.2859 35.5835 27.958 37.9218 27.958 42.5731V45.7502C27.958 47.1481 29.1018 48.2918 30.4997 48.2918H53.3747C54.7726 48.2918 55.9163 47.1481 55.9163 45.7502V42.5731C55.9163 37.9218 46.5884 35.5835 41.9372 35.5835ZM5.08301 41.9377C5.08301 36.0156 16.9526 33.0419 22.8747 33.0419C24.5522 33.0419 26.6872 33.296 28.8984 33.7535C23.7134 36.6256 22.8747 40.4127 22.8747 42.5731V48.2919H7.62467C6.22676 48.2919 5.08301 47.1481 5.08301 45.7502V41.9377Z" fill="white"/>
</mask>
<g mask="url(#mask0)">
<g id="&#240;&#159;&#142;&#168; Fill">
<rect id="&#240;&#159;&#142;&#168; Fill_2" width="61" height="61" fill="#464F62"/>
</g>
</g>
</g>
</svg>
