<svg width="19" height="21" viewBox="0 0 19 21" fill="none" xmlns="http://www.w3.org/2000/svg">
<path d="M13.5007 7.63627C13.5007 8.39143 13.2661 9.12962 12.8266 9.75751C12.3871 10.3854 11.7624 10.8748 11.0315 11.1638C10.3005 11.4528 9.49627 11.5284 8.72035 11.381C7.94442 11.2337 7.23168 10.8701 6.67227 10.3361C6.11285 9.80212 5.73189 9.1218 5.57755 8.38115C5.4232 7.64051 5.50242 6.87281 5.80517 6.17513C6.10792 5.47746 6.62062 4.88115 7.27842 4.46161C7.93622 4.04207 8.70958 3.81814 9.50071 3.81814C10.5612 3.81927 11.578 4.2219 12.3278 4.9377C13.0777 5.65349 13.4995 6.62399 13.5007 7.63627ZM17.5008 7.63627C17.5008 9.14658 17.0316 10.623 16.1525 11.8788C15.2735 13.1345 14.024 14.1133 12.5622 14.6913C11.1004 15.2692 9.49184 15.4205 7.93998 15.1258C6.38812 14.8312 4.96265 14.1039 3.84382 13.0359C2.72499 11.968 1.96306 10.6073 1.65438 9.12603C1.3457 7.64474 1.50412 6.10934 2.10963 4.714C2.71513 3.31865 3.74052 2.12603 5.05612 1.28694C6.37172 0.447859 7.91845 0 9.50071 0C11.6217 0.00239986 13.6551 0.807704 15.1548 2.23926C16.6546 3.67082 17.4983 5.61174 17.5008 7.63627ZM14.5007 7.63627C14.5007 6.69233 14.2075 5.76958 13.6581 4.98472C13.1087 4.19986 12.3278 3.58813 11.4141 3.2269C10.5005 2.86567 9.49516 2.77115 8.52525 2.95531C7.55534 3.13946 6.66442 3.59401 5.96516 4.26148C5.26589 4.92895 4.78968 5.77936 4.59675 6.70517C4.40383 7.63098 4.50284 8.5906 4.88128 9.46269C5.25972 10.3348 5.90059 11.0802 6.72284 11.6046C7.54509 12.129 8.5118 12.4089 9.50071 12.4089C10.8264 12.4076 12.0973 11.9043 13.0347 11.0095C13.972 10.1148 14.4993 8.90164 14.5007 7.63627ZM2.21766 12.6633L0.0256497 18.9399C-0.00130885 19.0171 -0.00713342 19.0996 0.00872851 19.1796C0.0245904 19.2595 0.0616124 19.3343 0.116276 19.3967C0.17094 19.4592 0.241429 19.5073 0.321045 19.5364C0.40066 19.5655 0.486758 19.5748 0.571154 19.5632L3.85668 19.115L6.18769 20.8952C6.24592 20.9397 6.31382 20.9711 6.38642 20.9873C6.45903 21.0034 6.5345 21.0039 6.60731 20.9886C6.68012 20.9733 6.74843 20.9427 6.80724 20.8989C6.86605 20.8552 6.91387 20.7995 6.9472 20.7358L9.31421 16.218C7.92376 16.1904 6.55903 15.8549 5.32754 15.2381C4.09605 14.6212 3.03147 13.7398 2.21766 12.6633ZM18.9743 18.9399L16.7828 12.6638C15.9688 13.7401 14.9042 14.6214 13.6727 15.2382C12.4413 15.8549 11.0766 16.1903 9.68621 16.218L12.0507 20.7358C12.084 20.7995 12.1319 20.8554 12.1907 20.8991C12.2496 20.9429 12.3179 20.9736 12.3908 20.9889C12.4637 21.0042 12.5392 21.0037 12.6119 20.9875C12.6846 20.9713 12.7525 20.9398 12.8107 20.8952L15.1417 19.115L18.4273 19.5632C18.5118 19.575 18.5981 19.566 18.6779 19.537C18.7577 19.508 18.8284 19.46 18.8833 19.3975C18.9381 19.335 18.9753 19.2601 18.9912 19.18C19.0072 19.0999 19.0013 19.0172 18.9743 18.9399Z" fill="#5A5A5A"/>
</svg>
