<svg width="28" height="28" viewBox="0 0 28 28" fill="none" xmlns="http://www.w3.org/2000/svg">
<mask id="mask0" mask-type="alpha" maskUnits="userSpaceOnUse" x="3" y="1" width="22" height="26">
<path fill-rule="evenodd" clip-rule="evenodd" d="M22.1686 12.5418V19.5418L23.6736 21.0468C24.4086 21.7818 23.8836 23.0418 22.8453 23.0418H5.14693C4.1086 23.0418 3.59527 21.7818 4.33027 21.0468L5.83526 19.5418V12.5418C5.83526 8.6335 8.5886 5.36683 12.2519 4.5735V3.2085C12.2519 2.24016 13.0336 1.4585 14.0019 1.4585C14.9703 1.4585 15.7519 2.24016 15.7519 3.2085V4.5735C19.4153 5.36683 22.1686 8.6335 22.1686 12.5418ZM16.3236 24.2202C16.3236 25.5035 15.2853 26.5418 14.002 26.5418C12.7186 26.5418 11.6803 25.5035 11.6803 24.2202H16.3236Z" fill="white"/>
</mask>
<g mask="url(#mask0)">
<rect width="28" height="28" fill="#5A5A5A"/>
</g>
</svg>
