<svg width="175" height="53" viewBox="0 0 175 53" fill="none" xmlns="http://www.w3.org/2000/svg">
<rect width="175" height="53" rx="26.5" fill="#FF9900"/>
<path d="M45.7715 33.0234C45.1914 33.7181 44.3714 34.2588 43.3115 34.6455C42.2516 35.0251 41.0771 35.2148 39.7881 35.2148C38.4346 35.2148 37.2458 34.9212 36.2217 34.334C35.2048 33.7396 34.417 32.8802 33.8584 31.7559C33.307 30.6315 33.0241 29.3102 33.0098 27.792V26.7285C33.0098 25.1673 33.2712 23.8174 33.7939 22.6787C34.3239 21.5329 35.083 20.6592 36.0713 20.0576C37.0667 19.4489 38.2305 19.1445 39.5625 19.1445C41.4173 19.1445 42.8675 19.5885 43.9131 20.4766C44.9587 21.3574 45.5781 22.6429 45.7715 24.333H42.6348C42.4915 23.4378 42.1729 22.7826 41.6787 22.3672C41.1917 21.9518 40.5186 21.7441 39.6592 21.7441C38.5635 21.7441 37.7292 22.1559 37.1562 22.9795C36.5833 23.8031 36.2933 25.0277 36.2861 26.6533V27.6523C36.2861 29.2923 36.5977 30.5312 37.2207 31.3691C37.8438 32.207 38.7568 32.626 39.96 32.626C41.1702 32.626 42.0332 32.3682 42.5488 31.8525V29.1562H39.6162V26.7822H45.7715V33.0234ZM53.5381 35.2148C51.8337 35.2148 50.4443 34.6921 49.3701 33.6465C48.3031 32.6009 47.7695 31.208 47.7695 29.4678V29.167C47.7695 27.9997 47.9951 26.9577 48.4463 26.041C48.8975 25.1172 49.5348 24.4082 50.3584 23.9141C51.1891 23.4128 52.1344 23.1621 53.1943 23.1621C54.7842 23.1621 56.0339 23.6634 56.9434 24.666C57.86 25.6686 58.3184 27.0902 58.3184 28.9307V30.1982H50.917C51.0173 30.9574 51.318 31.5661 51.8193 32.0244C52.3278 32.4827 52.9688 32.7119 53.7422 32.7119C54.9382 32.7119 55.8727 32.2786 56.5459 31.4121L58.0713 33.1201C57.6058 33.779 56.9756 34.2946 56.1807 34.667C55.3857 35.0322 54.5049 35.2148 53.5381 35.2148ZM53.1836 25.6758C52.5677 25.6758 52.0664 25.8835 51.6797 26.2988C51.3001 26.7142 51.0566 27.3086 50.9492 28.082H55.2676V27.835C55.2533 27.1475 55.0671 26.6175 54.709 26.2451C54.3509 25.8656 53.8424 25.6758 53.1836 25.6758ZM63.8076 20.5195V23.377H65.7949V25.6543H63.8076V31.4551C63.8076 31.8848 63.89 32.1927 64.0547 32.3789C64.2194 32.5651 64.5345 32.6582 65 32.6582C65.3438 32.6582 65.6481 32.6331 65.9131 32.583V34.9355C65.3044 35.1217 64.6777 35.2148 64.0332 35.2148C61.8561 35.2148 60.7461 34.1156 60.7031 31.917V25.6543H59.0059V23.377H60.7031V20.5195H63.8076ZM79.2979 31.7881C79.2979 31.4085 79.1081 31.1113 78.7285 30.8965C78.3561 30.6745 77.7546 30.4775 76.9238 30.3057C74.1595 29.7256 72.7773 28.5511 72.7773 26.7822C72.7773 25.751 73.2035 24.8916 74.0557 24.2041C74.915 23.5094 76.0358 23.1621 77.418 23.1621C78.8932 23.1621 80.0713 23.5094 80.9521 24.2041C81.8402 24.8988 82.2842 25.8011 82.2842 26.9111H79.1797C79.1797 26.4671 79.0365 26.1019 78.75 25.8154C78.4635 25.5218 78.016 25.375 77.4072 25.375C76.8844 25.375 76.4798 25.4932 76.1934 25.7295C75.9069 25.9658 75.7637 26.2666 75.7637 26.6318C75.7637 26.9756 75.9248 27.2549 76.2471 27.4697C76.5765 27.6774 77.1279 27.86 77.9014 28.0176C78.6748 28.168 79.3265 28.3398 79.8564 28.5332C81.4964 29.1348 82.3164 30.1768 82.3164 31.6592C82.3164 32.7191 81.8617 33.5785 80.9521 34.2373C80.0426 34.889 78.8682 35.2148 77.4287 35.2148C76.4548 35.2148 75.5882 35.043 74.8291 34.6992C74.0771 34.3483 73.4863 33.8721 73.0566 33.2705C72.627 32.6618 72.4121 32.0065 72.4121 31.3047H75.3555C75.3841 31.8561 75.5882 32.2786 75.9678 32.5723C76.3473 32.8659 76.8558 33.0127 77.4932 33.0127C78.0876 33.0127 78.5352 32.9017 78.8359 32.6797C79.1439 32.4505 79.2979 32.1533 79.2979 31.7881ZM88.042 20.5195V23.377H90.0293V25.6543H88.042V31.4551C88.042 31.8848 88.1243 32.1927 88.2891 32.3789C88.4538 32.5651 88.7689 32.6582 89.2344 32.6582C89.5781 32.6582 89.8825 32.6331 90.1475 32.583V34.9355C89.5387 35.1217 88.9121 35.2148 88.2676 35.2148C86.0905 35.2148 84.9805 34.1156 84.9375 31.917V25.6543H83.2402V23.377H84.9375V20.5195H88.042ZM98.4941 35C98.3509 34.7207 98.2471 34.3734 98.1826 33.958C97.4307 34.7959 96.4531 35.2148 95.25 35.2148C94.1113 35.2148 93.166 34.8854 92.4141 34.2266C91.6693 33.5677 91.2969 32.737 91.2969 31.7344C91.2969 30.5026 91.7516 29.5573 92.6611 28.8984C93.5778 28.2396 94.8991 27.9066 96.625 27.8994H98.0537V27.2334C98.0537 26.6963 97.9141 26.2666 97.6348 25.9443C97.3626 25.6221 96.9294 25.4609 96.335 25.4609C95.8122 25.4609 95.4004 25.5863 95.0996 25.8369C94.806 26.0876 94.6592 26.4313 94.6592 26.8682H91.5547C91.5547 26.195 91.7624 25.5719 92.1777 24.999C92.5931 24.4261 93.1803 23.9785 93.9395 23.6562C94.6986 23.3268 95.5508 23.1621 96.4961 23.1621C97.9284 23.1621 99.0635 23.5238 99.9014 24.2471C100.746 24.9632 101.169 25.973 101.169 27.2764V32.3145C101.176 33.4173 101.33 34.2516 101.631 34.8174V35H98.4941ZM95.9268 32.8408C96.3851 32.8408 96.8076 32.7406 97.1943 32.54C97.5811 32.3324 97.8675 32.0566 98.0537 31.7129V29.7148H96.8936C95.3395 29.7148 94.5124 30.252 94.4121 31.3262L94.4014 31.5088C94.4014 31.8955 94.5374 32.2142 94.8096 32.4648C95.0817 32.7155 95.4541 32.8408 95.9268 32.8408ZM110.085 26.2881C109.662 26.2308 109.29 26.2021 108.968 26.2021C107.793 26.2021 107.023 26.5996 106.658 27.3945V35H103.554V23.377H106.486L106.572 24.7627C107.195 23.6956 108.058 23.1621 109.161 23.1621C109.505 23.1621 109.827 23.2087 110.128 23.3018L110.085 26.2881ZM115.843 20.5195V23.377H117.83V25.6543H115.843V31.4551C115.843 31.8848 115.925 32.1927 116.09 32.3789C116.255 32.5651 116.57 32.6582 117.035 32.6582C117.379 32.6582 117.683 32.6331 117.948 32.583V34.9355C117.34 35.1217 116.713 35.2148 116.068 35.2148C113.891 35.2148 112.781 34.1156 112.738 31.917V25.6543H111.041V23.377H112.738V20.5195H115.843ZM124.909 35.2148C123.205 35.2148 121.815 34.6921 120.741 33.6465C119.674 32.6009 119.141 31.208 119.141 29.4678V29.167C119.141 27.9997 119.366 26.9577 119.817 26.041C120.269 25.1172 120.906 24.4082 121.729 23.9141C122.56 23.4128 123.506 23.1621 124.565 23.1621C126.155 23.1621 127.405 23.6634 128.314 24.666C129.231 25.6686 129.689 27.0902 129.689 28.9307V30.1982H122.288C122.388 30.9574 122.689 31.5661 123.19 32.0244C123.699 32.4827 124.34 32.7119 125.113 32.7119C126.309 32.7119 127.244 32.2786 127.917 31.4121L129.442 33.1201C128.977 33.779 128.347 34.2946 127.552 34.667C126.757 35.0322 125.876 35.2148 124.909 35.2148ZM124.555 25.6758C123.939 25.6758 123.438 25.8835 123.051 26.2988C122.671 26.7142 122.428 27.3086 122.32 28.082H126.639V27.835C126.624 27.1475 126.438 26.6175 126.08 26.2451C125.722 25.8656 125.214 25.6758 124.555 25.6758ZM130.979 29.1025C130.979 27.2907 131.383 25.8477 132.192 24.7734C133.009 23.6992 134.122 23.1621 135.533 23.1621C136.665 23.1621 137.599 23.5846 138.337 24.4297V18.5H141.452V35H138.648L138.498 33.7646C137.725 34.7314 136.729 35.2148 135.512 35.2148C134.144 35.2148 133.045 34.6777 132.214 33.6035C131.39 32.5221 130.979 31.0218 130.979 29.1025ZM134.083 29.3281C134.083 30.4167 134.273 31.251 134.652 31.8311C135.032 32.4111 135.583 32.7012 136.307 32.7012C137.266 32.7012 137.943 32.2965 138.337 31.4873V26.9004C137.95 26.0911 137.281 25.6865 136.328 25.6865C134.831 25.6865 134.083 26.9004 134.083 29.3281Z" fill="white"/>
</svg>
