<svg width="34" height="29" viewBox="0 0 34 29" fill="none" xmlns="http://www.w3.org/2000/svg">
<path fill-rule="evenodd" clip-rule="evenodd" d="M6.16745 5.54736C6.21925 5.54736 6.26554 5.57974 6.28331 5.6284L11.2029 19.0993L9.26036 19.8056L4.82905 7.6438C4.82217 7.62491 4.8042 7.61234 4.7841 7.61234H1.03249C0.462262 7.61234 0 7.15008 0 6.57985C0 6.00962 0.462261 5.54736 1.03249 5.54736H6.16745Z" fill="#464F62"/>
<path d="M22.4059 24.8978H8.09528C6.73367 24.8978 5.7701 23.5668 6.19529 22.2732L6.88909 20.1626C7.15887 19.3418 7.92514 18.7871 8.78907 18.7871H17.3843" stroke="#464F62" stroke-width="2" stroke-linecap="round"/>
<path fill-rule="evenodd" clip-rule="evenodd" d="M7.16359 11.9321C6.96023 11.2697 7.47589 10.6063 8.168 10.6398L26.557 11.5318C27.2214 11.564 27.6698 12.2239 27.455 12.8535L24.9672 20.1469C24.8291 20.5519 24.4486 20.8241 24.0208 20.8241H10.6324C10.1932 20.8241 9.80537 20.5375 9.67646 20.1176L7.16359 11.9321Z" fill="#464F62"/>
<path fill-rule="evenodd" clip-rule="evenodd" d="M11.203 28.9717C12.3279 28.9717 13.2399 28.0598 13.2399 26.9348C13.2399 25.8099 12.3279 24.8979 11.203 24.8979C10.0781 24.8979 9.16611 25.8099 9.16611 26.9348C9.16611 28.0598 10.0781 28.9717 11.203 28.9717Z" fill="#464F62"/>
<path fill-rule="evenodd" clip-rule="evenodd" d="M19.3506 28.9717C20.4755 28.9717 21.3874 28.0598 21.3874 26.9348C21.3874 25.8099 20.4755 24.8979 19.3506 24.8979C18.2256 24.8979 17.3137 25.8099 17.3137 26.9348C17.3137 28.0598 18.2256 28.9717 19.3506 28.9717Z" fill="#464F62"/>
<g clip-path="url(#clip0)">
<path fill-rule="evenodd" clip-rule="evenodd" d="M25.1801 17C29.8745 17 33.6801 13.1944 33.6801 8.5C33.6801 3.80558 29.8745 0 25.1801 0C20.4856 0 16.6801 3.80558 16.6801 8.5C16.6801 13.1944 20.4856 17 25.1801 17Z" fill="url(#paint0_linear)"/>
<path d="M26.8134 12H22.4276V11.1299L24.4974 8.92383C24.7816 8.61328 24.9911 8.34229 25.1259 8.11084C25.2635 7.87939 25.3324 7.65967 25.3324 7.45166C25.3324 7.16748 25.2606 6.94482 25.1171 6.78369C24.9735 6.61963 24.7684 6.5376 24.5018 6.5376C24.2147 6.5376 23.9877 6.63721 23.8207 6.83643C23.6566 7.03271 23.5746 7.29199 23.5746 7.61426H22.3002C22.3002 7.22461 22.3925 6.86865 22.577 6.54639C22.7645 6.22412 23.0282 5.97217 23.368 5.79053C23.7079 5.60596 24.0931 5.51367 24.5238 5.51367C25.183 5.51367 25.6942 5.67188 26.0575 5.98828C26.4237 6.30469 26.6068 6.75146 26.6068 7.32861C26.6068 7.64502 26.5248 7.96729 26.3607 8.29541C26.1967 8.62354 25.9154 9.00586 25.517 9.44238L24.0624 10.9761H26.8134V12Z" fill="white"/>
</g>
<defs>
<linearGradient id="paint0_linear" x1="16.3197" y1="-4.02702" x2="16.3197" y2="13.6938" gradientUnits="userSpaceOnUse">
<stop stop-color="#FFC700"/>
<stop offset="1" stop-color="#FF9500"/>
</linearGradient>
<clipPath id="clip0">
<rect width="17" height="17" fill="white" transform="translate(16.6801)"/>
</clipPath>
</defs>
</svg>
