<svg width="175" height="53" viewBox="0 0 175 53" fill="none" xmlns="http://www.w3.org/2000/svg">
<rect width="175" height="53" rx="8" fill="#FF9900"/>
<path d="M56.6748 28.79C56.5531 30.473 55.93 31.7979 54.8057 32.7646C53.6885 33.7314 52.2132 34.2148 50.3799 34.2148C48.3747 34.2148 46.7956 33.5417 45.6426 32.1953C44.4967 30.8418 43.9238 28.987 43.9238 26.6309V25.6748C43.9238 24.1709 44.1888 22.846 44.7188 21.7002C45.2487 20.5544 46.0042 19.6771 46.9854 19.0684C47.9736 18.4525 49.1195 18.1445 50.4229 18.1445C52.2275 18.1445 53.6813 18.6279 54.7842 19.5947C55.887 20.5615 56.5244 21.9186 56.6963 23.666H53.4736C53.3949 22.6562 53.112 21.9258 52.625 21.4746C52.1452 21.0163 51.4111 20.7871 50.4229 20.7871C49.3486 20.7871 48.543 21.1738 48.0059 21.9473C47.4759 22.7135 47.2038 23.9059 47.1895 25.5244V26.7061C47.1895 28.3962 47.4437 29.6315 47.9521 30.4121C48.4678 31.1927 49.277 31.583 50.3799 31.583C51.3753 31.583 52.1165 31.3574 52.6035 30.9062C53.0977 30.4479 53.3805 29.7425 53.4521 28.79H56.6748ZM58.1035 28.0811C58.1035 26.9281 58.3255 25.9004 58.7695 24.998C59.2135 24.0957 59.8509 23.3975 60.6816 22.9033C61.5195 22.4092 62.4899 22.1621 63.5928 22.1621C65.1611 22.1621 66.4395 22.6419 67.4277 23.6016C68.4232 24.5612 68.9782 25.8646 69.0928 27.5117L69.1143 28.3066C69.1143 30.0898 68.6165 31.5221 67.6211 32.6035C66.6257 33.6777 65.29 34.2148 63.6143 34.2148C61.9385 34.2148 60.5993 33.6777 59.5967 32.6035C58.6012 31.5293 58.1035 30.0684 58.1035 28.2207V28.0811ZM61.208 28.3066C61.208 29.4095 61.4157 30.2546 61.8311 30.8418C62.2464 31.4219 62.8408 31.7119 63.6143 31.7119C64.3662 31.7119 64.9535 31.4255 65.376 30.8525C65.7985 30.2725 66.0098 29.3486 66.0098 28.0811C66.0098 26.9997 65.7985 26.1618 65.376 25.5674C64.9535 24.973 64.359 24.6758 63.5928 24.6758C62.8337 24.6758 62.2464 24.973 61.8311 25.5674C61.4157 26.1546 61.208 27.0677 61.208 28.3066ZM73.8838 22.377L73.9805 23.7197C74.8112 22.6813 75.9248 22.1621 77.3213 22.1621C78.5531 22.1621 79.4697 22.5238 80.0713 23.2471C80.6729 23.9704 80.9808 25.0518 80.9951 26.4912V34H77.8906V26.5664C77.8906 25.9076 77.7474 25.4313 77.4609 25.1377C77.1745 24.8369 76.6982 24.6865 76.0322 24.6865C75.1585 24.6865 74.5033 25.0589 74.0664 25.8037V34H70.9619V22.377H73.8838ZM87.0752 19.5195V22.377H89.0625V24.6543H87.0752V30.4551C87.0752 30.8848 87.1576 31.1927 87.3223 31.3789C87.487 31.5651 87.8021 31.6582 88.2676 31.6582C88.6113 31.6582 88.9157 31.6331 89.1807 31.583V33.9355C88.5719 34.1217 87.9453 34.2148 87.3008 34.2148C85.1237 34.2148 84.0137 33.1156 83.9707 30.917V24.6543H82.2734V22.377H83.9707V19.5195H87.0752ZM94.0684 34H90.9531V22.377H94.0684V34ZM90.7705 19.3691C90.7705 18.9036 90.9245 18.5205 91.2324 18.2197C91.5475 17.9189 91.9736 17.7686 92.5107 17.7686C93.0407 17.7686 93.4632 17.9189 93.7783 18.2197C94.0934 18.5205 94.251 18.9036 94.251 19.3691C94.251 19.8418 94.0898 20.2285 93.7676 20.5293C93.4525 20.8301 93.0335 20.9805 92.5107 20.9805C91.988 20.9805 91.5654 20.8301 91.2432 20.5293C90.9281 20.2285 90.7705 19.8418 90.7705 19.3691ZM99.4932 22.377L99.5898 23.7197C100.421 22.6813 101.534 22.1621 102.931 22.1621C104.162 22.1621 105.079 22.5238 105.681 23.2471C106.282 23.9704 106.59 25.0518 106.604 26.4912V34H103.5V26.5664C103.5 25.9076 103.357 25.4313 103.07 25.1377C102.784 24.8369 102.308 24.6865 101.642 24.6865C100.768 24.6865 100.113 25.0589 99.6758 25.8037V34H96.5713V22.377H99.4932ZM115.929 32.8184C115.162 33.7493 114.103 34.2148 112.749 34.2148C111.503 34.2148 110.55 33.8568 109.892 33.1406C109.24 32.4245 108.907 31.3753 108.893 29.9932V22.377H111.997V29.8857C111.997 31.096 112.549 31.7012 113.651 31.7012C114.704 31.7012 115.427 31.3359 115.821 30.6055V22.377H118.937V34H116.015L115.929 32.8184ZM126.628 34.2148C124.924 34.2148 123.534 33.6921 122.46 32.6465C121.393 31.6009 120.859 30.208 120.859 28.4678V28.167C120.859 26.9997 121.085 25.9577 121.536 25.041C121.987 24.1172 122.625 23.4082 123.448 22.9141C124.279 22.4128 125.224 22.1621 126.284 22.1621C127.874 22.1621 129.124 22.6634 130.033 23.666C130.95 24.6686 131.408 26.0902 131.408 27.9307V29.1982H124.007C124.107 29.9574 124.408 30.5661 124.909 31.0244C125.418 31.4827 126.059 31.7119 126.832 31.7119C128.028 31.7119 128.963 31.2786 129.636 30.4121L131.161 32.1201C130.696 32.779 130.065 33.2946 129.271 33.667C128.476 34.0322 127.595 34.2148 126.628 34.2148ZM126.273 24.6758C125.658 24.6758 125.156 24.8835 124.77 25.2988C124.39 25.7142 124.146 26.3086 124.039 27.082H128.357V26.835C128.343 26.1475 128.157 25.6175 127.799 25.2451C127.441 24.8656 126.932 24.6758 126.273 24.6758Z" fill="white"/>
</svg>
