<svg width="126" height="38" viewBox="0 0 126 38" fill="none" xmlns="http://www.w3.org/2000/svg">
<rect y="3" width="126" height="33" rx="16.5" fill="#FF9900"/>
<path d="M44.2354 23.8818H49.834V26H41.5986V13.2031H44.2354V23.8818ZM50.792 21.1572C50.792 20.2139 50.9736 19.373 51.3369 18.6348C51.7002 17.8965 52.2217 17.3252 52.9014 16.9209C53.5869 16.5166 54.3809 16.3145 55.2832 16.3145C56.5664 16.3145 57.6123 16.707 58.4209 17.4922C59.2354 18.2773 59.6895 19.3438 59.7832 20.6914L59.8008 21.3418C59.8008 22.8008 59.3936 23.9727 58.5791 24.8574C57.7646 25.7363 56.6719 26.1758 55.3008 26.1758C53.9297 26.1758 52.834 25.7363 52.0137 24.8574C51.1992 23.9785 50.792 22.7832 50.792 21.2715V21.1572ZM53.332 21.3418C53.332 22.2441 53.502 22.9355 53.8418 23.416C54.1816 23.8906 54.668 24.1279 55.3008 24.1279C55.916 24.1279 56.3965 23.8936 56.7422 23.4248C57.0879 22.9502 57.2607 22.1943 57.2607 21.1572C57.2607 20.2725 57.0879 19.5869 56.7422 19.1006C56.3965 18.6143 55.9102 18.3711 55.2832 18.3711C54.6621 18.3711 54.1816 18.6143 53.8418 19.1006C53.502 19.5811 53.332 20.3281 53.332 21.3418ZM60.9961 21.1748C60.9961 19.7158 61.3418 18.541 62.0332 17.6504C62.7305 16.7598 63.668 16.3145 64.8457 16.3145C65.8887 16.3145 66.7002 16.6719 67.2803 17.3867L67.3857 16.4902H69.6885V25.6836C69.6885 26.5156 69.498 27.2393 69.1172 27.8545C68.7422 28.4697 68.2119 28.9385 67.5264 29.2607C66.8408 29.583 66.0381 29.7441 65.1182 29.7441C64.4209 29.7441 63.7412 29.6035 63.0791 29.3223C62.417 29.0469 61.916 28.6895 61.5762 28.25L62.7012 26.7031C63.334 27.4121 64.1016 27.7666 65.0039 27.7666C65.6777 27.7666 66.2021 27.585 66.5771 27.2217C66.9521 26.8643 67.1396 26.3545 67.1396 25.6924V25.1826C66.5537 25.8447 65.7832 26.1758 64.8281 26.1758C63.6855 26.1758 62.7598 25.7305 62.0508 24.8398C61.3477 23.9434 60.9961 22.7568 60.9961 21.2803V21.1748ZM63.5361 21.3594C63.5361 22.2207 63.709 22.8975 64.0547 23.3896C64.4004 23.876 64.875 24.1191 65.4785 24.1191C66.252 24.1191 66.8057 23.8291 67.1396 23.249V19.25C66.7998 18.6699 66.252 18.3799 65.4961 18.3799C64.8867 18.3799 64.4062 18.6289 64.0547 19.127C63.709 19.625 63.5361 20.3691 63.5361 21.3594ZM74.3291 26H71.7803V16.4902H74.3291V26ZM71.6309 14.0293C71.6309 13.6484 71.7568 13.335 72.0088 13.0889C72.2666 12.8428 72.6152 12.7197 73.0547 12.7197C73.4883 12.7197 73.834 12.8428 74.0918 13.0889C74.3496 13.335 74.4785 13.6484 74.4785 14.0293C74.4785 14.416 74.3467 14.7324 74.083 14.9785C73.8252 15.2246 73.4824 15.3477 73.0547 15.3477C72.627 15.3477 72.2812 15.2246 72.0176 14.9785C71.7598 14.7324 71.6309 14.416 71.6309 14.0293ZM78.7676 16.4902L78.8467 17.5889C79.5264 16.7393 80.4375 16.3145 81.5801 16.3145C82.5879 16.3145 83.3379 16.6104 83.8301 17.2021C84.3223 17.7939 84.5742 18.6787 84.5859 19.8564V26H82.0459V19.918C82.0459 19.3789 81.9287 18.9893 81.6943 18.749C81.46 18.5029 81.0703 18.3799 80.5254 18.3799C79.8105 18.3799 79.2744 18.6846 78.917 19.2939V26H76.377V16.4902H78.7676Z" fill="white"/>
</svg>
