<svg width="117" height="38" viewBox="0 0 117 38" fill="none" xmlns="http://www.w3.org/2000/svg">
<rect x="2" y="3" width="112" height="33" rx="16.5" stroke="#24AB42" stroke-width="2"/>
<path d="M24.6484 20.5078V19.1641L29.5 19.1562V23.4062C28.7552 24 27.987 24.4479 27.1953 24.75C26.4036 25.0469 25.5911 25.1953 24.7578 25.1953C23.6328 25.1953 22.6094 24.9557 21.6875 24.4766C20.7708 23.9922 20.0781 23.2943 19.6094 22.3828C19.1406 21.4714 18.9062 20.4531 18.9062 19.3281C18.9062 18.2135 19.138 17.1745 19.6016 16.2109C20.0703 15.2422 20.7422 14.5234 21.6172 14.0547C22.4922 13.5859 23.5 13.3516 24.6406 13.3516C25.4688 13.3516 26.2161 13.487 26.8828 13.7578C27.5547 14.0234 28.0807 14.3958 28.4609 14.875C28.8411 15.3542 29.1302 15.9792 29.3281 16.75L27.9609 17.125C27.7891 16.5417 27.5755 16.0833 27.3203 15.75C27.0651 15.4167 26.7005 15.151 26.2266 14.9531C25.7526 14.75 25.2266 14.6484 24.6484 14.6484C23.9557 14.6484 23.3568 14.7552 22.8516 14.9688C22.3464 15.1771 21.9375 15.4531 21.625 15.7969C21.3177 16.1406 21.0781 16.5182 20.9062 16.9297C20.6146 17.638 20.4688 18.4062 20.4688 19.2344C20.4688 20.2552 20.6432 21.1094 20.9922 21.7969C21.3464 22.4844 21.8594 22.9948 22.5312 23.3281C23.2031 23.6615 23.9167 23.8281 24.6719 23.8281C25.3281 23.8281 25.9688 23.7031 26.5938 23.4531C27.2188 23.1979 27.6927 22.9271 28.0156 22.6406V20.5078H24.6484ZM37.2422 22.3281L38.6953 22.5078C38.4661 23.3568 38.0417 24.0156 37.4219 24.4844C36.8021 24.9531 36.0104 25.1875 35.0469 25.1875C33.8333 25.1875 32.8698 24.8151 32.1562 24.0703C31.4479 23.3203 31.0938 22.2708 31.0938 20.9219C31.0938 19.526 31.4531 18.4427 32.1719 17.6719C32.8906 16.901 33.8229 16.5156 34.9688 16.5156C36.0781 16.5156 36.9844 16.8932 37.6875 17.6484C38.3906 18.4036 38.7422 19.4661 38.7422 20.8359C38.7422 20.9193 38.7396 21.0443 38.7344 21.2109H32.5469C32.599 22.1224 32.8568 22.8203 33.3203 23.3047C33.7839 23.7891 34.362 24.0312 35.0547 24.0312C35.5703 24.0312 36.0104 23.8958 36.375 23.625C36.7396 23.3542 37.0286 22.9219 37.2422 22.3281ZM32.625 20.0547H37.2578C37.1953 19.3568 37.0182 18.8333 36.7266 18.4844C36.2786 17.9427 35.6979 17.6719 34.9844 17.6719C34.3385 17.6719 33.7943 17.888 33.3516 18.3203C32.9141 18.7526 32.6719 19.3307 32.625 20.0547ZM43.5391 23.7422L43.7422 24.9844C43.3464 25.0677 42.9922 25.1094 42.6797 25.1094C42.1693 25.1094 41.7734 25.0286 41.4922 24.8672C41.2109 24.7057 41.013 24.4948 40.8984 24.2344C40.7839 23.9688 40.7266 23.4141 40.7266 22.5703V17.7969H39.6953V16.7031H40.7266V14.6484L42.125 13.8047V16.7031H43.5391V17.7969H42.125V22.6484C42.125 23.0495 42.1484 23.3073 42.1953 23.4219C42.2474 23.5365 42.3281 23.6276 42.4375 23.6953C42.5521 23.763 42.7135 23.7969 42.9219 23.7969C43.0781 23.7969 43.2839 23.7786 43.5391 23.7422ZM49.0391 21.3203L50.4688 21.1953C50.5365 21.7682 50.6927 22.2396 50.9375 22.6094C51.1875 22.974 51.5729 23.2708 52.0938 23.5C52.6146 23.724 53.2005 23.8359 53.8516 23.8359C54.4297 23.8359 54.9401 23.75 55.3828 23.5781C55.8255 23.4062 56.1536 23.1719 56.3672 22.875C56.5859 22.5729 56.6953 22.2448 56.6953 21.8906C56.6953 21.5312 56.5911 21.2188 56.3828 20.9531C56.1745 20.6823 55.8307 20.4557 55.3516 20.2734C55.0443 20.1536 54.3646 19.9688 53.3125 19.7188C52.2604 19.4635 51.5234 19.224 51.1016 19C50.5547 18.7135 50.1458 18.3594 49.875 17.9375C49.6094 17.5104 49.4766 17.0339 49.4766 16.5078C49.4766 15.9297 49.6406 15.3906 49.9688 14.8906C50.2969 14.3854 50.776 14.0026 51.4062 13.7422C52.0365 13.4818 52.737 13.3516 53.5078 13.3516C54.3568 13.3516 55.1042 13.4896 55.75 13.7656C56.401 14.0365 56.901 14.4375 57.25 14.9688C57.599 15.5 57.7865 16.1016 57.8125 16.7734L56.3594 16.8828C56.2812 16.1589 56.0156 15.612 55.5625 15.2422C55.1146 14.8724 54.4505 14.6875 53.5703 14.6875C52.6536 14.6875 51.9844 14.8568 51.5625 15.1953C51.1458 15.5286 50.9375 15.9323 50.9375 16.4062C50.9375 16.8177 51.0859 17.1562 51.3828 17.4219C51.6745 17.6875 52.4349 17.9609 53.6641 18.2422C54.8984 18.5182 55.7448 18.7604 56.2031 18.9688C56.8698 19.276 57.362 19.6667 57.6797 20.1406C57.9974 20.6094 58.1562 21.151 58.1562 21.7656C58.1562 22.375 57.9818 22.9505 57.6328 23.4922C57.2839 24.0286 56.7812 24.4479 56.125 24.75C55.474 25.0469 54.7396 25.1953 53.9219 25.1953C52.8854 25.1953 52.0156 25.0443 51.3125 24.7422C50.6146 24.4401 50.0651 23.987 49.6641 23.3828C49.2682 22.7734 49.0599 22.0859 49.0391 21.3203ZM63.1172 23.7422L63.3203 24.9844C62.9245 25.0677 62.5703 25.1094 62.2578 25.1094C61.7474 25.1094 61.3516 25.0286 61.0703 24.8672C60.7891 24.7057 60.5911 24.4948 60.4766 24.2344C60.362 23.9688 60.3047 23.4141 60.3047 22.5703V17.7969H59.2734V16.7031H60.3047V14.6484L61.7031 13.8047V16.7031H63.1172V17.7969H61.7031V22.6484C61.7031 23.0495 61.7266 23.3073 61.7734 23.4219C61.8255 23.5365 61.9062 23.6276 62.0156 23.6953C62.1302 23.763 62.2917 23.7969 62.5 23.7969C62.6562 23.7969 62.862 23.7786 63.1172 23.7422ZM69.9141 23.9766C69.3932 24.4193 68.8906 24.7318 68.4062 24.9141C67.9271 25.0964 67.4115 25.1875 66.8594 25.1875C65.9479 25.1875 65.2474 24.9661 64.7578 24.5234C64.2682 24.0755 64.0234 23.5052 64.0234 22.8125C64.0234 22.4062 64.1146 22.0365 64.2969 21.7031C64.4844 21.3646 64.7266 21.0938 65.0234 20.8906C65.3255 20.6875 65.6641 20.5339 66.0391 20.4297C66.3151 20.3568 66.7318 20.2865 67.2891 20.2188C68.4245 20.0833 69.2604 19.9219 69.7969 19.7344C69.8021 19.5417 69.8047 19.4193 69.8047 19.3672C69.8047 18.7943 69.6719 18.3906 69.4062 18.1562C69.0469 17.8385 68.513 17.6797 67.8047 17.6797C67.1432 17.6797 66.6536 17.7969 66.3359 18.0312C66.0234 18.2604 65.7917 18.6693 65.6406 19.2578L64.2656 19.0703C64.3906 18.4818 64.5964 18.0078 64.8828 17.6484C65.1693 17.2839 65.5833 17.0052 66.125 16.8125C66.6667 16.6146 67.2943 16.5156 68.0078 16.5156C68.7161 16.5156 69.2917 16.599 69.7344 16.7656C70.1771 16.9323 70.5026 17.1432 70.7109 17.3984C70.9193 17.6484 71.0651 17.9661 71.1484 18.3516C71.1953 18.5911 71.2188 19.0234 71.2188 19.6484V21.5234C71.2188 22.8307 71.2474 23.6589 71.3047 24.0078C71.3672 24.3516 71.487 24.6823 71.6641 25H70.1953C70.0495 24.7083 69.9557 24.3672 69.9141 23.9766ZM69.7969 20.8359C69.2865 21.0443 68.5208 21.2214 67.5 21.3672C66.9219 21.4505 66.513 21.5443 66.2734 21.6484C66.0339 21.7526 65.849 21.9062 65.7188 22.1094C65.5885 22.3073 65.5234 22.5286 65.5234 22.7734C65.5234 23.1484 65.6641 23.4609 65.9453 23.7109C66.2318 23.9609 66.6484 24.0859 67.1953 24.0859C67.737 24.0859 68.2188 23.9688 68.6406 23.7344C69.0625 23.4948 69.3724 23.1693 69.5703 22.7578C69.7214 22.4401 69.7969 21.9714 69.7969 21.3516V20.8359ZM73.3906 25V16.7031H74.6562V17.9609C74.9792 17.3724 75.276 16.9844 75.5469 16.7969C75.8229 16.6094 76.125 16.5156 76.4531 16.5156C76.9271 16.5156 77.4089 16.6667 77.8984 16.9688L77.4141 18.2734C77.0703 18.0703 76.7266 17.9688 76.3828 17.9688C76.0755 17.9688 75.7995 18.0625 75.5547 18.25C75.3099 18.4323 75.1354 18.6875 75.0312 19.0156C74.875 19.5156 74.7969 20.0625 74.7969 20.6562V25H73.3906ZM81.8047 23.7422L82.0078 24.9844C81.612 25.0677 81.2578 25.1094 80.9453 25.1094C80.4349 25.1094 80.0391 25.0286 79.7578 24.8672C79.4766 24.7057 79.2786 24.4948 79.1641 24.2344C79.0495 23.9688 78.9922 23.4141 78.9922 22.5703V17.7969H77.9609V16.7031H78.9922V14.6484L80.3906 13.8047V16.7031H81.8047V17.7969H80.3906V22.6484C80.3906 23.0495 80.4141 23.3073 80.4609 23.4219C80.513 23.5365 80.5938 23.6276 80.7031 23.6953C80.8177 23.763 80.9792 23.7969 81.1875 23.7969C81.3438 23.7969 81.5495 23.7786 81.8047 23.7422ZM88.8672 22.3281L90.3203 22.5078C90.0911 23.3568 89.6667 24.0156 89.0469 24.4844C88.4271 24.9531 87.6354 25.1875 86.6719 25.1875C85.4583 25.1875 84.4948 24.8151 83.7812 24.0703C83.0729 23.3203 82.7188 22.2708 82.7188 20.9219C82.7188 19.526 83.0781 18.4427 83.7969 17.6719C84.5156 16.901 85.4479 16.5156 86.5938 16.5156C87.7031 16.5156 88.6094 16.8932 89.3125 17.6484C90.0156 18.4036 90.3672 19.4661 90.3672 20.8359C90.3672 20.9193 90.3646 21.0443 90.3594 21.2109H84.1719C84.224 22.1224 84.4818 22.8203 84.9453 23.3047C85.4089 23.7891 85.987 24.0312 86.6797 24.0312C87.1953 24.0312 87.6354 23.8958 88 23.625C88.3646 23.3542 88.6536 22.9219 88.8672 22.3281ZM84.25 20.0547H88.8828C88.8203 19.3568 88.6432 18.8333 88.3516 18.4844C87.9036 17.9427 87.3229 17.6719 86.6094 17.6719C85.9635 17.6719 85.4193 17.888 84.9766 18.3203C84.5391 18.7526 84.2969 19.3307 84.25 20.0547ZM97.4766 25V23.9531C96.9505 24.776 96.1771 25.1875 95.1562 25.1875C94.4948 25.1875 93.8854 25.0052 93.3281 24.6406C92.776 24.276 92.3464 23.7682 92.0391 23.1172C91.737 22.4609 91.5859 21.7083 91.5859 20.8594C91.5859 20.0312 91.724 19.2812 92 18.6094C92.276 17.9323 92.6901 17.4141 93.2422 17.0547C93.7943 16.6953 94.4115 16.5156 95.0938 16.5156C95.5938 16.5156 96.0391 16.6224 96.4297 16.8359C96.8203 17.0443 97.138 17.3177 97.3828 17.6562V13.5469H98.7812V25H97.4766ZM93.0312 20.8594C93.0312 21.9219 93.2552 22.7161 93.7031 23.2422C94.151 23.7682 94.6797 24.0312 95.2891 24.0312C95.9036 24.0312 96.4245 23.7812 96.8516 23.2812C97.2839 22.776 97.5 22.0078 97.5 20.9766C97.5 19.8411 97.2812 19.0078 96.8438 18.4766C96.4062 17.9453 95.8672 17.6797 95.2266 17.6797C94.6016 17.6797 94.0781 17.9349 93.6562 18.4453C93.2396 18.9557 93.0312 19.7604 93.0312 20.8594Z" fill="#24AB42"/>
</svg>
